<svg version="1.1" viewBox="0.0 0.0 797.0 472.0" fill="none" stroke="none" stroke-linecap="square" stroke-miterlimit="10" width="797" height="472" xmlns:xlink="http://www.w3.org/1999/xlink" xmlns="http://www.w3.org/2000/svg"><path fill="#ffffff" d="M0 0L797.0 0L797.0 472.0L0 472.0L0 0Z" fill-rule="nonzero"/><path stroke="#333333" stroke-width="1.0" stroke-linecap="butt" d="M50.5 424.5L773.5 424.5" fill-rule="nonzero"/><path stroke="#cccccc" stroke-width="1.0" stroke-linecap="butt" d="M50.5 372.5L773.5 372.5" fill-rule="nonzero"/><path stroke="#cccccc" stroke-width="1.0" stroke-linecap="butt" d="M50.5 321.5L773.5 321.5" fill-rule="nonzero"/><path stroke="#cccccc" stroke-width="1.0" stroke-linecap="butt" d="M50.5 269.5L773.5 269.5" fill-rule="nonzero"/><path stroke="#cccccc" stroke-width="1.0" stroke-linecap="butt" d="M50.5 218.5L773.5 218.5" fill-rule="nonzero"/><path stroke="#cccccc" stroke-width="1.0" stroke-linecap="butt" d="M50.5 166.5L773.5 166.5" fill-rule="nonzero"/><path stroke="#cccccc" stroke-width="1.0" stroke-linecap="butt" d="M50.5 115.5L773.5 115.5" fill-rule="nonzero"/><path stroke="#cccccc" stroke-width="1.0" stroke-linecap="butt" d="M50.5 63.5L773.5 63.5" fill-rule="nonzero"/><path stroke="#000000" stroke-width="1.0" stroke-linecap="butt" d="M50.5 424.5L50.5 63.5" fill-rule="nonzero"/><clipPath id="id_0"><path d="M50.6 63.833332L773.4 63.833332L773.4 424.4L50.6 424.4L50.6 63.833332Z" clip-rule="nonzero"/></clipPath><path stroke="#00b050" stroke-width="2.0" stroke-linecap="butt" stroke-dasharray="8.0,6.0" clip-path="url(#id_0)" d="M122.88 424.4L267.44 424.4L412.0 424.4L556.56 424.4L701.12 424.4" fill-rule="nonzero"/><path stroke="#ff6b00" stroke-width="2.0" stroke-linecap="butt" clip-path="url(#id_0)" d="M122.88 424.4L267.44 321.38095L412.0 372.89047L556.56 424.4L701.12 424.4" fill-rule="nonzero"/><path stroke="#226f00" stroke-width="2.0" stroke-linecap="butt" clip-path="url(#id_0)" d="M122.88 424.4L267.44 372.89047L412.0 424.4L556.56 424.4L701.12 424.4" fill-rule="nonzero"/><path stroke="#9900ff" stroke-width="2.0" stroke-linecap="butt" clip-path="url(#id_0)" d="M122.88 424.4L267.44 424.4L412.0 372.89047L556.56 321.38095L701.12 424.4" fill-rule="nonzero"/><path stroke="#ff00ff" stroke-width="2.0" stroke-linecap="butt" clip-path="url(#id_0)" d="M122.88 424.4L267.44 269.87143L412.0 424.4L556.56 424.4L701.12 424.4" fill-rule="nonzero"/><path stroke="#ffcb00" stroke-width="2.0" stroke-linecap="butt" clip-path="url(#id_0)" d="M122.88 424.4L267.44 424.4L412.0 321.38095L556.56 372.89047L701.12 424.4" fill-rule="nonzero"/><path fill="#000000" fill-opacity="0.0" clip-path="url(#id_0)" d="M125.88 424.4C125.88 426.05685 124.53686 427.4 122.88 427.4C121.223145 427.4 119.88 426.05685 119.88 424.4C119.88 422.74313 121.223145 421.4 122.88 421.4C124.53686 421.4 125.88 422.74313 125.88 424.4Z" fill-rule="nonzero"/><path fill="#000000" fill-opacity="0.0" clip-path="url(#id_0)" d="M270.44 424.4C270.44 426.05685 269.09686 427.4 267.44 427.4C265.78314 427.4 264.44 426.05685 264.44 424.4C264.44 422.74313 265.78314 421.4 267.44 421.4C269.09686 421.4 270.44 422.74313 270.44 424.4Z" fill-rule="nonzero"/><path fill="#000000" fill-opacity="0.0" clip-path="url(#id_0)" d="M415.0 424.4C415.0 426.05685 413.65686 427.4 412.0 427.4C410.34314 427.4 409.0 426.05685 409.0 424.4C409.0 422.74313 410.34314 421.4 412.0 421.4C413.65686 421.4 415.0 422.74313 415.0 424.4Z" fill-rule="nonzero"/><path fill="#000000" fill-opacity="0.0" clip-path="url(#id_0)" d="M559.56 424.4C559.56 426.05685 558.21686 427.4 556.56 427.4C554.90314 427.4 553.56 426.05685 553.56 424.4C553.56 422.74313 554.90314 421.4 556.56 421.4C558.21686 421.4 559.56 422.74313 559.56 424.4Z" fill-rule="nonzero"/><path fill="#000000" fill-opacity="0.0" clip-path="url(#id_0)" d="M704.12 424.4C704.12 426.05685 702.77686 427.4 701.12 427.4C699.46313 427.4 698.12 426.05685 698.12 424.4C698.12 422.74313 699.46313 421.4 701.12 421.4C702.77686 421.4 704.12 422.74313 704.12 424.4Z" fill-rule="nonzero"/><path fill="#ff6b00" clip-path="url(#id_0)" d="M125.38 424.4C125.38 425.7807 124.26071 426.9 122.88 426.9C121.49929 426.9 120.38 425.7807 120.38 424.4C120.38 423.0193 121.49929 421.9 122.88 421.9C124.26071 421.9 125.38 423.0193 125.38 424.4Z" fill-rule="nonzero"/><path fill="#ff6b00" clip-path="url(#id_0)" d="M269.94 321.38095C269.94 322.76166 268.8207 323.88095 267.44 323.88095C266.0593 323.88095 264.94 322.76166 264.94 321.38095C264.94 320.00024 266.0593 318.88095 267.44 318.88095C268.8207 318.88095 269.94 320.00024 269.94 321.38095Z" fill-rule="nonzero"/><path fill="#ff6b00" clip-path="url(#id_0)" d="M414.5 372.89047C414.5 374.27118 413.3807 375.39047 412.0 375.39047C410.6193 375.39047 409.5 374.27118 409.5 372.89047C409.5 371.50977 410.6193 370.39047 412.0 370.39047C413.3807 370.39047 414.5 371.50977 414.5 372.89047Z" fill-rule="nonzero"/><path fill="#ff6b00" clip-path="url(#id_0)" d="M559.06 424.4C559.06 425.7807 557.94073 426.9 556.56 426.9C555.17926 426.9 554.06 425.7807 554.06 424.4C554.06 423.0193 555.17926 421.9 556.56 421.9C557.94073 421.9 559.06 423.0193 559.06 424.4Z" fill-rule="nonzero"/><path fill="#ff6b00" clip-path="url(#id_0)" d="M703.62 424.4C703.62 425.7807 702.50073 426.9 701.12 426.9C699.73926 426.9 698.62 425.7807 698.62 424.4C698.62 423.0193 699.73926 421.9 701.12 421.9C702.50073 421.9 703.62 423.0193 703.62 424.4Z" fill-rule="nonzero"/><path fill="#226f00" clip-path="url(#id_0)" d="M125.38 424.4C125.38 425.7807 124.26071 426.9 122.88 426.9C121.49929 426.9 120.38 425.7807 120.38 424.4C120.38 423.0193 121.49929 421.9 122.88 421.9C124.26071 421.9 125.38 423.0193 125.38 424.4Z" fill-rule="nonzero"/><path fill="#226f00" clip-path="url(#id_0)" d="M269.94 372.89047C269.94 374.27118 268.8207 375.39047 267.44 375.39047C266.0593 375.39047 264.94 374.27118 264.94 372.89047C264.94 371.50977 266.0593 370.39047 267.44 370.39047C268.8207 370.39047 269.94 371.50977 269.94 372.89047Z" fill-rule="nonzero"/><path fill="#226f00" clip-path="url(#id_0)" d="M414.5 424.4C414.5 425.7807 413.3807 426.9 412.0 426.9C410.6193 426.9 409.5 425.7807 409.5 424.4C409.5 423.0193 410.6193 421.9 412.0 421.9C413.3807 421.9 414.5 423.0193 414.5 424.4Z" fill-rule="nonzero"/><path fill="#226f00" clip-path="url(#id_0)" d="M559.06 424.4C559.06 425.7807 557.94073 426.9 556.56 426.9C555.17926 426.9 554.06 425.7807 554.06 424.4C554.06 423.0193 555.17926 421.9 556.56 421.9C557.94073 421.9 559.06 423.0193 559.06 424.4Z" fill-rule="nonzero"/><path fill="#226f00" clip-path="url(#id_0)" d="M703.62 424.4C703.62 425.7807 702.50073 426.9 701.12 426.9C699.73926 426.9 698.62 425.7807 698.62 424.4C698.62 423.0193 699.73926 421.9 701.12 421.9C702.50073 421.9 703.62 423.0193 703.62 424.4Z" fill-rule="nonzero"/><path fill="#9900ff" clip-path="url(#id_0)" d="M125.38 424.4C125.38 425.7807 124.26071 426.9 122.88 426.9C121.49929 426.9 120.38 425.7807 120.38 424.4C120.38 423.0193 121.49929 421.9 122.88 421.9C124.26071 421.9 125.38 423.0193 125.38 424.4Z" fill-rule="nonzero"/><path fill="#9900ff" clip-path="url(#id_0)" d="M269.94 424.4C269.94 425.7807 268.8207 426.9 267.44 426.9C266.0593 426.9 264.94 425.7807 264.94 424.4C264.94 423.0193 266.0593 421.9 267.44 421.9C268.8207 421.9 269.94 423.0193 269.94 424.4Z" fill-rule="nonzero"/><path fill="#9900ff" clip-path="url(#id_0)" d="M414.5 372.89047C414.5 374.27118 413.3807 375.39047 412.0 375.39047C410.6193 375.39047 409.5 374.27118 409.5 372.89047C409.5 371.50977 410.6193 370.39047 412.0 370.39047C413.3807 370.39047 414.5 371.50977 414.5 372.89047Z" fill-rule="nonzero"/><path fill="#9900ff" clip-path="url(#id_0)" d="M559.06 321.38095C559.06 322.76166 557.94073 323.88095 556.56 323.88095C555.17926 323.88095 554.06 322.76166 554.06 321.38095C554.06 320.00024 555.17926 318.88095 556.56 318.88095C557.94073 318.88095 559.06 320.00024 559.06 321.38095Z" fill-rule="nonzero"/><path fill="#9900ff" clip-path="url(#id_0)" d="M703.62 424.4C703.62 425.7807 702.50073 426.9 701.12 426.9C699.73926 426.9 698.62 425.7807 698.62 424.4C698.62 423.0193 699.73926 421.9 701.12 421.9C702.50073 421.9 703.62 423.0193 703.62 424.4Z" fill-rule="nonzero"/><path fill="#ff00ff" clip-path="url(#id_0)" d="M125.38 424.4C125.38 425.7807 124.26071 426.9 122.88 426.9C121.49929 426.9 120.38 425.7807 120.38 424.4C120.38 423.0193 121.49929 421.9 122.88 421.9C124.26071 421.9 125.38 423.0193 125.38 424.4Z" fill-rule="nonzero"/><path fill="#ff00ff" clip-path="url(#id_0)" d="M269.94 269.87143C269.94 271.25214 268.8207 272.37143 267.44 272.37143C266.0593 272.37143 264.94 271.25214 264.94 269.87143C264.94 268.49072 266.0593 267.37143 267.44 267.37143C268.8207 267.37143 269.94 268.49072 269.94 269.87143Z" fill-rule="nonzero"/><path fill="#ff00ff" clip-path="url(#id_0)" d="M414.5 424.4C414.5 425.7807 413.3807 426.9 412.0 426.9C410.6193 426.9 409.5 425.7807 409.5 424.4C409.5 423.0193 410.6193 421.9 412.0 421.9C413.3807 421.9 414.5 423.0193 414.5 424.4Z" fill-rule="nonzero"/><path fill="#ff00ff" clip-path="url(#id_0)" d="M559.06 424.4C559.06 425.7807 557.94073 426.9 556.56 426.9C555.17926 426.9 554.06 425.7807 554.06 424.4C554.06 423.0193 555.17926 421.9 556.56 421.9C557.94073 421.9 559.06 423.0193 559.06 424.4Z" fill-rule="nonzero"/><path fill="#ff00ff" clip-path="url(#id_0)" d="M703.62 424.4C703.62 425.7807 702.50073 426.9 701.12 426.9C699.73926 426.9 698.62 425.7807 698.62 424.4C698.62 423.0193 699.73926 421.9 701.12 421.9C702.50073 421.9 703.62 423.0193 703.62 424.4Z" fill-rule="nonzero"/><path fill="#ffcb00" clip-path="url(#id_0)" d="M125.38 424.4C125.38 425.7807 124.26071 426.9 122.88 426.9C121.49929 426.9 120.38 425.7807 120.38 424.4C120.38 423.0193 121.49929 421.9 122.88 421.9C124.26071 421.9 125.38 423.0193 125.38 424.4Z" fill-rule="nonzero"/><path fill="#ffcb00" clip-path="url(#id_0)" d="M269.94 424.4C269.94 425.7807 268.8207 426.9 267.44 426.9C266.0593 426.9 264.94 425.7807 264.94 424.4C264.94 423.0193 266.0593 421.9 267.44 421.9C268.8207 421.9 269.94 423.0193 269.94 424.4Z" fill-rule="nonzero"/><path fill="#ffcb00" clip-path="url(#id_0)" d="M414.5 321.38095C414.5 322.76166 413.3807 323.88095 412.0 323.88095C410.6193 323.88095 409.5 322.76166 409.5 321.38095C409.5 320.00024 410.6193 318.88095 412.0 318.88095C413.3807 318.88095 414.5 320.00024 414.5 321.38095Z" fill-rule="nonzero"/><path fill="#ffcb00" clip-path="url(#id_0)" d="M559.06 372.89047C559.06 374.27118 557.94073 375.39047 556.56 375.39047C555.17926 375.39047 554.06 374.27118 554.06 372.89047C554.06 371.50977 555.17926 370.39047 556.56 370.39047C557.94073 370.39047 559.06 371.50977 559.06 372.89047Z" fill-rule="nonzero"/><path fill="#ffcb00" clip-path="url(#id_0)" d="M703.62 424.4C703.62 425.7807 702.50073 426.9 701.12 426.9C699.73926 426.9 698.62 425.7807 698.62 424.4C698.62 423.0193 699.73926 421.9 701.12 421.9C702.50073 421.9 703.62 423.0193 703.62 424.4Z" fill-rule="nonzero"/><path fill="#000000" d="M43.6625 423.94687L43.6625 425.25937Q43.6625 426.30624 43.475 427.025Q43.2875 427.74374 42.928123 428.18124Q42.584373 428.61874 42.084373 428.82187Q41.6 429.025 40.975 429.025Q40.490623 429.025 40.06875 428.9Q39.646873 428.775 39.31875 428.50937Q38.990623 428.22812 38.75625 427.79062Q38.521873 427.35312 38.396873 426.72812Q38.271873 426.0875 38.271873 425.25937L38.271873 423.94687Q38.271873 422.9 38.459373 422.19687Q38.6625 421.49374 39.00625 421.05624Q39.365623 420.61874 39.85 420.43124Q40.35 420.24374 40.959373 420.24374Q41.459373 420.24374 41.88125 420.36874Q42.303123 420.49374 42.63125 420.75937Q42.959373 421.00937 43.178123 421.44687Q43.4125 421.86874 43.5375 422.49374Q43.6625 423.11874 43.6625 423.94687ZM42.56875 425.43124L42.56875 423.775Q42.56875 423.19687 42.50625 422.75937Q42.44375 422.32187 42.303123 422.00937Q42.178123 421.69687 41.975 421.50937Q41.7875 421.32187 41.5375 421.22812Q41.2875 421.13437 40.959373 421.13437Q40.584373 421.13437 40.271873 421.275Q39.975 421.41562 39.771873 421.72812Q39.56875 422.04062 39.459373 422.55624Q39.365623 423.05624 39.365623 423.775L39.365623 425.43124Q39.365623 426.00937 39.428123 426.44687Q39.50625 426.88437 39.63125 427.2125Q39.771873 427.525 39.959373 427.72812Q40.1625 427.93124 40.4125 428.025Q40.6625 428.11874 40.975 428.11874Q41.38125 428.11874 41.678123 427.97812Q41.975 427.82187 42.178123 427.49374Q42.38125 427.16562 42.475 426.66562Q42.56875 426.15 42.56875 425.43124Z" fill-rule="nonzero"/><path fill="#000000" d="M41.865623 368.81235L41.865623 377.39047L40.7875 377.39047L40.7875 370.17172L38.6 370.9686L38.6 369.98422L41.709373 368.81235L41.865623 368.81235Z" fill-rule="nonzero"/><path fill="#000000" d="M43.896873 324.99033L43.896873 325.88095L38.31875 325.88095L38.31875 325.0997L41.115623 321.99033Q41.63125 321.4122 41.9125 321.02158Q42.19375 320.61533 42.303123 320.30283Q42.428123 319.9747 42.428123 319.64658Q42.428123 319.2247 42.25625 318.88095Q42.084373 318.5372 41.740623 318.33408Q41.4125 318.11533 40.928123 318.11533Q40.365623 318.11533 39.990623 318.3497Q39.615623 318.56845 39.428123 318.95908Q39.240623 319.3497 39.240623 319.8497L38.146873 319.8497Q38.146873 319.13095 38.459373 318.5372Q38.7875 317.94345 39.396873 317.58408Q40.021873 317.2247 40.928123 317.2247Q41.740623 317.2247 42.31875 317.52158Q42.896873 317.80283 43.19375 318.31845Q43.50625 318.81845 43.50625 319.50595Q43.50625 319.88095 43.38125 320.27158Q43.25625 320.64658 43.0375 321.0372Q42.81875 321.4122 42.521873 321.7872Q42.240623 322.14658 41.9125 322.50595L39.615623 324.99033L43.896873 324.99033Z" fill-rule="nonzero"/><path fill="#000000" d="M39.896873 269.57455L40.6625 269.57455Q41.240623 269.57455 41.6 269.38705Q41.975 269.18393 42.1625 268.8558Q42.35 268.52768 42.35 268.1058Q42.35 267.62143 42.178123 267.2933Q42.021873 266.94955 41.69375 266.77768Q41.365623 266.6058 40.865623 266.6058Q40.396873 266.6058 40.053123 266.7933Q39.709373 266.96518 39.50625 267.2933Q39.31875 267.62143 39.31875 268.07455L38.225 268.07455Q38.225 267.4183 38.553123 266.88705Q38.88125 266.3558 39.475 266.0433Q40.06875 265.71518 40.865623 265.71518Q41.63125 265.71518 42.209373 265.99643Q42.7875 266.26205 43.115623 266.80893Q43.44375 267.34018 43.44375 268.13705Q43.44375 268.46518 43.2875 268.82455Q43.13125 269.18393 42.81875 269.51205Q42.50625 269.82455 42.00625 270.02768Q41.521873 270.2308 40.81875 270.2308L39.896873 270.2308L39.896873 269.57455ZM39.896873 270.46518L39.896873 269.80893L40.81875 269.80893Q41.63125 269.80893 42.1625 270.01205Q42.69375 270.19955 43.00625 270.52768Q43.31875 270.84018 43.44375 271.2308Q43.56875 271.6058 43.56875 271.99643Q43.56875 272.59018 43.365623 273.05893Q43.1625 273.51205 42.7875 273.84018Q42.428123 274.15268 41.928123 274.32455Q41.44375 274.49643 40.865623 274.49643Q40.303123 274.49643 39.81875 274.34018Q39.334373 274.1683 38.959373 273.87143Q38.584373 273.57455 38.365623 273.13705Q38.1625 272.68393 38.1625 272.12143L39.240623 272.12143Q39.240623 272.55893 39.428123 272.90268Q39.63125 273.2308 39.990623 273.4183Q40.365623 273.59018 40.865623 273.59018Q41.365623 273.59018 41.725 273.4183Q42.084373 273.24643 42.271873 272.90268Q42.475 272.5433 42.475 272.01205Q42.475 271.4808 42.25625 271.13705Q42.0375 270.7933 41.615623 270.63705Q41.209373 270.46518 40.6625 270.46518L39.896873 270.46518Z" fill-rule="nonzero"/><path fill="#000000" d="M44.06875 219.98691L44.06875 220.87753L37.9125 220.87753L37.9125 220.23691L41.725 214.33066L42.615623 214.33066L41.6625 216.03378L39.146873 219.98691L44.06875 219.98691ZM42.88125 214.33066L42.88125 222.86191L41.803123 222.86191L41.803123 214.33066L42.88125 214.33066Z" fill-rule="nonzero"/><path fill="#000000" d="M39.678123 167.28989L38.81875 167.07114L39.240623 162.82114L43.615623 162.82114L43.615623 163.82114L40.1625 163.82114L39.896873 166.14926Q40.13125 166.00864 40.490623 165.89926Q40.865623 165.77426 41.334373 165.77426Q41.9125 165.77426 42.38125 165.97739Q42.85 166.18051 43.178123 166.55551Q43.521873 166.93051 43.69375 167.46176Q43.865623 167.97739 43.865623 168.63364Q43.865623 169.24301 43.69375 169.75864Q43.5375 170.27426 43.19375 170.66489Q42.865623 171.03989 42.35 171.25864Q41.85 171.47739 41.1625 171.47739Q40.646873 171.47739 40.19375 171.33676Q39.740623 171.18051 39.365623 170.88364Q39.00625 170.58676 38.7875 170.14926Q38.56875 169.71176 38.50625 169.10239L39.5375 169.10239Q39.6 169.58676 39.803123 169.91489Q40.021873 170.24301 40.365623 170.41489Q40.709373 170.57114 41.1625 170.57114Q41.553123 170.57114 41.85 170.44614Q42.146873 170.30551 42.35 170.05551Q42.56875 169.80551 42.678123 169.44614Q42.7875 169.08676 42.7875 168.64926Q42.7875 168.24301 42.6625 167.89926Q42.553123 167.55551 42.334373 167.30551Q42.115623 167.03989 41.803123 166.89926Q41.490623 166.74301 41.06875 166.74301Q40.5375 166.74301 40.25625 166.89926Q39.975 167.03989 39.678123 167.28989Z" fill-rule="nonzero"/><path fill="#000000" d="M42.475 111.29598L42.56875 111.29598L42.56875 112.21786L42.475 112.21786Q41.615623 112.21786 41.021873 112.49911Q40.44375 112.78036 40.1 113.24911Q39.771873 113.70223 39.615623 114.29598Q39.475 114.87411 39.475 115.46786L39.475 116.71786Q39.475 117.28036 39.6 117.71786Q39.740623 118.15536 39.975 118.46786Q40.209373 118.76473 40.50625 118.92098Q40.803123 119.06161 41.115623 119.06161Q41.490623 119.06161 41.7875 118.92098Q42.084373 118.78036 42.2875 118.51473Q42.490623 118.24911 42.584373 117.90536Q42.69375 117.54598 42.69375 117.10848Q42.69375 116.73348 42.6 116.37411Q42.50625 116.01473 42.31875 115.74911Q42.13125 115.46786 41.834373 115.31161Q41.5375 115.13973 41.146873 115.13973Q40.69375 115.13973 40.303123 115.35848Q39.9125 115.57723 39.6625 115.93661Q39.4125 116.29598 39.38125 116.70223L38.803123 116.70223Q38.896873 116.04598 39.115623 115.57723Q39.334373 115.10848 39.678123 114.81161Q40.021873 114.51473 40.428123 114.38973Q40.85 114.24911 41.31875 114.24911Q41.959373 114.24911 42.4125 114.49911Q42.88125 114.73348 43.178123 115.13973Q43.490623 115.53036 43.63125 116.03036Q43.771873 116.53036 43.771873 117.06161Q43.771873 117.65536 43.6 118.18661Q43.428123 118.71786 43.084373 119.12411Q42.75625 119.51473 42.25625 119.74911Q41.771873 119.96786 41.115623 119.96786Q40.428123 119.96786 39.9125 119.68661Q39.396873 119.38973 39.053123 118.92098Q38.725 118.43661 38.553123 117.85848Q38.38125 117.28036 38.38125 116.68661L38.38125 116.17098Q38.38125 115.26473 38.553123 114.40536Q38.740623 113.53036 39.19375 112.82723Q39.646873 112.12411 40.44375 111.71786Q41.240623 111.29598 42.475 111.29598Z" fill-rule="nonzero"/><path fill="#000000" d="M43.81875 59.802086L43.81875 60.41146L40.2875 68.333336L39.146873 68.333336L42.678123 60.69271L38.053123 60.69271L38.053123 59.802086L43.81875 59.802086Z" fill-rule="nonzero"/><path fill="#000000" d="M99.83312 441.88437Q99.83312 441.54062 99.72375 441.275Q99.63 440.99374 99.36437 440.775Q99.09875 440.55624 98.63 440.36874Q98.17687 440.16562 97.47375 439.9625Q96.73937 439.74374 96.14562 439.47812Q95.55187 439.19687 95.11437 438.85312Q94.6925 438.49374 94.47375 438.05624Q94.255 437.60312 94.255 437.00937Q94.255 436.43124 94.48937 435.94687Q94.72375 435.44687 95.17687 435.0875Q95.63 434.7125 96.23937 434.50937Q96.86437 434.30624 97.63 434.30624Q98.755 434.30624 99.53625 434.74374Q100.3175 435.16562 100.72375 435.85312Q101.14562 436.54062 101.14562 437.32187L99.83312 437.32187Q99.83312 436.75937 99.58312 436.32187Q99.34875 435.88437 98.86437 435.63437Q98.38 435.38437 97.63 435.38437Q96.92687 435.38437 96.45812 435.60312Q96.005 435.80624 95.78625 436.18124Q95.5675 436.54062 95.5675 437.00937Q95.5675 437.32187 95.6925 437.5875Q95.83312 437.8375 96.11437 438.05624Q96.39562 438.275 96.83312 438.4625Q97.28625 438.63437 97.89562 438.80624Q98.73937 439.04062 99.34875 439.3375Q99.97375 439.63437 100.36437 440.00937Q100.77062 440.36874 100.95812 440.8375Q101.16125 441.29062 101.16125 441.86874Q101.16125 442.47812 100.91125 442.97812Q100.67687 443.4625 100.20812 443.82187Q99.755 444.16562 99.11437 444.35312Q98.47375 444.54062 97.6925 444.54062Q97.005 444.54062 96.33312 444.35312Q95.67687 444.15 95.13 443.775Q94.58312 443.38437 94.255 442.82187Q93.92687 442.25937 93.92687 441.50937L95.23937 441.50937Q95.23937 442.025 95.4425 442.4Q95.64562 442.75937 95.98937 443.00937Q96.33312 443.24374 96.77062 443.35312Q97.20812 443.4625 97.6925 443.4625Q98.38 443.4625 98.86437 443.275Q99.34875 443.0875 99.58312 442.72812Q99.83312 442.36874 99.83312 441.88437ZM106.20812 440.49374L103.55187 440.49374L103.55187 439.41562L106.20812 439.41562Q106.97375 439.41562 107.45812 439.18124Q107.9425 438.93124 108.16125 438.49374Q108.38 438.05624 108.38 437.49374Q108.38 436.97812 108.16125 436.54062Q107.9425 436.0875 107.45812 435.80624Q106.97375 435.525 106.20812 435.525L103.84875 435.525L103.84875 444.4L102.53625 444.4L102.53625 434.44687L106.20812 434.44687Q107.33312 434.44687 108.11437 434.8375Q108.89562 435.22812 109.28625 435.91562Q109.6925 436.60312 109.6925 437.47812Q109.6925 438.43124 109.28625 439.11874Q108.89562 439.79062 108.11437 440.15Q107.33312 440.49374 106.20812 440.49374ZM111.53625 434.44687L114.83312 434.44687Q115.95812 434.44687 116.72375 434.79062Q117.505 435.13437 117.91125 435.80624Q118.3175 436.4625 118.3175 437.43124Q118.3175 438.11874 118.03625 438.68124Q117.77062 439.24374 117.23937 439.63437Q116.72375 440.025 116.02062 440.22812L115.64562 440.36874L112.55187 440.36874L112.53625 439.29062L114.86437 439.29062Q115.58312 439.29062 116.05187 439.04062Q116.52062 438.79062 116.755 438.36874Q117.005 437.94687 117.005 437.43124Q117.005 436.85312 116.77062 436.43124Q116.55187 435.99374 116.0675 435.75937Q115.58312 435.525 114.83312 435.525L112.84875 435.525L112.84875 444.4L111.53625 444.4L111.53625 434.44687ZM117.34875 444.4L114.92687 439.88437L116.30187 439.88437L118.755 444.32187L118.755 444.4L117.34875 444.4ZM121.95812 434.44687L121.95812 444.4L120.63 444.4L120.63 434.44687L121.95812 434.44687ZM132.1925 434.44687L132.1925 444.4L130.86438 444.4L125.84875 436.72812L125.84875 444.4L124.53625 444.4L124.53625 434.44687L125.84875 434.44687L130.88 442.15L130.88 434.44687L132.1925 434.44687ZM138.20813 434.44687L138.20813 444.4L136.91125 444.4L136.91125 434.44687L138.20813 434.44687ZM141.41125 434.44687L141.41125 435.525L133.72375 435.525L133.72375 434.44687L141.41125 434.44687ZM149.36438 434.38437L149.36438 444.4L148.09875 444.4L148.09875 435.97812L145.55188 436.9L145.55188 435.75937L149.16125 434.38437L149.36438 434.38437Z" fill-rule="nonzero"/><path fill="#000000" d="M244.39313 441.88437Q244.39313 441.54062 244.28375 441.275Q244.19 440.99374 243.92438 440.775Q243.65875 440.55624 243.19 440.36874Q242.73688 440.16562 242.03375 439.9625Q241.29938 439.74374 240.70563 439.47812Q240.11188 439.19687 239.67438 438.85312Q239.2525 438.49374 239.03375 438.05624Q238.815 437.60312 238.815 437.00937Q238.815 436.43124 239.04938 435.94687Q239.28375 435.44687 239.73688 435.0875Q240.19 434.7125 240.79938 434.50937Q241.42438 434.30624 242.19 434.30624Q243.315 434.30624 244.09625 434.74374Q244.8775 435.16562 245.28375 435.85312Q245.70563 436.54062 245.70563 437.32187L244.39313 437.32187Q244.39313 436.75937 244.14313 436.32187Q243.90875 435.88437 243.42438 435.63437Q242.94 435.38437 242.19 435.38437Q241.48688 435.38437 241.01813 435.60312Q240.565 435.80624 240.34625 436.18124Q240.1275 436.54062 240.1275 437.00937Q240.1275 437.32187 240.2525 437.5875Q240.39313 437.8375 240.67438 438.05624Q240.95563 438.275 241.39313 438.4625Q241.84625 438.63437 242.45563 438.80624Q243.29938 439.04062 243.90875 439.3375Q244.53375 439.63437 244.92438 440.00937Q245.33063 440.36874 245.51813 440.8375Q245.72125 441.29062 245.72125 441.86874Q245.72125 442.47812 245.47125 442.97812Q245.23688 443.4625 244.76813 443.82187Q244.315 444.16562 243.67438 444.35312Q243.03375 444.54062 242.2525 444.54062Q241.565 444.54062 240.89313 444.35312Q240.23688 444.15 239.69 443.775Q239.14313 443.38437 238.815 442.82187Q238.48688 442.25937 238.48688 441.50937L239.79938 441.50937Q239.79938 442.025 240.0025 442.4Q240.20563 442.75937 240.54938 443.00937Q240.89313 443.24374 241.33063 443.35312Q241.76813 443.4625 242.2525 443.4625Q242.94 443.4625 243.42438 443.275Q243.90875 443.0875 244.14313 442.72812Q244.39313 442.36874 244.39313 441.88437ZM250.76813 440.49374L248.11188 440.49374L248.11188 439.41562L250.76813 439.41562Q251.53375 439.41562 252.01813 439.18124Q252.5025 438.93124 252.72125 438.49374Q252.94 438.05624 252.94 437.49374Q252.94 436.97812 252.72125 436.54062Q252.5025 436.0875 252.01813 435.80624Q251.53375 435.525 250.76813 435.525L248.40875 435.525L248.40875 444.4L247.09625 444.4L247.09625 434.44687L250.76813 434.44687Q251.89313 434.44687 252.67438 434.8375Q253.45563 435.22812 253.84625 435.91562Q254.2525 436.60312 254.2525 437.47812Q254.2525 438.43124 253.84625 439.11874Q253.45563 439.79062 252.67438 440.15Q251.89313 440.49374 250.76813 440.49374ZM256.09625 434.44687L259.39313 434.44687Q260.51813 434.44687 261.28375 434.79062Q262.065 435.13437 262.47125 435.80624Q262.8775 436.4625 262.8775 437.43124Q262.8775 438.11874 262.59625 438.68124Q262.33063 439.24374 261.79938 439.63437Q261.28375 440.025 260.58063 440.22812L260.20563 440.36874L257.11188 440.36874L257.09625 439.29062L259.42438 439.29062Q260.14313 439.29062 260.61188 439.04062Q261.08063 438.79062 261.315 438.36874Q261.565 437.94687 261.565 437.43124Q261.565 436.85312 261.33063 436.43124Q261.11188 435.99374 260.6275 435.75937Q260.14313 435.525 259.39313 435.525L257.40875 435.525L257.40875 444.4L256.09625 444.4L256.09625 434.44687ZM261.90875 444.4L259.48688 439.88437L260.86188 439.88437L263.315 444.32187L263.315 444.4L261.90875 444.4ZM266.51813 434.44687L266.51813 444.4L265.19 444.4L265.19 434.44687L266.51813 434.44687ZM276.7525 434.44687L276.7525 444.4L275.42438 444.4L270.40875 436.72812L270.40875 444.4L269.09625 444.4L269.09625 434.44687L270.40875 434.44687L275.44 442.15L275.44 434.44687L276.7525 434.44687ZM282.76813 434.44687L282.76813 444.4L281.47125 444.4L281.47125 434.44687L282.76813 434.44687ZM285.97125 434.44687L285.97125 435.525L278.28375 435.525L278.28375 434.44687L285.97125 434.44687ZM296.28375 443.35312L296.28375 444.4L289.76813 444.4L289.76813 443.49374L293.03375 439.85312Q293.64313 439.19687 293.97125 438.72812Q294.29938 438.25937 294.42438 437.88437Q294.565 437.50937 294.565 437.11874Q294.565 436.63437 294.36188 436.22812Q294.15875 435.82187 293.76813 435.5875Q293.3775 435.35312 292.83063 435.35312Q292.17438 435.35312 291.72125 435.61874Q291.28375 435.86874 291.065 436.32187Q290.84625 436.775 290.84625 437.36874L289.58063 437.36874Q289.58063 436.525 289.94 435.8375Q290.315 435.13437 291.03375 434.72812Q291.76813 434.30624 292.83063 434.30624Q293.76813 434.30624 294.44 434.65Q295.11188 434.97812 295.47125 435.57187Q295.83063 436.16562 295.83063 436.9625Q295.83063 437.4 295.67438 437.85312Q295.53375 438.30624 295.26813 438.75937Q295.01813 439.19687 294.67438 439.63437Q294.34625 440.05624 293.97125 440.4625L291.29938 443.35312L296.28375 443.35312Z" fill-rule="nonzero"/><path fill="#000000" d="M388.95312 441.88437Q388.95312 441.54062 388.84375 441.275Q388.75 440.99374 388.48438 440.775Q388.21875 440.55624 387.75 440.36874Q387.29688 440.16562 386.59375 439.9625Q385.85938 439.74374 385.26562 439.47812Q384.67188 439.19687 384.23438 438.85312Q383.8125 438.49374 383.59375 438.05624Q383.375 437.60312 383.375 437.00937Q383.375 436.43124 383.60938 435.94687Q383.84375 435.44687 384.29688 435.0875Q384.75 434.7125 385.35938 434.50937Q385.98438 434.30624 386.75 434.30624Q387.875 434.30624 388.65625 434.74374Q389.4375 435.16562 389.84375 435.85312Q390.26562 436.54062 390.26562 437.32187L388.95312 437.32187Q388.95312 436.75937 388.70312 436.32187Q388.46875 435.88437 387.98438 435.63437Q387.5 435.38437 386.75 435.38437Q386.04688 435.38437 385.57812 435.60312Q385.125 435.80624 384.90625 436.18124Q384.6875 436.54062 384.6875 437.00937Q384.6875 437.32187 384.8125 437.5875Q384.95312 437.8375 385.23438 438.05624Q385.51562 438.275 385.95312 438.4625Q386.40625 438.63437 387.01562 438.80624Q387.85938 439.04062 388.46875 439.3375Q389.09375 439.63437 389.48438 440.00937Q389.89062 440.36874 390.07812 440.8375Q390.28125 441.29062 390.28125 441.86874Q390.28125 442.47812 390.03125 442.97812Q389.79688 443.4625 389.32812 443.82187Q388.875 444.16562 388.23438 444.35312Q387.59375 444.54062 386.8125 444.54062Q386.125 444.54062 385.45312 444.35312Q384.79688 444.15 384.25 443.775Q383.70312 443.38437 383.375 442.82187Q383.04688 442.25937 383.04688 441.50937L384.35938 441.50937Q384.35938 442.025 384.5625 442.4Q384.76562 442.75937 385.10938 443.00937Q385.45312 443.24374 385.89062 443.35312Q386.32812 443.4625 386.8125 443.4625Q387.5 443.4625 387.98438 443.275Q388.46875 443.0875 388.70312 442.72812Q388.95312 442.36874 388.95312 441.88437ZM395.32812 440.49374L392.67188 440.49374L392.67188 439.41562L395.32812 439.41562Q396.09375 439.41562 396.57812 439.18124Q397.0625 438.93124 397.28125 438.49374Q397.5 438.05624 397.5 437.49374Q397.5 436.97812 397.28125 436.54062Q397.0625 436.0875 396.57812 435.80624Q396.09375 435.525 395.32812 435.525L392.96875 435.525L392.96875 444.4L391.65625 444.4L391.65625 434.44687L395.32812 434.44687Q396.45312 434.44687 397.23438 434.8375Q398.01562 435.22812 398.40625 435.91562Q398.8125 436.60312 398.8125 437.47812Q398.8125 438.43124 398.40625 439.11874Q398.01562 439.79062 397.23438 440.15Q396.45312 440.49374 395.32812 440.49374ZM400.65625 434.44687L403.95312 434.44687Q405.07812 434.44687 405.84375 434.79062Q406.625 435.13437 407.03125 435.80624Q407.4375 436.4625 407.4375 437.43124Q407.4375 438.11874 407.15625 438.68124Q406.89062 439.24374 406.35938 439.63437Q405.84375 440.025 405.14062 440.22812L404.76562 440.36874L401.67188 440.36874L401.65625 439.29062L403.98438 439.29062Q404.70312 439.29062 405.17188 439.04062Q405.64062 438.79062 405.875 438.36874Q406.125 437.94687 406.125 437.43124Q406.125 436.85312 405.89062 436.43124Q405.67188 435.99374 405.1875 435.75937Q404.70312 435.525 403.95312 435.525L401.96875 435.525L401.96875 444.4L400.65625 444.4L400.65625 434.44687ZM406.46875 444.4L404.04688 439.88437L405.42188 439.88437L407.875 444.32187L407.875 444.4L406.46875 444.4ZM411.07812 434.44687L411.07812 444.4L409.75 444.4L409.75 434.44687L411.07812 434.44687ZM421.3125 434.44687L421.3125 444.4L419.98438 444.4L414.96875 436.72812L414.96875 444.4L413.65625 444.4L413.65625 434.44687L414.96875 434.44687L420.0 442.15L420.0 434.44687L421.3125 434.44687ZM427.32812 434.44687L427.32812 444.4L426.03125 444.4L426.03125 434.44687L427.32812 434.44687ZM430.53125 434.44687L430.53125 435.525L422.84375 435.525L422.84375 434.44687L430.53125 434.44687ZM436.17188 438.80624L437.07812 438.80624Q437.73438 438.80624 438.17188 438.5875Q438.60938 438.35312 438.8125 437.97812Q439.03125 437.5875 439.03125 437.10312Q439.03125 436.525 438.84375 436.13437Q438.65625 435.74374 438.26562 435.55624Q437.89062 435.35312 437.29688 435.35312Q436.76562 435.35312 436.35938 435.55624Q435.95312 435.75937 435.71875 436.15Q435.5 436.525 435.5 437.05624L434.23438 437.05624Q434.23438 436.29062 434.60938 435.66562Q435.0 435.04062 435.6875 434.68124Q436.39062 434.30624 437.29688 434.30624Q438.20312 434.30624 438.875 434.63437Q439.5625 434.94687 439.9375 435.57187Q440.3125 436.19687 440.3125 437.11874Q440.3125 437.50937 440.125 437.93124Q439.95312 438.35312 439.59375 438.72812Q439.23438 439.0875 438.64062 439.3375Q438.0625 439.57187 437.25 439.57187L436.17188 439.57187L436.17188 438.80624ZM436.17188 439.8375L436.17188 439.0875L437.25 439.0875Q438.20312 439.0875 438.82812 439.30624Q439.45312 439.525 439.8125 439.91562Q440.17188 440.29062 440.3125 440.74374Q440.45312 441.18124 440.45312 441.61874Q440.45312 442.32187 440.21875 442.86874Q439.98438 443.4 439.5625 443.775Q439.14062 444.15 438.5625 444.35312Q437.98438 444.54062 437.3125 444.54062Q436.65625 444.54062 436.07812 444.35312Q435.51562 444.16562 435.07812 443.82187Q434.64062 443.4625 434.39062 442.94687Q434.15625 442.43124 434.15625 441.775L435.42188 441.775Q435.42188 442.29062 435.64062 442.68124Q435.875 443.07187 436.29688 443.29062Q436.73438 443.49374 437.3125 443.49374Q437.89062 443.49374 438.3125 443.29062Q438.73438 443.0875 438.95312 442.68124Q439.1875 442.275 439.1875 441.65Q439.1875 441.025 438.92188 440.63437Q438.67188 440.22812 438.1875 440.04062Q437.71875 439.8375 437.07812 439.8375L436.17188 439.8375Z" fill-rule="nonzero"/><path fill="#000000" d="M533.5131 441.88437Q533.5131 441.54062 533.40375 441.275Q533.31 440.99374 533.0444 440.775Q532.77875 440.55624 532.31 440.36874Q531.8569 440.16562 531.15375 439.9625Q530.4194 439.74374 529.8256 439.47812Q529.2319 439.19687 528.7944 438.85312Q528.3725 438.49374 528.15375 438.05624Q527.935 437.60312 527.935 437.00937Q527.935 436.43124 528.1694 435.94687Q528.40375 435.44687 528.8569 435.0875Q529.31 434.7125 529.9194 434.50937Q530.5444 434.30624 531.31 434.30624Q532.435 434.30624 533.21625 434.74374Q533.9975 435.16562 534.40375 435.85312Q534.8256 436.54062 534.8256 437.32187L533.5131 437.32187Q533.5131 436.75937 533.2631 436.32187Q533.02875 435.88437 532.5444 435.63437Q532.06 435.38437 531.31 435.38437Q530.6069 435.38437 530.1381 435.60312Q529.685 435.80624 529.46625 436.18124Q529.2475 436.54062 529.2475 437.00937Q529.2475 437.32187 529.3725 437.5875Q529.5131 437.8375 529.7944 438.05624Q530.0756 438.275 530.5131 438.4625Q530.96625 438.63437 531.5756 438.80624Q532.4194 439.04062 533.02875 439.3375Q533.65375 439.63437 534.0444 440.00937Q534.4506 440.36874 534.6381 440.8375Q534.84125 441.29062 534.84125 441.86874Q534.84125 442.47812 534.59125 442.97812Q534.3569 443.4625 533.8881 443.82187Q533.435 444.16562 532.7944 444.35312Q532.15375 444.54062 531.3725 444.54062Q530.685 444.54062 530.0131 444.35312Q529.3569 444.15 528.81 443.775Q528.2631 443.38437 527.935 442.82187Q527.6069 442.25937 527.6069 441.50937L528.9194 441.50937Q528.9194 442.025 529.1225 442.4Q529.3256 442.75937 529.6694 443.00937Q530.0131 443.24374 530.4506 443.35312Q530.8881 443.4625 531.3725 443.4625Q532.06 443.4625 532.5444 443.275Q533.02875 443.0875 533.2631 442.72812Q533.5131 442.36874 533.5131 441.88437ZM539.8881 440.49374L537.2319 440.49374L537.2319 439.41562L539.8881 439.41562Q540.65375 439.41562 541.1381 439.18124Q541.6225 438.93124 541.84125 438.49374Q542.06 438.05624 542.06 437.49374Q542.06 436.97812 541.84125 436.54062Q541.6225 436.0875 541.1381 435.80624Q540.65375 435.525 539.8881 435.525L537.52875 435.525L537.52875 444.4L536.21625 444.4L536.21625 434.44687L539.8881 434.44687Q541.0131 434.44687 541.7944 434.8375Q542.5756 435.22812 542.96625 435.91562Q543.3725 436.60312 543.3725 437.47812Q543.3725 438.43124 542.96625 439.11874Q542.5756 439.79062 541.7944 440.15Q541.0131 440.49374 539.8881 440.49374ZM545.21625 434.44687L548.5131 434.44687Q549.6381 434.44687 550.40375 434.79062Q551.185 435.13437 551.59125 435.80624Q551.9975 436.4625 551.9975 437.43124Q551.9975 438.11874 551.71625 438.68124Q551.4506 439.24374 550.9194 439.63437Q550.40375 440.025 549.7006 440.22812L549.3256 440.36874L546.2319 440.36874L546.21625 439.29062L548.5444 439.29062Q549.2631 439.29062 549.7319 439.04062Q550.2006 438.79062 550.435 438.36874Q550.685 437.94687 550.685 437.43124Q550.685 436.85312 550.4506 436.43124Q550.2319 435.99374 549.7475 435.75937Q549.2631 435.525 548.5131 435.525L546.52875 435.525L546.52875 444.4L545.21625 444.4L545.21625 434.44687ZM551.02875 444.4L548.6069 439.88437L549.9819 439.88437L552.435 444.32187L552.435 444.4L551.02875 444.4ZM555.6381 434.44687L555.6381 444.4L554.31 444.4L554.31 434.44687L555.6381 434.44687ZM565.8725 434.44687L565.8725 444.4L564.5444 444.4L559.52875 436.72812L559.52875 444.4L558.21625 444.4L558.21625 434.44687L559.52875 434.44687L564.56 442.15L564.56 434.44687L565.8725 434.44687ZM571.8881 434.44687L571.8881 444.4L570.59125 444.4L570.59125 434.44687L571.8881 434.44687ZM575.09125 434.44687L575.09125 435.525L567.40375 435.525L567.40375 434.44687L575.09125 434.44687ZM585.6069 441.05624L585.6069 442.0875L578.4194 442.0875L578.4194 441.3375L582.8725 434.44687L583.9194 434.44687L582.81 436.44687L579.8569 441.05624L585.6069 441.05624ZM584.2319 434.44687L584.2319 444.4L582.96625 444.4L582.96625 434.44687L584.2319 434.44687Z" fill-rule="nonzero"/><path fill="#000000" d="M678.0731 441.88437Q678.0731 441.54062 677.96375 441.275Q677.87 440.99374 677.6044 440.775Q677.33875 440.55624 676.87 440.36874Q676.4169 440.16562 675.71375 439.9625Q674.9794 439.74374 674.3856 439.47812Q673.7919 439.19687 673.3544 438.85312Q672.9325 438.49374 672.71375 438.05624Q672.495 437.60312 672.495 437.00937Q672.495 436.43124 672.7294 435.94687Q672.96375 435.44687 673.4169 435.0875Q673.87 434.7125 674.4794 434.50937Q675.1044 434.30624 675.87 434.30624Q676.995 434.30624 677.77625 434.74374Q678.5575 435.16562 678.96375 435.85312Q679.3856 436.54062 679.3856 437.32187L678.0731 437.32187Q678.0731 436.75937 677.8231 436.32187Q677.58875 435.88437 677.1044 435.63437Q676.62 435.38437 675.87 435.38437Q675.1669 435.38437 674.6981 435.60312Q674.245 435.80624 674.02625 436.18124Q673.8075 436.54062 673.8075 437.00937Q673.8075 437.32187 673.9325 437.5875Q674.0731 437.8375 674.3544 438.05624Q674.6356 438.275 675.0731 438.4625Q675.52625 438.63437 676.1356 438.80624Q676.9794 439.04062 677.58875 439.3375Q678.21375 439.63437 678.6044 440.00937Q679.0106 440.36874 679.1981 440.8375Q679.40125 441.29062 679.40125 441.86874Q679.40125 442.47812 679.15125 442.97812Q678.9169 443.4625 678.4481 443.82187Q677.995 444.16562 677.3544 444.35312Q676.71375 444.54062 675.9325 444.54062Q675.245 444.54062 674.5731 444.35312Q673.9169 444.15 673.37 443.775Q672.8231 443.38437 672.495 442.82187Q672.1669 442.25937 672.1669 441.50937L673.4794 441.50937Q673.4794 442.025 673.6825 442.4Q673.8856 442.75937 674.2294 443.00937Q674.5731 443.24374 675.0106 443.35312Q675.4481 443.4625 675.9325 443.4625Q676.62 443.4625 677.1044 443.275Q677.58875 443.0875 677.8231 442.72812Q678.0731 442.36874 678.0731 441.88437ZM684.4481 440.49374L681.7919 440.49374L681.7919 439.41562L684.4481 439.41562Q685.21375 439.41562 685.6981 439.18124Q686.1825 438.93124 686.40125 438.49374Q686.62 438.05624 686.62 437.49374Q686.62 436.97812 686.40125 436.54062Q686.1825 436.0875 685.6981 435.80624Q685.21375 435.525 684.4481 435.525L682.08875 435.525L682.08875 444.4L680.77625 444.4L680.77625 434.44687L684.4481 434.44687Q685.5731 434.44687 686.3544 434.8375Q687.1356 435.22812 687.52625 435.91562Q687.9325 436.60312 687.9325 437.47812Q687.9325 438.43124 687.52625 439.11874Q687.1356 439.79062 686.3544 440.15Q685.5731 440.49374 684.4481 440.49374ZM689.77625 434.44687L693.0731 434.44687Q694.1981 434.44687 694.96375 434.79062Q695.745 435.13437 696.15125 435.80624Q696.5575 436.4625 696.5575 437.43124Q696.5575 438.11874 696.27625 438.68124Q696.0106 439.24374 695.4794 439.63437Q694.96375 440.025 694.2606 440.22812L693.8856 440.36874L690.7919 440.36874L690.77625 439.29062L693.1044 439.29062Q693.8231 439.29062 694.2919 439.04062Q694.7606 438.79062 694.995 438.36874Q695.245 437.94687 695.245 437.43124Q695.245 436.85312 695.0106 436.43124Q694.7919 435.99374 694.3075 435.75937Q693.8231 435.525 693.0731 435.525L691.08875 435.525L691.08875 444.4L689.77625 444.4L689.77625 434.44687ZM695.58875 444.4L693.1669 439.88437L694.5419 439.88437L696.995 444.32187L696.995 444.4L695.58875 444.4ZM700.1981 434.44687L700.1981 444.4L698.87 444.4L698.87 434.44687L700.1981 434.44687ZM710.4325 434.44687L710.4325 444.4L709.1044 444.4L704.08875 436.72812L704.08875 444.4L702.77625 444.4L702.77625 434.44687L704.08875 434.44687L709.12 442.15L709.12 434.44687L710.4325 434.44687ZM716.4481 434.44687L716.4481 444.4L715.15125 444.4L715.15125 434.44687L716.4481 434.44687ZM719.65125 434.44687L719.65125 435.525L711.96375 435.525L711.96375 434.44687L719.65125 434.44687ZM725.0419 439.66562L724.0419 439.4L724.5419 434.44687L729.6356 434.44687L729.6356 435.61874L725.6044 435.61874L725.3075 438.32187Q725.5731 438.16562 725.995 438.025Q726.4169 437.88437 726.96375 437.88437Q727.65125 437.88437 728.1981 438.13437Q728.745 438.36874 729.1356 438.80624Q729.52625 439.24374 729.7294 439.85312Q729.9325 440.4625 729.9325 441.22812Q729.9325 441.94687 729.7294 442.55624Q729.5419 443.15 729.15125 443.60312Q728.7606 444.04062 728.1669 444.29062Q727.58875 444.54062 726.77625 444.54062Q726.1825 444.54062 725.6356 444.36874Q725.1044 444.19687 724.6825 443.85312Q724.2606 443.50937 723.995 442.99374Q723.745 442.47812 723.6669 441.775L724.87 441.775Q724.96375 442.3375 725.1981 442.72812Q725.4481 443.10312 725.83875 443.30624Q726.245 443.49374 726.77625 443.49374Q727.2294 443.49374 727.5731 443.3375Q727.9325 443.18124 728.1669 442.88437Q728.4169 442.5875 728.5419 442.18124Q728.6669 441.75937 728.6669 441.24374Q728.6669 440.775 728.52625 440.36874Q728.40125 439.9625 728.1356 439.66562Q727.8856 439.36874 727.5106 439.19687Q727.15125 439.025 726.6669 439.025Q726.0419 439.025 725.71375 439.19687Q725.3856 439.36874 725.0419 439.66562Z" fill-rule="nonzero"/><path stroke="#00b050" stroke-width="4.0" stroke-linecap="butt" stroke-dasharray="13.0,9.0" d="M160.0 32.1L195.0 32.1" fill-rule="nonzero"/><path fill="#1a1a1a" d="M207.48438 34.521873L209.82812 26.646873L212.10938 26.646873L208.64062 36.6L207.14062 36.6L207.48438 34.521873ZM205.3125 26.646873L207.65625 34.521873L208.01562 36.6L206.5 36.6L203.04688 26.646873L205.3125 26.646873ZM216.76562 34.928123L216.76562 31.631248Q216.76562 31.287498 216.64062 31.037498Q216.53125 30.771873 216.28125 30.631248Q216.04688 30.474998 215.65625 30.474998Q215.32812 30.474998 215.07812 30.599998Q214.84375 30.709373 214.71875 30.928123Q214.59375 31.131248 214.59375 31.396873L212.625 31.396873Q212.625 30.928123 212.84375 30.506248Q213.0625 30.084373 213.46875 29.756248Q213.89062 29.428123 214.46875 29.256248Q215.04688 29.068748 215.76562 29.068748Q216.625 29.068748 217.29688 29.365623Q217.96875 29.646873 218.34375 30.224998Q218.73438 30.787498 218.73438 31.646873L218.73438 34.81875Q218.73438 35.428123 218.8125 35.81875Q218.89062 36.19375 219.03125 36.490623L219.03125 36.6L217.04688 36.6Q216.90625 36.303123 216.82812 35.85Q216.76562 35.396873 216.76562 34.928123ZM217.01562 32.1L217.03125 33.209373L215.9375 33.209373Q215.54688 33.209373 215.25 33.303123Q214.96875 33.38125 214.78125 33.553123Q214.59375 33.709373 214.5 33.928123Q214.42188 34.13125 214.42188 34.38125Q214.42188 34.63125 214.53125 34.834373Q214.65625 35.0375 214.875 35.1625Q215.09375 35.271873 215.39062 35.271873Q215.82812 35.271873 216.15625 35.1Q216.48438 34.9125 216.67188 34.6625Q216.85938 34.396873 216.85938 34.1625L217.375 34.990623Q217.26562 35.271873 217.07812 35.584373Q216.89062 35.88125 216.60938 36.146873Q216.32812 36.396873 215.92188 36.56875Q215.51562 36.740623 214.95312 36.740623Q214.25 36.740623 213.67188 36.459373Q213.10938 36.1625 212.78125 35.6625Q212.45312 35.1625 212.45312 34.521873Q212.45312 33.94375 212.67188 33.490623Q212.89062 33.0375 213.3125 32.725Q213.75 32.4125 214.39062 32.25625Q215.03125 32.1 215.875 32.1L217.01562 32.1ZM222.84375 26.099998L222.84375 36.6L220.875 36.6L220.875 26.099998L222.84375 26.099998ZM224.45312 32.975L224.45312 32.834373Q224.45312 32.021873 224.6875 31.334373Q224.92188 30.646873 225.35938 30.146873Q225.8125 29.631248 226.45312 29.349998Q227.10938 29.068748 227.9375 29.068748Q228.78125 29.068748 229.4375 29.349998Q230.09375 29.631248 230.54688 30.146873Q231.0 30.646873 231.21875 31.334373Q231.45312 32.021873 231.45312 32.834373L231.45312 32.975Q231.45312 33.7875 231.21875 34.475Q231.0 35.1625 230.54688 35.678123Q230.09375 36.178123 229.4375 36.459373Q228.79688 36.740623 227.95312 36.740623Q227.125 36.740623 226.46875 36.459373Q225.8125 36.178123 225.35938 35.678123Q224.92188 35.1625 224.6875 34.475Q224.45312 33.7875 224.45312 32.975ZM226.42188 32.834373L226.42188 32.975Q226.42188 33.44375 226.5 33.85Q226.57812 34.240623 226.76562 34.553123Q226.95312 34.85 227.23438 35.021873Q227.53125 35.19375 227.95312 35.19375Q228.375 35.19375 228.65625 35.021873Q228.95312 34.85 229.125 34.553123Q229.3125 34.240623 229.39062 33.85Q229.48438 33.44375 229.48438 32.975L229.48438 32.834373Q229.48438 32.38125 229.39062 31.990623Q229.3125 31.584373 229.125 31.271873Q228.95312 30.959373 228.65625 30.787498Q228.35938 30.599998 227.9375 30.599998Q227.53125 30.599998 227.23438 30.787498Q226.95312 30.959373 226.76562 31.271873Q226.57812 31.584373 226.5 31.990623Q226.42188 32.38125 226.42188 32.834373ZM234.73438 30.818748L234.73438 36.6L232.76562 36.6L232.76562 29.209373L234.625 29.209373L234.73438 30.818748ZM236.96875 29.162498L236.92188 30.974998Q236.78125 30.959373 236.57812 30.943748Q236.375 30.928123 236.21875 30.928123Q235.79688 30.928123 235.48438 31.037498Q235.1875 31.131248 234.98438 31.334373Q234.79688 31.537498 234.6875 31.834373Q234.59375 32.13125 234.57812 32.50625L234.1875 32.38125Q234.1875 31.678123 234.32812 31.068748Q234.46875 30.459373 234.73438 30.006248Q235.01562 29.553123 235.42188 29.318748Q235.82812 29.068748 236.34375 29.068748Q236.51562 29.068748 236.6875 29.099998Q236.85938 29.115623 236.96875 29.162498ZM241.17188 36.740623Q240.3125 36.740623 239.625 36.459373Q238.9375 36.178123 238.45312 35.69375Q237.98438 35.19375 237.73438 34.553123Q237.48438 33.896873 237.48438 33.146873L237.48438 32.88125Q237.48438 32.0375 237.71875 31.349998Q237.96875 30.646873 238.40625 30.131248Q238.85938 29.615623 239.5 29.349998Q240.14062 29.068748 240.95312 29.068748Q241.73438 29.068748 242.34375 29.334373Q242.95312 29.584373 243.35938 30.068748Q243.78125 30.537498 243.98438 31.209373Q244.20312 31.881248 244.20312 32.69375L244.20312 33.50625L238.32812 33.50625L238.32812 32.19375L242.26562 32.19375L242.26562 32.053123Q242.26562 31.631248 242.125 31.318748Q241.98438 30.990623 241.6875 30.803123Q241.39062 30.599998 240.9375 30.599998Q240.54688 30.599998 240.26562 30.771873Q239.98438 30.943748 239.79688 31.256248Q239.625 31.568748 239.54688 31.974998Q239.46875 32.38125 239.46875 32.88125L239.46875 33.146873Q239.46875 33.6 239.59375 33.975Q239.71875 34.35 239.95312 34.63125Q240.1875 34.896873 240.51562 35.053123Q240.85938 35.19375 241.29688 35.19375Q241.82812 35.19375 242.28125 34.990623Q242.75 34.7875 243.07812 34.35L244.04688 35.396873Q243.8125 35.725 243.40625 36.0375Q243.01562 36.35 242.45312 36.553123Q241.89062 36.740623 241.17188 36.740623ZM248.45312 32.975L248.45312 32.834373Q248.45312 32.021873 248.6875 31.334373Q248.92188 30.646873 249.35938 30.146873Q249.8125 29.631248 250.45312 29.349998Q251.10938 29.068748 251.9375 29.068748Q252.78125 29.068748 253.4375 29.349998Q254.09375 29.631248 254.54688 30.146873Q255.0 30.646873 255.21875 31.334373Q255.45312 32.021873 255.45312 32.834373L255.45312 32.975Q255.45312 33.7875 255.21875 34.475Q255.0 35.1625 254.54688 35.678123Q254.09375 36.178123 253.4375 36.459373Q252.79688 36.740623 251.95312 36.740623Q251.125 36.740623 250.46875 36.459373Q249.8125 36.178123 249.35938 35.678123Q248.92188 35.1625 248.6875 34.475Q248.45312 33.7875 248.45312 32.975ZM250.42188 32.834373L250.42188 32.975Q250.42188 33.44375 250.5 33.85Q250.57812 34.240623 250.76562 34.553123Q250.95312 34.85 251.23438 35.021873Q251.53125 35.19375 251.95312 35.19375Q252.375 35.19375 252.65625 35.021873Q252.95312 34.85 253.125 34.553123Q253.3125 34.240623 253.39062 33.85Q253.48438 33.44375 253.48438 32.975L253.48438 32.834373Q253.48438 32.38125 253.39062 31.990623Q253.3125 31.584373 253.125 31.271873Q252.95312 30.959373 252.65625 30.787498Q252.35938 30.599998 251.9375 30.599998Q251.53125 30.599998 251.23438 30.787498Q250.95312 30.959373 250.76562 31.271873Q250.57812 31.584373 250.5 31.990623Q250.42188 32.38125 250.42188 32.834373ZM260.39062 29.209373L260.39062 30.599998L256.07812 30.599998L256.07812 29.209373L260.39062 29.209373ZM257.15625 27.381248L259.125 27.381248L259.125 34.365623Q259.125 34.69375 259.20312 34.865623Q259.28125 35.0375 259.45312 35.1Q259.625 35.1625 259.89062 35.1625Q260.07812 35.1625 260.21875 35.146873Q260.375 35.13125 260.46875 35.115623L260.48438 36.553123Q260.21875 36.646873 259.92188 36.69375Q259.64062 36.740623 259.28125 36.740623Q258.625 36.740623 258.14062 36.521873Q257.67188 36.303123 257.40625 35.834373Q257.15625 35.35 257.15625 34.56875L257.15625 27.381248ZM265.39062 29.209373L265.39062 30.599998L261.07812 30.599998L261.07812 29.209373L265.39062 29.209373ZM262.15625 27.381248L264.125 27.381248L264.125 34.365623Q264.125 34.69375 264.20312 34.865623Q264.28125 35.0375 264.45312 35.1Q264.625 35.1625 264.89062 35.1625Q265.07812 35.1625 265.21875 35.146873Q265.375 35.13125 265.46875 35.115623L265.48438 36.553123Q265.21875 36.646873 264.92188 36.69375Q264.64062 36.740623 264.28125 36.740623Q263.625 36.740623 263.14062 36.521873Q262.67188 36.303123 262.40625 35.834373Q262.15625 35.35 262.15625 34.56875L262.15625 27.381248ZM268.84375 29.209373L268.84375 36.6L266.875 36.6L266.875 29.209373L268.84375 29.209373ZM266.75 27.271873Q266.75 26.849998 267.04688 26.568748Q267.34375 26.287498 267.85938 26.287498Q268.35938 26.287498 268.65625 26.568748Q268.95312 26.849998 268.95312 27.271873Q268.95312 27.709373 268.65625 27.990623Q268.35938 28.271873 267.85938 28.271873Q267.34375 28.271873 267.04688 27.990623Q266.75 27.709373 266.75 27.271873ZM272.73438 30.740623L272.73438 36.6L270.76562 36.6L270.76562 29.209373L272.60938 29.209373L272.73438 30.740623ZM272.45312 32.646873L271.92188 32.646873Q271.92188 31.865623 272.10938 31.224998Q272.29688 30.568748 272.65625 30.084373Q273.01562 29.599998 273.5625 29.334373Q274.10938 29.068748 274.8125 29.068748Q275.3125 29.068748 275.71875 29.224998Q276.125 29.365623 276.42188 29.678123Q276.71875 29.974998 276.875 30.474998Q277.04688 30.974998 277.04688 31.662498L277.04688 36.6L275.07812 36.6L275.07812 31.881248Q275.07812 31.381248 274.9375 31.115623Q274.8125 30.834373 274.5625 30.724998Q274.3125 30.615623 273.95312 30.615623Q273.57812 30.615623 273.29688 30.771873Q273.01562 30.928123 272.82812 31.209373Q272.64062 31.474998 272.54688 31.849998Q272.45312 32.225 272.45312 32.646873ZM276.85938 32.4125L276.15625 32.50625Q276.15625 31.787498 276.32812 31.162498Q276.51562 30.537498 276.875 30.068748Q277.23438 29.599998 277.76562 29.334373Q278.3125 29.068748 279.0 29.068748Q279.53125 29.068748 279.96875 29.224998Q280.40625 29.381248 280.71875 29.709373Q281.03125 30.037498 281.20312 30.568748Q281.375 31.099998 281.375 31.881248L281.375 36.6L279.39062 36.6L279.39062 31.881248Q279.39062 31.365623 279.25 31.099998Q279.125 30.818748 278.875 30.724998Q278.625 30.615623 278.28125 30.615623Q277.9375 30.615623 277.65625 30.756248Q277.39062 30.896873 277.21875 31.146873Q277.04688 31.381248 276.95312 31.709373Q276.85938 32.0375 276.85938 32.4125ZM282.45312 32.975L282.45312 32.834373Q282.45312 32.021873 282.6875 31.334373Q282.92188 30.646873 283.35938 30.146873Q283.8125 29.631248 284.45312 29.349998Q285.10938 29.068748 285.9375 29.068748Q286.78125 29.068748 287.4375 29.349998Q288.09375 29.631248 288.54688 30.146873Q289.0 30.646873 289.21875 31.334373Q289.45312 32.021873 289.45312 32.834373L289.45312 32.975Q289.45312 33.7875 289.21875 34.475Q289.0 35.1625 288.54688 35.678123Q288.09375 36.178123 287.4375 36.459373Q286.79688 36.740623 285.95312 36.740623Q285.125 36.740623 284.46875 36.459373Q283.8125 36.178123 283.35938 35.678123Q282.92188 35.1625 282.6875 34.475Q282.45312 33.7875 282.45312 32.975ZM284.42188 32.834373L284.42188 32.975Q284.42188 33.44375 284.5 33.85Q284.57812 34.240623 284.76562 34.553123Q284.95312 34.85 285.23438 35.021873Q285.53125 35.19375 285.95312 35.19375Q286.375 35.19375 286.65625 35.021873Q286.95312 34.85 287.125 34.553123Q287.3125 34.240623 287.39062 33.85Q287.48438 33.44375 287.48438 32.975L287.48438 32.834373Q287.48438 32.38125 287.39062 31.990623Q287.3125 31.584373 287.125 31.271873Q286.95312 30.959373 286.65625 30.787498Q286.35938 30.599998 285.9375 30.599998Q285.53125 30.599998 285.23438 30.787498Q284.95312 30.959373 284.76562 31.271873Q284.57812 31.584373 284.5 31.990623Q284.42188 32.38125 284.42188 32.834373Z" fill-rule="nonzero"/><path fill="#ff6b00" d="M318.0 32.1C318.0 35.413708 315.31372 38.1 312.0 38.1C308.68628 38.1 306.0 35.413708 306.0 32.1C306.0 28.786291 308.68628 26.1 312.0 26.1C315.31372 26.1 318.0 28.786291 318.0 32.1Z" fill-rule="nonzero"/><path fill="#1a1a1a" d="M334.78125 31.396873L334.78125 35.334373Q334.54688 35.615623 334.0625 35.94375Q333.57812 36.271873 332.8125 36.50625Q332.04688 36.740623 330.95312 36.740623Q330.0 36.740623 329.20312 36.428123Q328.40625 36.1 327.82812 35.490623Q327.26562 34.865623 326.95312 33.975Q326.65625 33.084373 326.65625 31.943748L326.65625 31.318748Q326.65625 30.162498 326.95312 29.271873Q327.25 28.381248 327.79688 27.771873Q328.35938 27.146873 329.125 26.834373Q329.89062 26.506248 330.8125 26.506248Q332.125 26.506248 332.95312 26.928123Q333.78125 27.349998 334.21875 28.099998Q334.67188 28.834373 334.76562 29.787498L332.78125 29.787498Q332.70312 29.271873 332.48438 28.896873Q332.28125 28.521873 331.89062 28.318748Q331.5 28.099998 330.875 28.099998Q330.35938 28.099998 329.95312 28.318748Q329.5625 28.521873 329.28125 28.928123Q329.01562 29.318748 328.875 29.928123Q328.73438 30.521873 328.73438 31.303123L328.73438 31.943748Q328.73438 32.709373 328.875 33.31875Q329.03125 33.9125 329.32812 34.31875Q329.625 34.725 330.0625 34.928123Q330.5 35.13125 331.07812 35.13125Q331.5625 35.13125 331.89062 35.053123Q332.21875 34.975 332.42188 34.865623Q332.625 34.740623 332.73438 34.63125L332.73438 32.865623L330.85938 32.865623L330.85938 31.396873L334.78125 31.396873ZM338.84375 26.099998L338.84375 36.6L336.875 36.6L336.875 26.099998L338.84375 26.099998ZM340.45312 32.975L340.45312 32.834373Q340.45312 32.021873 340.6875 31.334373Q340.92188 30.646873 341.35938 30.146873Q341.8125 29.631248 342.45312 29.349998Q343.10938 29.068748 343.9375 29.068748Q344.78125 29.068748 345.4375 29.349998Q346.09375 29.631248 346.54688 30.146873Q347.0 30.646873 347.21875 31.334373Q347.45312 32.021873 347.45312 32.834373L347.45312 32.975Q347.45312 33.7875 347.21875 34.475Q347.0 35.1625 346.54688 35.678123Q346.09375 36.178123 345.4375 36.459373Q344.79688 36.740623 343.95312 36.740623Q343.125 36.740623 342.46875 36.459373Q341.8125 36.178123 341.35938 35.678123Q340.92188 35.1625 340.6875 34.475Q340.45312 33.7875 340.45312 32.975ZM342.42188 32.834373L342.42188 32.975Q342.42188 33.44375 342.5 33.85Q342.57812 34.240623 342.76562 34.553123Q342.95312 34.85 343.23438 35.021873Q343.53125 35.19375 343.95312 35.19375Q344.375 35.19375 344.65625 35.021873Q344.95312 34.85 345.125 34.553123Q345.3125 34.240623 345.39062 33.85Q345.48438 33.44375 345.48438 32.975L345.48438 32.834373Q345.48438 32.38125 345.39062 31.990623Q345.3125 31.584373 345.125 31.271873Q344.95312 30.959373 344.65625 30.787498Q344.35938 30.599998 343.9375 30.599998Q343.53125 30.599998 343.23438 30.787498Q342.95312 30.959373 342.76562 31.271873Q342.57812 31.584373 342.5 31.990623Q342.42188 32.38125 342.42188 32.834373ZM352.76562 34.553123Q352.76562 34.35 352.64062 34.178123Q352.51562 34.00625 352.1875 33.865623Q351.85938 33.709373 351.23438 33.584373Q350.67188 33.459373 350.1875 33.271873Q349.70312 33.084373 349.34375 32.81875Q349.0 32.553123 348.79688 32.19375Q348.60938 31.818748 348.60938 31.349998Q348.60938 30.881248 348.8125 30.474998Q349.01562 30.068748 349.39062 29.756248Q349.76562 29.428123 350.3125 29.256248Q350.875 29.068748 351.5625 29.068748Q352.53125 29.068748 353.21875 29.381248Q353.90625 29.678123 354.28125 30.224998Q354.65625 30.756248 354.65625 31.443748L352.6875 31.443748Q352.6875 31.146873 352.5625 30.928123Q352.45312 30.693748 352.20312 30.568748Q351.95312 30.428123 351.5625 30.428123Q351.23438 30.428123 350.98438 30.537498Q350.75 30.646873 350.625 30.834373Q350.5 31.021873 350.5 31.256248Q350.5 31.428123 350.5625 31.568748Q350.64062 31.693748 350.79688 31.803123Q350.96875 31.912498 351.23438 32.00625Q351.5 32.1 351.89062 32.1625Q352.6875 32.334373 353.3125 32.6Q353.9375 32.865623 354.29688 33.31875Q354.67188 33.75625 354.67188 34.475Q354.67188 34.975 354.45312 35.38125Q354.23438 35.7875 353.82812 36.1Q353.42188 36.396873 352.84375 36.56875Q352.28125 36.740623 351.5625 36.740623Q350.53125 36.740623 349.8125 36.365623Q349.10938 35.990623 348.73438 35.428123Q348.375 34.85 348.375 34.25625L350.25 34.25625Q350.25 34.6625 350.4375 34.9125Q350.64062 35.146873 350.9375 35.25625Q351.25 35.365623 351.60938 35.365623Q352.0 35.365623 352.25 35.271873Q352.5 35.1625 352.625 34.975Q352.76562 34.7875 352.76562 34.553123ZM359.76562 34.553123Q359.76562 34.35 359.64062 34.178123Q359.51562 34.00625 359.1875 33.865623Q358.85938 33.709373 358.23438 33.584373Q357.67188 33.459373 357.1875 33.271873Q356.70312 33.084373 356.34375 32.81875Q356.0 32.553123 355.79688 32.19375Q355.60938 31.818748 355.60938 31.349998Q355.60938 30.881248 355.8125 30.474998Q356.01562 30.068748 356.39062 29.756248Q356.76562 29.428123 357.3125 29.256248Q357.875 29.068748 358.5625 29.068748Q359.53125 29.068748 360.21875 29.381248Q360.90625 29.678123 361.28125 30.224998Q361.65625 30.756248 361.65625 31.443748L359.6875 31.443748Q359.6875 31.146873 359.5625 30.928123Q359.45312 30.693748 359.20312 30.568748Q358.95312 30.428123 358.5625 30.428123Q358.23438 30.428123 357.98438 30.537498Q357.75 30.646873 357.625 30.834373Q357.5 31.021873 357.5 31.256248Q357.5 31.428123 357.5625 31.568748Q357.64062 31.693748 357.79688 31.803123Q357.96875 31.912498 358.23438 32.00625Q358.5 32.1 358.89062 32.1625Q359.6875 32.334373 360.3125 32.6Q360.9375 32.865623 361.29688 33.31875Q361.67188 33.75625 361.67188 34.475Q361.67188 34.975 361.45312 35.38125Q361.23438 35.7875 360.82812 36.1Q360.42188 36.396873 359.84375 36.56875Q359.28125 36.740623 358.5625 36.740623Q357.53125 36.740623 356.8125 36.365623Q356.10938 35.990623 355.73438 35.428123Q355.375 34.85 355.375 34.25625L357.25 34.25625Q357.25 34.6625 357.4375 34.9125Q357.64062 35.146873 357.9375 35.25625Q358.25 35.365623 358.60938 35.365623Q359.0 35.365623 359.25 35.271873Q359.5 35.1625 359.625 34.975Q359.76562 34.7875 359.76562 34.553123ZM366.76562 34.928123L366.76562 31.631248Q366.76562 31.287498 366.64062 31.037498Q366.53125 30.771873 366.28125 30.631248Q366.04688 30.474998 365.65625 30.474998Q365.32812 30.474998 365.07812 30.599998Q364.84375 30.709373 364.71875 30.928123Q364.59375 31.131248 364.59375 31.396873L362.625 31.396873Q362.625 30.928123 362.84375 30.506248Q363.0625 30.084373 363.46875 29.756248Q363.89062 29.428123 364.46875 29.256248Q365.04688 29.068748 365.76562 29.068748Q366.625 29.068748 367.29688 29.365623Q367.96875 29.646873 368.34375 30.224998Q368.73438 30.787498 368.73438 31.646873L368.73438 34.81875Q368.73438 35.428123 368.8125 35.81875Q368.89062 36.19375 369.03125 36.490623L369.03125 36.6L367.04688 36.6Q366.90625 36.303123 366.82812 35.85Q366.76562 35.396873 366.76562 34.928123ZM367.01562 32.1L367.03125 33.209373L365.9375 33.209373Q365.54688 33.209373 365.25 33.303123Q364.96875 33.38125 364.78125 33.553123Q364.59375 33.709373 364.5 33.928123Q364.42188 34.13125 364.42188 34.38125Q364.42188 34.63125 364.53125 34.834373Q364.65625 35.0375 364.875 35.1625Q365.09375 35.271873 365.39062 35.271873Q365.82812 35.271873 366.15625 35.1Q366.48438 34.9125 366.67188 34.6625Q366.85938 34.396873 366.85938 34.1625L367.375 34.990623Q367.26562 35.271873 367.07812 35.584373Q366.89062 35.88125 366.60938 36.146873Q366.32812 36.396873 365.92188 36.56875Q365.51562 36.740623 364.95312 36.740623Q364.25 36.740623 363.67188 36.459373Q363.10938 36.1625 362.78125 35.6625Q362.45312 35.1625 362.45312 34.521873Q362.45312 33.94375 362.67188 33.490623Q362.89062 33.0375 363.3125 32.725Q363.75 32.4125 364.39062 32.25625Q365.03125 32.1 365.875 32.1L367.01562 32.1ZM372.73438 30.818748L372.73438 36.6L370.76562 36.6L370.76562 29.209373L372.625 29.209373L372.73438 30.818748ZM374.96875 29.162498L374.92188 30.974998Q374.78125 30.959373 374.57812 30.943748Q374.375 30.928123 374.21875 30.928123Q373.79688 30.928123 373.48438 31.037498Q373.1875 31.131248 372.98438 31.334373Q372.79688 31.537498 372.6875 31.834373Q372.59375 32.13125 372.57812 32.50625L372.1875 32.38125Q372.1875 31.678123 372.32812 31.068748Q372.46875 30.459373 372.73438 30.006248Q373.01562 29.553123 373.42188 29.318748Q373.82812 29.068748 374.34375 29.068748Q374.51562 29.068748 374.6875 29.099998Q374.85938 29.115623 374.96875 29.162498ZM377.84375 29.209373L377.84375 36.6L375.875 36.6L375.875 29.209373L377.84375 29.209373ZM375.75 27.271873Q375.75 26.849998 376.04688 26.568748Q376.34375 26.287498 376.85938 26.287498Q377.35938 26.287498 377.65625 26.568748Q377.95312 26.849998 377.95312 27.271873Q377.95312 27.709373 377.65625 27.990623Q377.35938 28.271873 376.85938 28.271873Q376.34375 28.271873 376.04688 27.990623Q375.75 27.709373 375.75 27.271873ZM379.45312 32.975L379.45312 32.834373Q379.45312 32.021873 379.6875 31.334373Q379.92188 30.646873 380.35938 30.146873Q380.8125 29.631248 381.45312 29.349998Q382.10938 29.068748 382.9375 29.068748Q383.78125 29.068748 384.4375 29.349998Q385.09375 29.631248 385.54688 30.146873Q386.0 30.646873 386.21875 31.334373Q386.45312 32.021873 386.45312 32.834373L386.45312 32.975Q386.45312 33.7875 386.21875 34.475Q386.0 35.1625 385.54688 35.678123Q385.09375 36.178123 384.4375 36.459373Q383.79688 36.740623 382.95312 36.740623Q382.125 36.740623 381.46875 36.459373Q380.8125 36.178123 380.35938 35.678123Q379.92188 35.1625 379.6875 34.475Q379.45312 33.7875 379.45312 32.975ZM381.42188 32.834373L381.42188 32.975Q381.42188 33.44375 381.5 33.85Q381.57812 34.240623 381.76562 34.553123Q381.95312 34.85 382.23438 35.021873Q382.53125 35.19375 382.95312 35.19375Q383.375 35.19375 383.65625 35.021873Q383.95312 34.85 384.125 34.553123Q384.3125 34.240623 384.39062 33.85Q384.48438 33.44375 384.48438 32.975L384.48438 32.834373Q384.48438 32.38125 384.39062 31.990623Q384.3125 31.584373 384.125 31.271873Q383.95312 30.959373 383.65625 30.787498Q383.35938 30.599998 382.9375 30.599998Q382.53125 30.599998 382.23438 30.787498Q381.95312 30.959373 381.76562 31.271873Q381.57812 31.584373 381.5 31.990623Q381.42188 32.38125 381.42188 32.834373Z" fill-rule="nonzero"/><path fill="#226f00" d="M415.0 32.1C415.0 35.413708 412.31372 38.1 409.0 38.1C405.68628 38.1 403.0 35.413708 403.0 32.1C403.0 28.786291 405.68628 26.1 409.0 26.1C412.31372 26.1 415.0 28.786291 415.0 32.1Z" fill-rule="nonzero"/><path fill="#1a1a1a" d="M427.76562 33.053123L425.23438 33.053123L425.23438 31.459373L427.76562 31.459373Q428.35938 31.459373 428.71875 31.271873Q429.09375 31.068748 429.26562 30.724998Q429.4375 30.365623 429.4375 29.928123Q429.4375 29.490623 429.26562 29.115623Q429.09375 28.724998 428.71875 28.490623Q428.35938 28.256248 427.76562 28.256248L425.9375 28.256248L425.9375 36.6L423.89062 36.6L423.89062 26.646873L427.76562 26.646873Q428.9375 26.646873 429.76562 27.068748Q430.60938 27.490623 431.04688 28.224998Q431.5 28.959373 431.5 29.912498Q431.5 30.881248 431.04688 31.584373Q430.60938 32.2875 429.76562 32.678123Q428.9375 33.053123 427.76562 33.053123ZM437.14062 34.990623L437.14062 26.099998L439.10938 26.099998L439.10938 36.6L437.32812 36.6L437.14062 34.990623ZM432.45312 32.990623L432.45312 32.85Q432.45312 32.00625 432.64062 31.318748Q432.84375 30.615623 433.20312 30.115623Q433.57812 29.615623 434.10938 29.349998Q434.65625 29.068748 435.34375 29.068748Q436.0 29.068748 436.48438 29.349998Q436.98438 29.615623 437.32812 30.115623Q437.67188 30.615623 437.875 31.303123Q438.09375 31.974998 438.1875 32.7875L438.1875 33.1Q438.09375 33.865623 437.875 34.5375Q437.67188 35.19375 437.32812 35.69375Q436.98438 36.19375 436.48438 36.475Q436.0 36.740623 435.34375 36.740623Q434.64062 36.740623 434.10938 36.459373Q433.57812 36.178123 433.20312 35.678123Q432.84375 35.1625 432.64062 34.490623Q432.45312 33.803123 432.45312 32.990623ZM434.42188 32.85L434.42188 32.990623Q434.42188 33.44375 434.5 33.85Q434.57812 34.240623 434.73438 34.553123Q434.90625 34.85 435.17188 35.021873Q435.45312 35.178123 435.82812 35.178123Q436.34375 35.178123 436.67188 34.959373Q437.0 34.725 437.17188 34.31875Q437.34375 33.9125 437.375 33.396873L437.375 32.490623Q437.35938 32.06875 437.25 31.724998Q437.15625 31.381248 436.96875 31.131248Q436.78125 30.881248 436.5 30.756248Q436.21875 30.615623 435.84375 30.615623Q435.46875 30.615623 435.1875 30.787498Q434.92188 30.959373 434.75 31.271873Q434.57812 31.568748 434.5 31.974998Q434.42188 32.38125 434.42188 32.85ZM444.76562 33.053123L442.23438 33.053123L442.23438 31.459373L444.76562 31.459373Q445.35938 31.459373 445.71875 31.271873Q446.09375 31.068748 446.26562 30.724998Q446.4375 30.365623 446.4375 29.928123Q446.4375 29.490623 446.26562 29.115623Q446.09375 28.724998 445.71875 28.490623Q445.35938 28.256248 444.76562 28.256248L442.9375 28.256248L442.9375 36.6L440.89062 36.6L440.89062 26.646873L444.76562 26.646873Q445.9375 26.646873 446.76562 27.068748Q447.60938 27.490623 448.04688 28.224998Q448.5 28.959373 448.5 29.912498Q448.5 30.881248 448.04688 31.584373Q447.60938 32.2875 446.76562 32.678123Q445.9375 33.053123 444.76562 33.053123Z" fill-rule="nonzero"/><path fill="#9900ff" d="M477.0 32.1C477.0 35.413708 474.31372 38.1 471.0 38.1C467.68628 38.1 465.0 35.413708 465.0 32.1C465.0 28.786291 467.68628 26.1 471.0 26.1C474.31372 26.1 477.0 28.786291 477.0 32.1Z" fill-rule="nonzero"/><path fill="#1a1a1a" d="M489.76562 33.053123L487.23438 33.053123L487.23438 31.459373L489.76562 31.459373Q490.35938 31.459373 490.71875 31.271873Q491.09375 31.068748 491.26562 30.724998Q491.4375 30.365623 491.4375 29.928123Q491.4375 29.490623 491.26562 29.115623Q491.09375 28.724998 490.71875 28.490623Q490.35938 28.256248 489.76562 28.256248L487.9375 28.256248L487.9375 36.6L485.89062 36.6L485.89062 26.646873L489.76562 26.646873Q490.9375 26.646873 491.76562 27.068748Q492.60938 27.490623 493.04688 28.224998Q493.5 28.959373 493.5 29.912498Q493.5 30.881248 493.04688 31.584373Q492.60938 32.2875 491.76562 32.678123Q490.9375 33.053123 489.76562 33.053123ZM499.14062 34.990623L499.14062 26.099998L501.10938 26.099998L501.10938 36.6L499.32812 36.6L499.14062 34.990623ZM494.45312 32.990623L494.45312 32.85Q494.45312 32.00625 494.64062 31.318748Q494.84375 30.615623 495.20312 30.115623Q495.57812 29.615623 496.10938 29.349998Q496.65625 29.068748 497.34375 29.068748Q498.0 29.068748 498.48438 29.349998Q498.98438 29.615623 499.32812 30.115623Q499.67188 30.615623 499.875 31.303123Q500.09375 31.974998 500.1875 32.7875L500.1875 33.1Q500.09375 33.865623 499.875 34.5375Q499.67188 35.19375 499.32812 35.69375Q498.98438 36.19375 498.48438 36.475Q498.0 36.740623 497.34375 36.740623Q496.64062 36.740623 496.10938 36.459373Q495.57812 36.178123 495.20312 35.678123Q494.84375 35.1625 494.64062 34.490623Q494.45312 33.803123 494.45312 32.990623ZM496.42188 32.85L496.42188 32.990623Q496.42188 33.44375 496.5 33.85Q496.57812 34.240623 496.73438 34.553123Q496.90625 34.85 497.17188 35.021873Q497.45312 35.178123 497.82812 35.178123Q498.34375 35.178123 498.67188 34.959373Q499.0 34.725 499.17188 34.31875Q499.34375 33.9125 499.375 33.396873L499.375 32.490623Q499.35938 32.06875 499.25 31.724998Q499.15625 31.381248 498.96875 31.131248Q498.78125 30.881248 498.5 30.756248Q498.21875 30.615623 497.84375 30.615623Q497.46875 30.615623 497.1875 30.787498Q496.92188 30.959373 496.75 31.271873Q496.57812 31.568748 496.5 31.974998Q496.42188 32.38125 496.42188 32.85ZM508.29688 35.115623L510.98438 37.25625L509.70312 38.38125L507.04688 36.240623L508.29688 35.115623ZM511.0625 31.396873L511.0625 31.865623Q511.0625 32.990623 510.75 33.896873Q510.45312 34.803123 509.875 35.44375Q509.3125 36.06875 508.53125 36.4125Q507.76562 36.740623 506.82812 36.740623Q505.89062 36.740623 505.10938 36.4125Q504.32812 36.06875 503.76562 35.44375Q503.20312 34.803123 502.89062 33.896873Q502.57812 32.990623 502.57812 31.865623L502.57812 31.396873Q502.57812 30.256248 502.89062 29.349998Q503.20312 28.443748 503.75 27.818748Q504.3125 27.178123 505.09375 26.849998Q505.875 26.506248 506.8125 26.506248Q507.75 26.506248 508.53125 26.849998Q509.3125 27.178123 509.875 27.818748Q510.4375 28.443748 510.75 29.349998Q511.0625 30.256248 511.0625 31.396873ZM508.98438 31.865623L508.98438 31.381248Q508.98438 30.584373 508.82812 29.990623Q508.6875 29.381248 508.40625 28.974998Q508.14062 28.553123 507.73438 28.349998Q507.32812 28.146873 506.8125 28.146873Q506.29688 28.146873 505.89062 28.349998Q505.48438 28.553123 505.20312 28.974998Q504.9375 29.381248 504.79688 29.990623Q504.65625 30.584373 504.65625 31.381248L504.65625 31.865623Q504.65625 32.646873 504.79688 33.25625Q504.9375 33.865623 505.21875 34.271873Q505.5 34.678123 505.90625 34.896873Q506.3125 35.115623 506.82812 35.115623Q507.34375 35.115623 507.73438 34.896873Q508.14062 34.678123 508.42188 34.271873Q508.70312 33.865623 508.84375 33.25625Q508.98438 32.646873 508.98438 31.865623Z" fill-rule="nonzero"/><path fill="#ff00ff" d="M540.0 32.1C540.0 35.413708 537.3137 38.1 534.0 38.1C530.6863 38.1 528.0 35.413708 528.0 32.1C528.0 28.786291 530.6863 26.1 534.0 26.1C537.3137 26.1 540.0 28.786291 540.0 32.1Z" fill-rule="nonzero"/><path fill="#1a1a1a" d="M556.9844 26.646873L556.9844 36.6L554.9375 36.6L550.9375 29.928123L550.9375 36.6L548.8906 36.6L548.8906 26.646873L550.9375 26.646873L554.9531 33.31875L554.9531 26.646873L556.9844 26.646873ZM563.1406 34.990623L563.1406 26.099998L565.1094 26.099998L565.1094 36.6L563.3281 36.6L563.1406 34.990623ZM558.4531 32.990623L558.4531 32.85Q558.4531 32.00625 558.6406 31.318748Q558.84375 30.615623 559.2031 30.115623Q559.5781 29.615623 560.1094 29.349998Q560.65625 29.068748 561.34375 29.068748Q562.0 29.068748 562.4844 29.349998Q562.9844 29.615623 563.3281 30.115623Q563.6719 30.615623 563.875 31.303123Q564.09375 31.974998 564.1875 32.7875L564.1875 33.1Q564.09375 33.865623 563.875 34.5375Q563.6719 35.19375 563.3281 35.69375Q562.9844 36.19375 562.4844 36.475Q562.0 36.740623 561.34375 36.740623Q560.6406 36.740623 560.1094 36.459373Q559.5781 36.178123 559.2031 35.678123Q558.84375 35.1625 558.6406 34.490623Q558.4531 33.803123 558.4531 32.990623ZM560.4219 32.85L560.4219 32.990623Q560.4219 33.44375 560.5 33.85Q560.5781 34.240623 560.7344 34.553123Q560.90625 34.85 561.1719 35.021873Q561.4531 35.178123 561.8281 35.178123Q562.34375 35.178123 562.6719 34.959373Q563.0 34.725 563.1719 34.31875Q563.34375 33.9125 563.375 33.396873L563.375 32.490623Q563.3594 32.06875 563.25 31.724998Q563.15625 31.381248 562.96875 31.131248Q562.78125 30.881248 562.5 30.756248Q562.21875 30.615623 561.84375 30.615623Q561.46875 30.615623 561.1875 30.787498Q560.9219 30.959373 560.75 31.271873Q560.5781 31.568748 560.5 31.974998Q560.4219 32.38125 560.4219 32.85ZM570.7656 33.053123L568.2344 33.053123L568.2344 31.459373L570.7656 31.459373Q571.3594 31.459373 571.71875 31.271873Q572.09375 31.068748 572.2656 30.724998Q572.4375 30.365623 572.4375 29.928123Q572.4375 29.490623 572.2656 29.115623Q572.09375 28.724998 571.71875 28.490623Q571.3594 28.256248 570.7656 28.256248L568.9375 28.256248L568.9375 36.6L566.8906 36.6L566.8906 26.646873L570.7656 26.646873Q571.9375 26.646873 572.7656 27.068748Q573.6094 27.490623 574.0469 28.224998Q574.5 28.959373 574.5 29.912498Q574.5 30.881248 574.0469 31.584373Q573.6094 32.2875 572.7656 32.678123Q571.9375 33.053123 570.7656 33.053123Z" fill-rule="nonzero"/><path fill="#ffcb00" d="M603.0 32.1C603.0 35.413708 600.3137 38.1 597.0 38.1C593.6863 38.1 591.0 35.413708 591.0 32.1C591.0 28.786291 593.6863 26.1 597.0 26.1C600.3137 26.1 603.0 28.786291 603.0 32.1Z" fill-rule="nonzero"/><path fill="#1a1a1a" d="M615.9375 28.349998L613.2344 36.6L611.0469 36.6L614.75 26.646873L616.1406 26.646873L615.9375 28.349998ZM618.1875 36.6L615.46875 28.349998L615.25 26.646873L616.65625 26.646873L620.375 36.6L618.1875 36.6ZM618.0625 32.896873L618.0625 34.50625L612.8125 34.50625L612.8125 32.896873L618.0625 32.896873ZM625.1406 34.990623L625.1406 26.099998L627.1094 26.099998L627.1094 36.6L625.3281 36.6L625.1406 34.990623ZM620.4531 32.990623L620.4531 32.85Q620.4531 32.00625 620.6406 31.318748Q620.84375 30.615623 621.2031 30.115623Q621.5781 29.615623 622.1094 29.349998Q622.65625 29.068748 623.34375 29.068748Q624.0 29.068748 624.4844 29.349998Q624.9844 29.615623 625.3281 30.115623Q625.6719 30.615623 625.875 31.303123Q626.09375 31.974998 626.1875 32.7875L626.1875 33.1Q626.09375 33.865623 625.875 34.5375Q625.6719 35.19375 625.3281 35.69375Q624.9844 36.19375 624.4844 36.475Q624.0 36.740623 623.34375 36.740623Q622.6406 36.740623 622.1094 36.459373Q621.5781 36.178123 621.2031 35.678123Q620.84375 35.1625 620.6406 34.490623Q620.4531 33.803123 620.4531 32.990623ZM622.4219 32.85L622.4219 32.990623Q622.4219 33.44375 622.5 33.85Q622.5781 34.240623 622.7344 34.553123Q622.90625 34.85 623.1719 35.021873Q623.4531 35.178123 623.8281 35.178123Q624.34375 35.178123 624.6719 34.959373Q625.0 34.725 625.1719 34.31875Q625.34375 33.9125 625.375 33.396873L625.375 32.490623Q625.3594 32.06875 625.25 31.724998Q625.15625 31.381248 624.96875 31.131248Q624.78125 30.881248 624.5 30.756248Q624.21875 30.615623 623.84375 30.615623Q623.46875 30.615623 623.1875 30.787498Q622.9219 30.959373 622.75 31.271873Q622.5781 31.568748 622.5 31.974998Q622.4219 32.38125 622.4219 32.85ZM628.8906 26.646873L632.59375 26.646873Q633.75 26.646873 634.5625 26.990623Q635.3906 27.334373 635.8281 28.006248Q636.28125 28.662498 636.28125 29.646873Q636.28125 30.443748 636.0 31.021873Q635.7344 31.584373 635.25 31.974998Q634.7656 32.35 634.1094 32.56875L633.4531 32.9125L630.2344 32.9125L630.21875 31.318748L632.6094 31.318748Q633.15625 31.318748 633.5 31.131248Q633.8594 30.928123 634.0469 30.599998Q634.2344 30.256248 634.2344 29.803123Q634.2344 29.318748 634.0469 28.974998Q633.875 28.615623 633.5 28.443748Q633.1406 28.256248 632.59375 28.256248L630.9375 28.256248L630.9375 36.6L628.8906 36.6L628.8906 26.646873ZM634.4531 36.6L632.1875 32.1625L634.34375 32.146873L636.6406 36.50625L636.6406 36.6L634.4531 36.6Z" fill-rule="nonzero"/></svg>