<svg version="1.1" viewBox="0.0 0.0 797.0 472.0" fill="none" stroke="none" stroke-linecap="square" stroke-miterlimit="10" width="797" height="472" xmlns:xlink="http://www.w3.org/1999/xlink" xmlns="http://www.w3.org/2000/svg"><path fill="#ffffff" d="M0 0L797.0 0L797.0 472.0L0 472.0L0 0Z" fill-rule="nonzero"/><path stroke="#333333" stroke-width="1.0" stroke-linecap="butt" d="M50.5 424.5L773.5 424.5" fill-rule="nonzero"/><path stroke="#cccccc" stroke-width="1.0" stroke-linecap="butt" d="M50.5 388.5L773.5 388.5" fill-rule="nonzero"/><path stroke="#cccccc" stroke-width="1.0" stroke-linecap="butt" d="M50.5 352.5L773.5 352.5" fill-rule="nonzero"/><path stroke="#cccccc" stroke-width="1.0" stroke-linecap="butt" d="M50.5 316.5L773.5 316.5" fill-rule="nonzero"/><path stroke="#cccccc" stroke-width="1.0" stroke-linecap="butt" d="M50.5 280.5L773.5 280.5" fill-rule="nonzero"/><path stroke="#cccccc" stroke-width="1.0" stroke-linecap="butt" d="M50.5 244.5L773.5 244.5" fill-rule="nonzero"/><path stroke="#cccccc" stroke-width="1.0" stroke-linecap="butt" d="M50.5 208.5L773.5 208.5" fill-rule="nonzero"/><path stroke="#cccccc" stroke-width="1.0" stroke-linecap="butt" d="M50.5 172.5L773.5 172.5" fill-rule="nonzero"/><path stroke="#cccccc" stroke-width="1.0" stroke-linecap="butt" d="M50.5 135.5L773.5 135.5" fill-rule="nonzero"/><path stroke="#cccccc" stroke-width="1.0" stroke-linecap="butt" d="M50.5 99.5L773.5 99.5" fill-rule="nonzero"/><path stroke="#cccccc" stroke-width="1.0" stroke-linecap="butt" d="M50.5 63.5L773.5 63.5" fill-rule="nonzero"/><path stroke="#000000" stroke-width="1.0" stroke-linecap="butt" d="M50.5 424.5L50.5 63.5" fill-rule="nonzero"/><clipPath id="id_0"><path d="M50.6 63.833332L773.4 63.833332L773.4 424.4L50.6 424.4L50.6 63.833332Z" clip-rule="nonzero"/></clipPath><path stroke="#9900ff" stroke-width="4.0" stroke-linecap="butt" clip-path="url(#id_0)" d="M122.88 424.4L267.44 424.4L412.0 424.4L556.56 424.4L701.12 424.4" fill-rule="nonzero"/><path stroke="#ff0000" stroke-width="2.0" stroke-linecap="butt" stroke-dasharray="8.0,6.0" clip-path="url(#id_0)" d="M122.88 316.23L267.44 316.23L412.0 316.23L556.56 316.23L701.12 316.23" fill-rule="nonzero"/><path stroke="#00b050" stroke-width="3.0" stroke-linecap="butt" stroke-dasharray="11.0,8.0" clip-path="url(#id_0)" d="M122.88 424.4L267.44 424.4L412.0 424.4L556.56 424.4L701.12 424.4" fill-rule="nonzero"/><path fill="#9900ff" clip-path="url(#id_0)" d="M126.38 424.4C126.38 426.333 124.812996 427.9 122.88 427.9C120.94701 427.9 119.38 426.333 119.38 424.4C119.38 422.467 120.94701 420.9 122.88 420.9C124.812996 420.9 126.38 422.467 126.38 424.4Z" fill-rule="nonzero"/><path fill="#9900ff" clip-path="url(#id_0)" d="M270.94 424.4C270.94 426.333 269.373 427.9 267.44 427.9C265.507 427.9 263.94 426.333 263.94 424.4C263.94 422.467 265.507 420.9 267.44 420.9C269.373 420.9 270.94 422.467 270.94 424.4Z" fill-rule="nonzero"/><path fill="#9900ff" clip-path="url(#id_0)" d="M415.5 424.4C415.5 426.333 413.93298 427.9 412.0 427.9C410.06702 427.9 408.5 426.333 408.5 424.4C408.5 422.467 410.06702 420.9 412.0 420.9C413.93298 420.9 415.5 422.467 415.5 424.4Z" fill-rule="nonzero"/><path fill="#9900ff" clip-path="url(#id_0)" d="M560.06 424.4C560.06 426.333 558.493 427.9 556.56 427.9C554.627 427.9 553.06 426.333 553.06 424.4C553.06 422.467 554.627 420.9 556.56 420.9C558.493 420.9 560.06 422.467 560.06 424.4Z" fill-rule="nonzero"/><path fill="#9900ff" clip-path="url(#id_0)" d="M704.62 424.4C704.62 426.333 703.053 427.9 701.12 427.9C699.187 427.9 697.62 426.333 697.62 424.4C697.62 422.467 699.187 420.9 701.12 420.9C703.053 420.9 704.62 422.467 704.62 424.4Z" fill-rule="nonzero"/><path fill="#000000" fill-opacity="0.0" clip-path="url(#id_0)" d="M125.88 316.23C125.88 317.88684 124.53686 319.23 122.88 319.23C121.223145 319.23 119.88 317.88684 119.88 316.23C119.88 314.57315 121.223145 313.23 122.88 313.23C124.53686 313.23 125.88 314.57315 125.88 316.23Z" fill-rule="nonzero"/><path fill="#000000" fill-opacity="0.0" clip-path="url(#id_0)" d="M270.44 316.23C270.44 317.88684 269.09686 319.23 267.44 319.23C265.78314 319.23 264.44 317.88684 264.44 316.23C264.44 314.57315 265.78314 313.23 267.44 313.23C269.09686 313.23 270.44 314.57315 270.44 316.23Z" fill-rule="nonzero"/><path fill="#000000" fill-opacity="0.0" clip-path="url(#id_0)" d="M415.0 316.23C415.0 317.88684 413.65686 319.23 412.0 319.23C410.34314 319.23 409.0 317.88684 409.0 316.23C409.0 314.57315 410.34314 313.23 412.0 313.23C413.65686 313.23 415.0 314.57315 415.0 316.23Z" fill-rule="nonzero"/><path fill="#000000" fill-opacity="0.0" clip-path="url(#id_0)" d="M559.56 316.23C559.56 317.88684 558.21686 319.23 556.56 319.23C554.90314 319.23 553.56 317.88684 553.56 316.23C553.56 314.57315 554.90314 313.23 556.56 313.23C558.21686 313.23 559.56 314.57315 559.56 316.23Z" fill-rule="nonzero"/><path fill="#000000" fill-opacity="0.0" clip-path="url(#id_0)" d="M704.12 316.23C704.12 317.88684 702.77686 319.23 701.12 319.23C699.46313 319.23 698.12 317.88684 698.12 316.23C698.12 314.57315 699.46313 313.23 701.12 313.23C702.77686 313.23 704.12 314.57315 704.12 316.23Z" fill-rule="nonzero"/><path fill="#000000" fill-opacity="0.0" clip-path="url(#id_0)" d="M125.88 424.4C125.88 426.05685 124.53686 427.4 122.88 427.4C121.223145 427.4 119.88 426.05685 119.88 424.4C119.88 422.74313 121.223145 421.4 122.88 421.4C124.53686 421.4 125.88 422.74313 125.88 424.4Z" fill-rule="nonzero"/><path fill="#000000" fill-opacity="0.0" clip-path="url(#id_0)" d="M270.44 424.4C270.44 426.05685 269.09686 427.4 267.44 427.4C265.78314 427.4 264.44 426.05685 264.44 424.4C264.44 422.74313 265.78314 421.4 267.44 421.4C269.09686 421.4 270.44 422.74313 270.44 424.4Z" fill-rule="nonzero"/><path fill="#000000" fill-opacity="0.0" clip-path="url(#id_0)" d="M415.0 424.4C415.0 426.05685 413.65686 427.4 412.0 427.4C410.34314 427.4 409.0 426.05685 409.0 424.4C409.0 422.74313 410.34314 421.4 412.0 421.4C413.65686 421.4 415.0 422.74313 415.0 424.4Z" fill-rule="nonzero"/><path fill="#000000" fill-opacity="0.0" clip-path="url(#id_0)" d="M559.56 424.4C559.56 426.05685 558.21686 427.4 556.56 427.4C554.90314 427.4 553.56 426.05685 553.56 424.4C553.56 422.74313 554.90314 421.4 556.56 421.4C558.21686 421.4 559.56 422.74313 559.56 424.4Z" fill-rule="nonzero"/><path fill="#000000" fill-opacity="0.0" clip-path="url(#id_0)" d="M704.12 424.4C704.12 426.05685 702.77686 427.4 701.12 427.4C699.46313 427.4 698.12 426.05685 698.12 424.4C698.12 422.74313 699.46313 421.4 701.12 421.4C702.77686 421.4 704.12 422.74313 704.12 424.4Z" fill-rule="nonzero"/><path fill="#000000" d="M43.6625 423.94687L43.6625 425.25937Q43.6625 426.30624 43.475 427.025Q43.2875 427.74374 42.928123 428.18124Q42.584373 428.61874 42.084373 428.82187Q41.6 429.025 40.975 429.025Q40.490623 429.025 40.06875 428.9Q39.646873 428.775 39.31875 428.50937Q38.990623 428.22812 38.75625 427.79062Q38.521873 427.35312 38.396873 426.72812Q38.271873 426.0875 38.271873 425.25937L38.271873 423.94687Q38.271873 422.9 38.459373 422.19687Q38.6625 421.49374 39.00625 421.05624Q39.365623 420.61874 39.85 420.43124Q40.35 420.24374 40.959373 420.24374Q41.459373 420.24374 41.88125 420.36874Q42.303123 420.49374 42.63125 420.75937Q42.959373 421.00937 43.178123 421.44687Q43.4125 421.86874 43.5375 422.49374Q43.6625 423.11874 43.6625 423.94687ZM42.56875 425.43124L42.56875 423.775Q42.56875 423.19687 42.50625 422.75937Q42.44375 422.32187 42.303123 422.00937Q42.178123 421.69687 41.975 421.50937Q41.7875 421.32187 41.5375 421.22812Q41.2875 421.13437 40.959373 421.13437Q40.584373 421.13437 40.271873 421.275Q39.975 421.41562 39.771873 421.72812Q39.56875 422.04062 39.459373 422.55624Q39.365623 423.05624 39.365623 423.775L39.365623 425.43124Q39.365623 426.00937 39.428123 426.44687Q39.50625 426.88437 39.63125 427.2125Q39.771873 427.525 39.959373 427.72812Q40.1625 427.93124 40.4125 428.025Q40.6625 428.11874 40.975 428.11874Q41.38125 428.11874 41.678123 427.97812Q41.975 427.82187 42.178123 427.49374Q42.38125 427.16562 42.475 426.66562Q42.56875 426.15 42.56875 425.43124Z" fill-rule="nonzero"/><path fill="#000000" d="M41.865623 384.2652L41.865623 392.84332L40.7875 392.84332L40.7875 385.62457L38.6 386.42145L38.6 385.43707L41.709373 384.2652L41.865623 384.2652Z" fill-rule="nonzero"/><path fill="#000000" d="M43.896873 355.89603L43.896873 356.78665L38.31875 356.78665L38.31875 356.0054L41.115623 352.89603Q41.63125 352.3179 41.9125 351.92728Q42.19375 351.52103 42.303123 351.20853Q42.428123 350.8804 42.428123 350.55228Q42.428123 350.1304 42.25625 349.78665Q42.084373 349.4429 41.740623 349.23978Q41.4125 349.02103 40.928123 349.02103Q40.365623 349.02103 39.990623 349.2554Q39.615623 349.47415 39.428123 349.86478Q39.240623 350.2554 39.240623 350.7554L38.146873 350.7554Q38.146873 350.03665 38.459373 349.4429Q38.7875 348.84915 39.396873 348.48978Q40.021873 348.1304 40.928123 348.1304Q41.740623 348.1304 42.31875 348.42728Q42.896873 348.70853 43.19375 349.22415Q43.50625 349.72415 43.50625 350.41165Q43.50625 350.78665 43.38125 351.17728Q43.25625 351.55228 43.0375 351.9429Q42.81875 352.3179 42.521873 352.6929Q42.240623 353.05228 41.9125 353.41165L39.615623 355.89603L43.896873 355.89603Z" fill-rule="nonzero"/><path fill="#000000" d="M39.896873 315.93314L40.6625 315.93314Q41.240623 315.93314 41.6 315.74564Q41.975 315.5425 42.1625 315.2144Q42.35 314.88626 42.35 314.4644Q42.35 313.98 42.178123 313.6519Q42.021873 313.30814 41.69375 313.13626Q41.365623 312.9644 40.865623 312.9644Q40.396873 312.9644 40.053123 313.1519Q39.709373 313.32376 39.50625 313.6519Q39.31875 313.98 39.31875 314.43314L38.225 314.43314Q38.225 313.7769 38.553123 313.24564Q38.88125 312.7144 39.475 312.4019Q40.06875 312.07376 40.865623 312.07376Q41.63125 312.07376 42.209373 312.355Q42.7875 312.62064 43.115623 313.1675Q43.44375 313.69876 43.44375 314.49564Q43.44375 314.82376 43.2875 315.18314Q43.13125 315.5425 42.81875 315.87064Q42.50625 316.18314 42.00625 316.38626Q41.521873 316.5894 40.81875 316.5894L39.896873 316.5894L39.896873 315.93314ZM39.896873 316.82376L39.896873 316.1675L40.81875 316.1675Q41.63125 316.1675 42.1625 316.37064Q42.69375 316.55814 43.00625 316.88626Q43.31875 317.19876 43.44375 317.5894Q43.56875 317.9644 43.56875 318.355Q43.56875 318.94876 43.365623 319.4175Q43.1625 319.87064 42.7875 320.19876Q42.428123 320.51126 41.928123 320.68314Q41.44375 320.855 40.865623 320.855Q40.303123 320.855 39.81875 320.69876Q39.334373 320.5269 38.959373 320.23Q38.584373 319.93314 38.365623 319.49564Q38.1625 319.0425 38.1625 318.48L39.240623 318.48Q39.240623 318.9175 39.428123 319.26126Q39.63125 319.5894 39.990623 319.7769Q40.365623 319.94876 40.865623 319.94876Q41.365623 319.94876 41.725 319.7769Q42.084373 319.605 42.271873 319.26126Q42.475 318.9019 42.475 318.37064Q42.475 317.8394 42.25625 317.49564Q42.0375 317.1519 41.615623 316.99564Q41.209373 316.82376 40.6625 316.82376L39.896873 316.82376Z" fill-rule="nonzero"/><path fill="#000000" d="M44.06875 281.79834L44.06875 282.68896L37.9125 282.68896L37.9125 282.04834L41.725 276.1421L42.615623 276.1421L41.6625 277.8452L39.146873 281.79834L44.06875 281.79834ZM42.88125 276.1421L42.88125 284.67334L41.803123 284.67334L41.803123 276.1421L42.88125 276.1421Z" fill-rule="nonzero"/><path fill="#000000" d="M39.678123 244.55417L38.81875 244.33542L39.240623 240.08542L43.615623 240.08542L43.615623 241.08542L40.1625 241.08542L39.896873 243.41354Q40.13125 243.27292 40.490623 243.16354Q40.865623 243.03854 41.334373 243.03854Q41.9125 243.03854 42.38125 243.24167Q42.85 243.4448 43.178123 243.8198Q43.521873 244.1948 43.69375 244.72604Q43.865623 245.24167 43.865623 245.89792Q43.865623 246.5073 43.69375 247.02292Q43.5375 247.53854 43.19375 247.92917Q42.865623 248.30417 42.35 248.52292Q41.85 248.74167 41.1625 248.74167Q40.646873 248.74167 40.19375 248.60104Q39.740623 248.4448 39.365623 248.14792Q39.00625 247.85104 38.7875 247.41354Q38.56875 246.97604 38.50625 246.36667L39.5375 246.36667Q39.6 246.85104 39.803123 247.17917Q40.021873 247.5073 40.365623 247.67917Q40.709373 247.83542 41.1625 247.83542Q41.553123 247.83542 41.85 247.71042Q42.146873 247.5698 42.35 247.3198Q42.56875 247.0698 42.678123 246.71042Q42.7875 246.35104 42.7875 245.91354Q42.7875 245.5073 42.6625 245.16354Q42.553123 244.8198 42.334373 244.5698Q42.115623 244.30417 41.803123 244.16354Q41.490623 244.0073 41.06875 244.0073Q40.5375 244.0073 40.25625 244.16354Q39.975 244.30417 39.678123 244.55417Z" fill-rule="nonzero"/><path fill="#000000" d="M42.475 204.01312L42.56875 204.01312L42.56875 204.935L42.475 204.935Q41.615623 204.935 41.021873 205.21625Q40.44375 205.4975 40.1 205.96625Q39.771873 206.41937 39.615623 207.01312Q39.475 207.59125 39.475 208.185L39.475 209.435Q39.475 209.9975 39.6 210.435Q39.740623 210.8725 39.975 211.185Q40.209373 211.48187 40.50625 211.63812Q40.803123 211.77875 41.115623 211.77875Q41.490623 211.77875 41.7875 211.63812Q42.084373 211.4975 42.2875 211.23187Q42.490623 210.96625 42.584373 210.6225Q42.69375 210.26312 42.69375 209.82562Q42.69375 209.45062 42.6 209.09125Q42.50625 208.73187 42.31875 208.46625Q42.13125 208.185 41.834373 208.02875Q41.5375 207.85687 41.146873 207.85687Q40.69375 207.85687 40.303123 208.07562Q39.9125 208.29437 39.6625 208.65375Q39.4125 209.01312 39.38125 209.41937L38.803123 209.41937Q38.896873 208.76312 39.115623 208.29437Q39.334373 207.82562 39.678123 207.52875Q40.021873 207.23187 40.428123 207.10687Q40.85 206.96625 41.31875 206.96625Q41.959373 206.96625 42.4125 207.21625Q42.88125 207.45062 43.178123 207.85687Q43.490623 208.2475 43.63125 208.7475Q43.771873 209.2475 43.771873 209.77875Q43.771873 210.3725 43.6 210.90375Q43.428123 211.435 43.084373 211.84125Q42.75625 212.23187 42.25625 212.46625Q41.771873 212.685 41.115623 212.685Q40.428123 212.685 39.9125 212.40375Q39.396873 212.10687 39.053123 211.63812Q38.725 211.15375 38.553123 210.57562Q38.38125 209.9975 38.38125 209.40375L38.38125 208.88812Q38.38125 207.98187 38.553123 207.1225Q38.740623 206.2475 39.19375 205.54437Q39.646873 204.84125 40.44375 204.435Q41.240623 204.01312 42.475 204.01312Z" fill-rule="nonzero"/><path fill="#000000" d="M43.81875 167.97208L43.81875 168.58145L40.2875 176.50333L39.146873 176.50333L42.678123 168.8627L38.053123 168.8627L38.053123 167.97208L43.81875 167.97208Z" fill-rule="nonzero"/><path fill="#000000" d="M43.69375 138.13417Q43.69375 138.91542 43.334373 139.4623Q42.975 139.99355 42.35 140.29042Q41.740623 140.57167 40.975 140.57167Q40.209373 140.57167 39.584373 140.29042Q38.975 139.99355 38.615623 139.4623Q38.25625 138.91542 38.25625 138.13417Q38.25625 137.63417 38.459373 137.2123Q38.6625 136.7748 39.021873 136.4623Q39.38125 136.1498 39.865623 135.97792Q40.365623 135.80605 40.959373 135.80605Q41.75625 135.80605 42.365623 136.10292Q42.975 136.3998 43.334373 136.93105Q43.69375 137.4623 43.69375 138.13417ZM42.6 138.11855Q42.6 137.63417 42.396873 137.2748Q42.19375 136.8998 41.81875 136.69667Q41.44375 136.49355 40.959373 136.49355Q40.459373 136.49355 40.1 136.69667Q39.740623 136.8998 39.5375 137.2748Q39.35 137.63417 39.35 138.11855Q39.35 138.60292 39.5375 138.9623Q39.740623 139.30605 40.1 139.49355Q40.475 139.66542 40.975 139.66542Q41.475 139.66542 41.834373 139.49355Q42.209373 139.30605 42.396873 138.9623Q42.6 138.60292 42.6 138.11855ZM43.490623 134.13417Q43.490623 134.75917 43.1625 135.25917Q42.834373 135.75917 42.25625 136.04042Q41.69375 136.32167 40.975 136.32167Q40.240623 136.32167 39.6625 136.04042Q39.1 135.75917 38.771873 135.25917Q38.459373 134.75917 38.459373 134.13417Q38.459373 133.38417 38.771873 132.86855Q39.1 132.35292 39.6625 132.07167Q40.240623 131.79042 40.975 131.79042Q41.709373 131.79042 42.271873 132.07167Q42.834373 132.35292 43.1625 132.86855Q43.490623 133.38417 43.490623 134.13417ZM42.4125 134.1498Q42.4125 133.72792 42.225 133.3998Q42.0375 133.07167 41.709373 132.88417Q41.396873 132.68105 40.975 132.68105Q40.5375 132.68105 40.209373 132.86855Q39.896873 133.04042 39.725 133.36855Q39.553123 133.69667 39.553123 134.1498Q39.553123 134.5873 39.725 134.91542Q39.896873 135.24355 40.225 135.43105Q40.553123 135.61855 40.975 135.61855Q41.396873 135.61855 41.709373 135.43105Q42.0375 135.24355 42.225 134.91542Q42.4125 134.5873 42.4125 134.1498Z" fill-rule="nonzero"/><path fill="#000000" d="M39.38125 103.48375L39.50625 103.48375Q40.44375 103.48375 41.021873 103.218124Q41.615623 102.9525 41.928123 102.515Q42.240623 102.061874 42.35 101.499374Q42.475 100.936874 42.475 100.35875L42.475 99.04625Q42.475 98.468124 42.334373 98.015Q42.209373 97.561874 41.975 97.265Q41.75625 96.9525 41.459373 96.79625Q41.1625 96.64 40.834373 96.64Q40.459373 96.64 40.1625 96.79625Q39.865623 96.936874 39.6625 97.2025Q39.459373 97.468124 39.35 97.843124Q39.25625 98.2025 39.25625 98.624374Q39.25625 99.015 39.35 99.374374Q39.44375 99.718124 39.63125 100.015Q39.834373 100.29625 40.115623 100.468124Q40.4125 100.64 40.803123 100.64Q41.1625 100.64 41.475 100.499374Q41.803123 100.343124 42.053123 100.093124Q42.303123 99.843124 42.44375 99.530624Q42.6 99.218124 42.615623 98.874374L43.13125 98.874374Q43.13125 99.35875 42.94375 99.8275Q42.75625 100.29625 42.4125 100.686874Q42.084373 101.0775 41.615623 101.311874Q41.1625 101.530624 40.63125 101.530624Q39.990623 101.530624 39.521873 101.29625Q39.06875 101.04625 38.771873 100.64Q38.475 100.218124 38.334373 99.718124Q38.19375 99.2025 38.19375 98.686874Q38.19375 98.0775 38.35 97.54625Q38.521873 97.015 38.85 96.60875Q39.19375 96.2025 39.678123 95.968124Q40.178123 95.73375 40.834373 95.73375Q41.56875 95.73375 42.084373 96.030624Q42.6 96.3275 42.928123 96.8275Q43.25625 97.311874 43.396873 97.936874Q43.553123 98.54625 43.553123 99.186874L43.553123 99.5775Q43.553123 100.249374 43.459373 100.936874Q43.38125 101.60875 43.146873 102.23375Q42.9125 102.85875 42.459373 103.343124Q42.00625 103.8275 41.271873 104.124374Q40.553123 104.405624 39.50625 104.405624L39.38125 104.405624L39.38125 103.48375Z" fill-rule="nonzero"/><path fill="#000000" d="M34.865623 59.75521L34.865623 68.333336L33.7875 68.333336L33.7875 61.114586L31.6 61.91146L31.6 60.927086L34.709373 59.75521L34.865623 59.75521ZM43.6625 63.38021L43.6625 64.69271Q43.6625 65.739586 43.475 66.458336Q43.2875 67.177086 42.928123 67.614586Q42.584373 68.052086 42.084373 68.25521Q41.6 68.458336 40.975 68.458336Q40.490623 68.458336 40.06875 68.333336Q39.646873 68.208336 39.31875 67.94271Q38.990623 67.66146 38.75625 67.22396Q38.521873 66.78646 38.396873 66.16146Q38.271873 65.520836 38.271873 64.69271L38.271873 63.38021Q38.271873 62.333336 38.459373 61.63021Q38.6625 60.927086 39.00625 60.489586Q39.365623 60.052086 39.85 59.864586Q40.35 59.677086 40.959373 59.677086Q41.459373 59.677086 41.88125 59.802086Q42.303123 59.927086 42.63125 60.19271Q42.959373 60.44271 43.178123 60.88021Q43.4125 61.302086 43.5375 61.927086Q43.6625 62.552086 43.6625 63.38021ZM42.56875 64.864586L42.56875 63.208336Q42.56875 62.63021 42.50625 62.19271Q42.44375 61.75521 42.303123 61.44271Q42.178123 61.13021 41.975 60.94271Q41.7875 60.75521 41.5375 60.66146Q41.2875 60.56771 40.959373 60.56771Q40.584373 60.56771 40.271873 60.708336Q39.975 60.84896 39.771873 61.16146Q39.56875 61.47396 39.459373 61.989586Q39.365623 62.489586 39.365623 63.208336L39.365623 64.864586Q39.365623 65.44271 39.428123 65.88021Q39.50625 66.31771 39.63125 66.645836Q39.771873 66.958336 39.959373 67.16146Q40.1625 67.364586 40.4125 67.458336Q40.6625 67.552086 40.975 67.552086Q41.38125 67.552086 41.678123 67.41146Q41.975 67.25521 42.178123 66.927086Q42.38125 66.59896 42.475 66.09896Q42.56875 65.583336 42.56875 64.864586Z" fill-rule="nonzero"/><path fill="#000000" d="M99.83312 441.88437Q99.83312 441.54062 99.72375 441.275Q99.63 440.99374 99.36437 440.775Q99.09875 440.55624 98.63 440.36874Q98.17687 440.16562 97.47375 439.9625Q96.73937 439.74374 96.14562 439.47812Q95.55187 439.19687 95.11437 438.85312Q94.6925 438.49374 94.47375 438.05624Q94.255 437.60312 94.255 437.00937Q94.255 436.43124 94.48937 435.94687Q94.72375 435.44687 95.17687 435.0875Q95.63 434.7125 96.23937 434.50937Q96.86437 434.30624 97.63 434.30624Q98.755 434.30624 99.53625 434.74374Q100.3175 435.16562 100.72375 435.85312Q101.14562 436.54062 101.14562 437.32187L99.83312 437.32187Q99.83312 436.75937 99.58312 436.32187Q99.34875 435.88437 98.86437 435.63437Q98.38 435.38437 97.63 435.38437Q96.92687 435.38437 96.45812 435.60312Q96.005 435.80624 95.78625 436.18124Q95.5675 436.54062 95.5675 437.00937Q95.5675 437.32187 95.6925 437.5875Q95.83312 437.8375 96.11437 438.05624Q96.39562 438.275 96.83312 438.4625Q97.28625 438.63437 97.89562 438.80624Q98.73937 439.04062 99.34875 439.3375Q99.97375 439.63437 100.36437 440.00937Q100.77062 440.36874 100.95812 440.8375Q101.16125 441.29062 101.16125 441.86874Q101.16125 442.47812 100.91125 442.97812Q100.67687 443.4625 100.20812 443.82187Q99.755 444.16562 99.11437 444.35312Q98.47375 444.54062 97.6925 444.54062Q97.005 444.54062 96.33312 444.35312Q95.67687 444.15 95.13 443.775Q94.58312 443.38437 94.255 442.82187Q93.92687 442.25937 93.92687 441.50937L95.23937 441.50937Q95.23937 442.025 95.4425 442.4Q95.64562 442.75937 95.98937 443.00937Q96.33312 443.24374 96.77062 443.35312Q97.20812 443.4625 97.6925 443.4625Q98.38 443.4625 98.86437 443.275Q99.34875 443.0875 99.58312 442.72812Q99.83312 442.36874 99.83312 441.88437ZM106.20812 440.49374L103.55187 440.49374L103.55187 439.41562L106.20812 439.41562Q106.97375 439.41562 107.45812 439.18124Q107.9425 438.93124 108.16125 438.49374Q108.38 438.05624 108.38 437.49374Q108.38 436.97812 108.16125 436.54062Q107.9425 436.0875 107.45812 435.80624Q106.97375 435.525 106.20812 435.525L103.84875 435.525L103.84875 444.4L102.53625 444.4L102.53625 434.44687L106.20812 434.44687Q107.33312 434.44687 108.11437 434.8375Q108.89562 435.22812 109.28625 435.91562Q109.6925 436.60312 109.6925 437.47812Q109.6925 438.43124 109.28625 439.11874Q108.89562 439.79062 108.11437 440.15Q107.33312 440.49374 106.20812 440.49374ZM111.53625 434.44687L114.83312 434.44687Q115.95812 434.44687 116.72375 434.79062Q117.505 435.13437 117.91125 435.80624Q118.3175 436.4625 118.3175 437.43124Q118.3175 438.11874 118.03625 438.68124Q117.77062 439.24374 117.23937 439.63437Q116.72375 440.025 116.02062 440.22812L115.64562 440.36874L112.55187 440.36874L112.53625 439.29062L114.86437 439.29062Q115.58312 439.29062 116.05187 439.04062Q116.52062 438.79062 116.755 438.36874Q117.005 437.94687 117.005 437.43124Q117.005 436.85312 116.77062 436.43124Q116.55187 435.99374 116.0675 435.75937Q115.58312 435.525 114.83312 435.525L112.84875 435.525L112.84875 444.4L111.53625 444.4L111.53625 434.44687ZM117.34875 444.4L114.92687 439.88437L116.30187 439.88437L118.755 444.32187L118.755 444.4L117.34875 444.4ZM121.95812 434.44687L121.95812 444.4L120.63 444.4L120.63 434.44687L121.95812 434.44687ZM132.1925 434.44687L132.1925 444.4L130.86438 444.4L125.84875 436.72812L125.84875 444.4L124.53625 444.4L124.53625 434.44687L125.84875 434.44687L130.88 442.15L130.88 434.44687L132.1925 434.44687ZM138.20813 434.44687L138.20813 444.4L136.91125 444.4L136.91125 434.44687L138.20813 434.44687ZM141.41125 434.44687L141.41125 435.525L133.72375 435.525L133.72375 434.44687L141.41125 434.44687ZM149.36438 434.38437L149.36438 444.4L148.09875 444.4L148.09875 435.97812L145.55188 436.9L145.55188 435.75937L149.16125 434.38437L149.36438 434.38437Z" fill-rule="nonzero"/><path fill="#000000" d="M244.39313 441.88437Q244.39313 441.54062 244.28375 441.275Q244.19 440.99374 243.92438 440.775Q243.65875 440.55624 243.19 440.36874Q242.73688 440.16562 242.03375 439.9625Q241.29938 439.74374 240.70563 439.47812Q240.11188 439.19687 239.67438 438.85312Q239.2525 438.49374 239.03375 438.05624Q238.815 437.60312 238.815 437.00937Q238.815 436.43124 239.04938 435.94687Q239.28375 435.44687 239.73688 435.0875Q240.19 434.7125 240.79938 434.50937Q241.42438 434.30624 242.19 434.30624Q243.315 434.30624 244.09625 434.74374Q244.8775 435.16562 245.28375 435.85312Q245.70563 436.54062 245.70563 437.32187L244.39313 437.32187Q244.39313 436.75937 244.14313 436.32187Q243.90875 435.88437 243.42438 435.63437Q242.94 435.38437 242.19 435.38437Q241.48688 435.38437 241.01813 435.60312Q240.565 435.80624 240.34625 436.18124Q240.1275 436.54062 240.1275 437.00937Q240.1275 437.32187 240.2525 437.5875Q240.39313 437.8375 240.67438 438.05624Q240.95563 438.275 241.39313 438.4625Q241.84625 438.63437 242.45563 438.80624Q243.29938 439.04062 243.90875 439.3375Q244.53375 439.63437 244.92438 440.00937Q245.33063 440.36874 245.51813 440.8375Q245.72125 441.29062 245.72125 441.86874Q245.72125 442.47812 245.47125 442.97812Q245.23688 443.4625 244.76813 443.82187Q244.315 444.16562 243.67438 444.35312Q243.03375 444.54062 242.2525 444.54062Q241.565 444.54062 240.89313 444.35312Q240.23688 444.15 239.69 443.775Q239.14313 443.38437 238.815 442.82187Q238.48688 442.25937 238.48688 441.50937L239.79938 441.50937Q239.79938 442.025 240.0025 442.4Q240.20563 442.75937 240.54938 443.00937Q240.89313 443.24374 241.33063 443.35312Q241.76813 443.4625 242.2525 443.4625Q242.94 443.4625 243.42438 443.275Q243.90875 443.0875 244.14313 442.72812Q244.39313 442.36874 244.39313 441.88437ZM250.76813 440.49374L248.11188 440.49374L248.11188 439.41562L250.76813 439.41562Q251.53375 439.41562 252.01813 439.18124Q252.5025 438.93124 252.72125 438.49374Q252.94 438.05624 252.94 437.49374Q252.94 436.97812 252.72125 436.54062Q252.5025 436.0875 252.01813 435.80624Q251.53375 435.525 250.76813 435.525L248.40875 435.525L248.40875 444.4L247.09625 444.4L247.09625 434.44687L250.76813 434.44687Q251.89313 434.44687 252.67438 434.8375Q253.45563 435.22812 253.84625 435.91562Q254.2525 436.60312 254.2525 437.47812Q254.2525 438.43124 253.84625 439.11874Q253.45563 439.79062 252.67438 440.15Q251.89313 440.49374 250.76813 440.49374ZM256.09625 434.44687L259.39313 434.44687Q260.51813 434.44687 261.28375 434.79062Q262.065 435.13437 262.47125 435.80624Q262.8775 436.4625 262.8775 437.43124Q262.8775 438.11874 262.59625 438.68124Q262.33063 439.24374 261.79938 439.63437Q261.28375 440.025 260.58063 440.22812L260.20563 440.36874L257.11188 440.36874L257.09625 439.29062L259.42438 439.29062Q260.14313 439.29062 260.61188 439.04062Q261.08063 438.79062 261.315 438.36874Q261.565 437.94687 261.565 437.43124Q261.565 436.85312 261.33063 436.43124Q261.11188 435.99374 260.6275 435.75937Q260.14313 435.525 259.39313 435.525L257.40875 435.525L257.40875 444.4L256.09625 444.4L256.09625 434.44687ZM261.90875 444.4L259.48688 439.88437L260.86188 439.88437L263.315 444.32187L263.315 444.4L261.90875 444.4ZM266.51813 434.44687L266.51813 444.4L265.19 444.4L265.19 434.44687L266.51813 434.44687ZM276.7525 434.44687L276.7525 444.4L275.42438 444.4L270.40875 436.72812L270.40875 444.4L269.09625 444.4L269.09625 434.44687L270.40875 434.44687L275.44 442.15L275.44 434.44687L276.7525 434.44687ZM282.76813 434.44687L282.76813 444.4L281.47125 444.4L281.47125 434.44687L282.76813 434.44687ZM285.97125 434.44687L285.97125 435.525L278.28375 435.525L278.28375 434.44687L285.97125 434.44687ZM296.28375 443.35312L296.28375 444.4L289.76813 444.4L289.76813 443.49374L293.03375 439.85312Q293.64313 439.19687 293.97125 438.72812Q294.29938 438.25937 294.42438 437.88437Q294.565 437.50937 294.565 437.11874Q294.565 436.63437 294.36188 436.22812Q294.15875 435.82187 293.76813 435.5875Q293.3775 435.35312 292.83063 435.35312Q292.17438 435.35312 291.72125 435.61874Q291.28375 435.86874 291.065 436.32187Q290.84625 436.775 290.84625 437.36874L289.58063 437.36874Q289.58063 436.525 289.94 435.8375Q290.315 435.13437 291.03375 434.72812Q291.76813 434.30624 292.83063 434.30624Q293.76813 434.30624 294.44 434.65Q295.11188 434.97812 295.47125 435.57187Q295.83063 436.16562 295.83063 436.9625Q295.83063 437.4 295.67438 437.85312Q295.53375 438.30624 295.26813 438.75937Q295.01813 439.19687 294.67438 439.63437Q294.34625 440.05624 293.97125 440.4625L291.29938 443.35312L296.28375 443.35312Z" fill-rule="nonzero"/><path fill="#000000" d="M388.95312 441.88437Q388.95312 441.54062 388.84375 441.275Q388.75 440.99374 388.48438 440.775Q388.21875 440.55624 387.75 440.36874Q387.29688 440.16562 386.59375 439.9625Q385.85938 439.74374 385.26562 439.47812Q384.67188 439.19687 384.23438 438.85312Q383.8125 438.49374 383.59375 438.05624Q383.375 437.60312 383.375 437.00937Q383.375 436.43124 383.60938 435.94687Q383.84375 435.44687 384.29688 435.0875Q384.75 434.7125 385.35938 434.50937Q385.98438 434.30624 386.75 434.30624Q387.875 434.30624 388.65625 434.74374Q389.4375 435.16562 389.84375 435.85312Q390.26562 436.54062 390.26562 437.32187L388.95312 437.32187Q388.95312 436.75937 388.70312 436.32187Q388.46875 435.88437 387.98438 435.63437Q387.5 435.38437 386.75 435.38437Q386.04688 435.38437 385.57812 435.60312Q385.125 435.80624 384.90625 436.18124Q384.6875 436.54062 384.6875 437.00937Q384.6875 437.32187 384.8125 437.5875Q384.95312 437.8375 385.23438 438.05624Q385.51562 438.275 385.95312 438.4625Q386.40625 438.63437 387.01562 438.80624Q387.85938 439.04062 388.46875 439.3375Q389.09375 439.63437 389.48438 440.00937Q389.89062 440.36874 390.07812 440.8375Q390.28125 441.29062 390.28125 441.86874Q390.28125 442.47812 390.03125 442.97812Q389.79688 443.4625 389.32812 443.82187Q388.875 444.16562 388.23438 444.35312Q387.59375 444.54062 386.8125 444.54062Q386.125 444.54062 385.45312 444.35312Q384.79688 444.15 384.25 443.775Q383.70312 443.38437 383.375 442.82187Q383.04688 442.25937 383.04688 441.50937L384.35938 441.50937Q384.35938 442.025 384.5625 442.4Q384.76562 442.75937 385.10938 443.00937Q385.45312 443.24374 385.89062 443.35312Q386.32812 443.4625 386.8125 443.4625Q387.5 443.4625 387.98438 443.275Q388.46875 443.0875 388.70312 442.72812Q388.95312 442.36874 388.95312 441.88437ZM395.32812 440.49374L392.67188 440.49374L392.67188 439.41562L395.32812 439.41562Q396.09375 439.41562 396.57812 439.18124Q397.0625 438.93124 397.28125 438.49374Q397.5 438.05624 397.5 437.49374Q397.5 436.97812 397.28125 436.54062Q397.0625 436.0875 396.57812 435.80624Q396.09375 435.525 395.32812 435.525L392.96875 435.525L392.96875 444.4L391.65625 444.4L391.65625 434.44687L395.32812 434.44687Q396.45312 434.44687 397.23438 434.8375Q398.01562 435.22812 398.40625 435.91562Q398.8125 436.60312 398.8125 437.47812Q398.8125 438.43124 398.40625 439.11874Q398.01562 439.79062 397.23438 440.15Q396.45312 440.49374 395.32812 440.49374ZM400.65625 434.44687L403.95312 434.44687Q405.07812 434.44687 405.84375 434.79062Q406.625 435.13437 407.03125 435.80624Q407.4375 436.4625 407.4375 437.43124Q407.4375 438.11874 407.15625 438.68124Q406.89062 439.24374 406.35938 439.63437Q405.84375 440.025 405.14062 440.22812L404.76562 440.36874L401.67188 440.36874L401.65625 439.29062L403.98438 439.29062Q404.70312 439.29062 405.17188 439.04062Q405.64062 438.79062 405.875 438.36874Q406.125 437.94687 406.125 437.43124Q406.125 436.85312 405.89062 436.43124Q405.67188 435.99374 405.1875 435.75937Q404.70312 435.525 403.95312 435.525L401.96875 435.525L401.96875 444.4L400.65625 444.4L400.65625 434.44687ZM406.46875 444.4L404.04688 439.88437L405.42188 439.88437L407.875 444.32187L407.875 444.4L406.46875 444.4ZM411.07812 434.44687L411.07812 444.4L409.75 444.4L409.75 434.44687L411.07812 434.44687ZM421.3125 434.44687L421.3125 444.4L419.98438 444.4L414.96875 436.72812L414.96875 444.4L413.65625 444.4L413.65625 434.44687L414.96875 434.44687L420.0 442.15L420.0 434.44687L421.3125 434.44687ZM427.32812 434.44687L427.32812 444.4L426.03125 444.4L426.03125 434.44687L427.32812 434.44687ZM430.53125 434.44687L430.53125 435.525L422.84375 435.525L422.84375 434.44687L430.53125 434.44687ZM436.17188 438.80624L437.07812 438.80624Q437.73438 438.80624 438.17188 438.5875Q438.60938 438.35312 438.8125 437.97812Q439.03125 437.5875 439.03125 437.10312Q439.03125 436.525 438.84375 436.13437Q438.65625 435.74374 438.26562 435.55624Q437.89062 435.35312 437.29688 435.35312Q436.76562 435.35312 436.35938 435.55624Q435.95312 435.75937 435.71875 436.15Q435.5 436.525 435.5 437.05624L434.23438 437.05624Q434.23438 436.29062 434.60938 435.66562Q435.0 435.04062 435.6875 434.68124Q436.39062 434.30624 437.29688 434.30624Q438.20312 434.30624 438.875 434.63437Q439.5625 434.94687 439.9375 435.57187Q440.3125 436.19687 440.3125 437.11874Q440.3125 437.50937 440.125 437.93124Q439.95312 438.35312 439.59375 438.72812Q439.23438 439.0875 438.64062 439.3375Q438.0625 439.57187 437.25 439.57187L436.17188 439.57187L436.17188 438.80624ZM436.17188 439.8375L436.17188 439.0875L437.25 439.0875Q438.20312 439.0875 438.82812 439.30624Q439.45312 439.525 439.8125 439.91562Q440.17188 440.29062 440.3125 440.74374Q440.45312 441.18124 440.45312 441.61874Q440.45312 442.32187 440.21875 442.86874Q439.98438 443.4 439.5625 443.775Q439.14062 444.15 438.5625 444.35312Q437.98438 444.54062 437.3125 444.54062Q436.65625 444.54062 436.07812 444.35312Q435.51562 444.16562 435.07812 443.82187Q434.64062 443.4625 434.39062 442.94687Q434.15625 442.43124 434.15625 441.775L435.42188 441.775Q435.42188 442.29062 435.64062 442.68124Q435.875 443.07187 436.29688 443.29062Q436.73438 443.49374 437.3125 443.49374Q437.89062 443.49374 438.3125 443.29062Q438.73438 443.0875 438.95312 442.68124Q439.1875 442.275 439.1875 441.65Q439.1875 441.025 438.92188 440.63437Q438.67188 440.22812 438.1875 440.04062Q437.71875 439.8375 437.07812 439.8375L436.17188 439.8375Z" fill-rule="nonzero"/><path fill="#000000" d="M533.5131 441.88437Q533.5131 441.54062 533.40375 441.275Q533.31 440.99374 533.0444 440.775Q532.77875 440.55624 532.31 440.36874Q531.8569 440.16562 531.15375 439.9625Q530.4194 439.74374 529.8256 439.47812Q529.2319 439.19687 528.7944 438.85312Q528.3725 438.49374 528.15375 438.05624Q527.935 437.60312 527.935 437.00937Q527.935 436.43124 528.1694 435.94687Q528.40375 435.44687 528.8569 435.0875Q529.31 434.7125 529.9194 434.50937Q530.5444 434.30624 531.31 434.30624Q532.435 434.30624 533.21625 434.74374Q533.9975 435.16562 534.40375 435.85312Q534.8256 436.54062 534.8256 437.32187L533.5131 437.32187Q533.5131 436.75937 533.2631 436.32187Q533.02875 435.88437 532.5444 435.63437Q532.06 435.38437 531.31 435.38437Q530.6069 435.38437 530.1381 435.60312Q529.685 435.80624 529.46625 436.18124Q529.2475 436.54062 529.2475 437.00937Q529.2475 437.32187 529.3725 437.5875Q529.5131 437.8375 529.7944 438.05624Q530.0756 438.275 530.5131 438.4625Q530.96625 438.63437 531.5756 438.80624Q532.4194 439.04062 533.02875 439.3375Q533.65375 439.63437 534.0444 440.00937Q534.4506 440.36874 534.6381 440.8375Q534.84125 441.29062 534.84125 441.86874Q534.84125 442.47812 534.59125 442.97812Q534.3569 443.4625 533.8881 443.82187Q533.435 444.16562 532.7944 444.35312Q532.15375 444.54062 531.3725 444.54062Q530.685 444.54062 530.0131 444.35312Q529.3569 444.15 528.81 443.775Q528.2631 443.38437 527.935 442.82187Q527.6069 442.25937 527.6069 441.50937L528.9194 441.50937Q528.9194 442.025 529.1225 442.4Q529.3256 442.75937 529.6694 443.00937Q530.0131 443.24374 530.4506 443.35312Q530.8881 443.4625 531.3725 443.4625Q532.06 443.4625 532.5444 443.275Q533.02875 443.0875 533.2631 442.72812Q533.5131 442.36874 533.5131 441.88437ZM539.8881 440.49374L537.2319 440.49374L537.2319 439.41562L539.8881 439.41562Q540.65375 439.41562 541.1381 439.18124Q541.6225 438.93124 541.84125 438.49374Q542.06 438.05624 542.06 437.49374Q542.06 436.97812 541.84125 436.54062Q541.6225 436.0875 541.1381 435.80624Q540.65375 435.525 539.8881 435.525L537.52875 435.525L537.52875 444.4L536.21625 444.4L536.21625 434.44687L539.8881 434.44687Q541.0131 434.44687 541.7944 434.8375Q542.5756 435.22812 542.96625 435.91562Q543.3725 436.60312 543.3725 437.47812Q543.3725 438.43124 542.96625 439.11874Q542.5756 439.79062 541.7944 440.15Q541.0131 440.49374 539.8881 440.49374ZM545.21625 434.44687L548.5131 434.44687Q549.6381 434.44687 550.40375 434.79062Q551.185 435.13437 551.59125 435.80624Q551.9975 436.4625 551.9975 437.43124Q551.9975 438.11874 551.71625 438.68124Q551.4506 439.24374 550.9194 439.63437Q550.40375 440.025 549.7006 440.22812L549.3256 440.36874L546.2319 440.36874L546.21625 439.29062L548.5444 439.29062Q549.2631 439.29062 549.7319 439.04062Q550.2006 438.79062 550.435 438.36874Q550.685 437.94687 550.685 437.43124Q550.685 436.85312 550.4506 436.43124Q550.2319 435.99374 549.7475 435.75937Q549.2631 435.525 548.5131 435.525L546.52875 435.525L546.52875 444.4L545.21625 444.4L545.21625 434.44687ZM551.02875 444.4L548.6069 439.88437L549.9819 439.88437L552.435 444.32187L552.435 444.4L551.02875 444.4ZM555.6381 434.44687L555.6381 444.4L554.31 444.4L554.31 434.44687L555.6381 434.44687ZM565.8725 434.44687L565.8725 444.4L564.5444 444.4L559.52875 436.72812L559.52875 444.4L558.21625 444.4L558.21625 434.44687L559.52875 434.44687L564.56 442.15L564.56 434.44687L565.8725 434.44687ZM571.8881 434.44687L571.8881 444.4L570.59125 444.4L570.59125 434.44687L571.8881 434.44687ZM575.09125 434.44687L575.09125 435.525L567.40375 435.525L567.40375 434.44687L575.09125 434.44687ZM585.6069 441.05624L585.6069 442.0875L578.4194 442.0875L578.4194 441.3375L582.8725 434.44687L583.9194 434.44687L582.81 436.44687L579.8569 441.05624L585.6069 441.05624ZM584.2319 434.44687L584.2319 444.4L582.96625 444.4L582.96625 434.44687L584.2319 434.44687Z" fill-rule="nonzero"/><path fill="#000000" d="M678.0731 441.88437Q678.0731 441.54062 677.96375 441.275Q677.87 440.99374 677.6044 440.775Q677.33875 440.55624 676.87 440.36874Q676.4169 440.16562 675.71375 439.9625Q674.9794 439.74374 674.3856 439.47812Q673.7919 439.19687 673.3544 438.85312Q672.9325 438.49374 672.71375 438.05624Q672.495 437.60312 672.495 437.00937Q672.495 436.43124 672.7294 435.94687Q672.96375 435.44687 673.4169 435.0875Q673.87 434.7125 674.4794 434.50937Q675.1044 434.30624 675.87 434.30624Q676.995 434.30624 677.77625 434.74374Q678.5575 435.16562 678.96375 435.85312Q679.3856 436.54062 679.3856 437.32187L678.0731 437.32187Q678.0731 436.75937 677.8231 436.32187Q677.58875 435.88437 677.1044 435.63437Q676.62 435.38437 675.87 435.38437Q675.1669 435.38437 674.6981 435.60312Q674.245 435.80624 674.02625 436.18124Q673.8075 436.54062 673.8075 437.00937Q673.8075 437.32187 673.9325 437.5875Q674.0731 437.8375 674.3544 438.05624Q674.6356 438.275 675.0731 438.4625Q675.52625 438.63437 676.1356 438.80624Q676.9794 439.04062 677.58875 439.3375Q678.21375 439.63437 678.6044 440.00937Q679.0106 440.36874 679.1981 440.8375Q679.40125 441.29062 679.40125 441.86874Q679.40125 442.47812 679.15125 442.97812Q678.9169 443.4625 678.4481 443.82187Q677.995 444.16562 677.3544 444.35312Q676.71375 444.54062 675.9325 444.54062Q675.245 444.54062 674.5731 444.35312Q673.9169 444.15 673.37 443.775Q672.8231 443.38437 672.495 442.82187Q672.1669 442.25937 672.1669 441.50937L673.4794 441.50937Q673.4794 442.025 673.6825 442.4Q673.8856 442.75937 674.2294 443.00937Q674.5731 443.24374 675.0106 443.35312Q675.4481 443.4625 675.9325 443.4625Q676.62 443.4625 677.1044 443.275Q677.58875 443.0875 677.8231 442.72812Q678.0731 442.36874 678.0731 441.88437ZM684.4481 440.49374L681.7919 440.49374L681.7919 439.41562L684.4481 439.41562Q685.21375 439.41562 685.6981 439.18124Q686.1825 438.93124 686.40125 438.49374Q686.62 438.05624 686.62 437.49374Q686.62 436.97812 686.40125 436.54062Q686.1825 436.0875 685.6981 435.80624Q685.21375 435.525 684.4481 435.525L682.08875 435.525L682.08875 444.4L680.77625 444.4L680.77625 434.44687L684.4481 434.44687Q685.5731 434.44687 686.3544 434.8375Q687.1356 435.22812 687.52625 435.91562Q687.9325 436.60312 687.9325 437.47812Q687.9325 438.43124 687.52625 439.11874Q687.1356 439.79062 686.3544 440.15Q685.5731 440.49374 684.4481 440.49374ZM689.77625 434.44687L693.0731 434.44687Q694.1981 434.44687 694.96375 434.79062Q695.745 435.13437 696.15125 435.80624Q696.5575 436.4625 696.5575 437.43124Q696.5575 438.11874 696.27625 438.68124Q696.0106 439.24374 695.4794 439.63437Q694.96375 440.025 694.2606 440.22812L693.8856 440.36874L690.7919 440.36874L690.77625 439.29062L693.1044 439.29062Q693.8231 439.29062 694.2919 439.04062Q694.7606 438.79062 694.995 438.36874Q695.245 437.94687 695.245 437.43124Q695.245 436.85312 695.0106 436.43124Q694.7919 435.99374 694.3075 435.75937Q693.8231 435.525 693.0731 435.525L691.08875 435.525L691.08875 444.4L689.77625 444.4L689.77625 434.44687ZM695.58875 444.4L693.1669 439.88437L694.5419 439.88437L696.995 444.32187L696.995 444.4L695.58875 444.4ZM700.1981 434.44687L700.1981 444.4L698.87 444.4L698.87 434.44687L700.1981 434.44687ZM710.4325 434.44687L710.4325 444.4L709.1044 444.4L704.08875 436.72812L704.08875 444.4L702.77625 444.4L702.77625 434.44687L704.08875 434.44687L709.12 442.15L709.12 434.44687L710.4325 434.44687ZM716.4481 434.44687L716.4481 444.4L715.15125 444.4L715.15125 434.44687L716.4481 434.44687ZM719.65125 434.44687L719.65125 435.525L711.96375 435.525L711.96375 434.44687L719.65125 434.44687ZM725.0419 439.66562L724.0419 439.4L724.5419 434.44687L729.6356 434.44687L729.6356 435.61874L725.6044 435.61874L725.3075 438.32187Q725.5731 438.16562 725.995 438.025Q726.4169 437.88437 726.96375 437.88437Q727.65125 437.88437 728.1981 438.13437Q728.745 438.36874 729.1356 438.80624Q729.52625 439.24374 729.7294 439.85312Q729.9325 440.4625 729.9325 441.22812Q729.9325 441.94687 729.7294 442.55624Q729.5419 443.15 729.15125 443.60312Q728.7606 444.04062 728.1669 444.29062Q727.58875 444.54062 726.77625 444.54062Q726.1825 444.54062 725.6356 444.36874Q725.1044 444.19687 724.6825 443.85312Q724.2606 443.50937 723.995 442.99374Q723.745 442.47812 723.6669 441.775L724.87 441.775Q724.96375 442.3375 725.1981 442.72812Q725.4481 443.10312 725.83875 443.30624Q726.245 443.49374 726.77625 443.49374Q727.2294 443.49374 727.5731 443.3375Q727.9325 443.18124 728.1669 442.88437Q728.4169 442.5875 728.5419 442.18124Q728.6669 441.75937 728.6669 441.24374Q728.6669 440.775 728.52625 440.36874Q728.40125 439.9625 728.1356 439.66562Q727.8856 439.36874 727.5106 439.19687Q727.15125 439.025 726.6669 439.025Q726.0419 439.025 725.71375 439.19687Q725.3856 439.36874 725.0419 439.66562Z" fill-rule="nonzero"/><path fill="#9900ff" d="M194.0 32.1C194.0 35.413708 191.3137 38.1 188.0 38.1C184.6863 38.1 182.0 35.413708 182.0 32.1C182.0 28.786291 184.6863 26.1 188.0 26.1C191.3137 26.1 194.0 28.786291 194.0 32.1Z" fill-rule="nonzero"/><path fill="#1a1a1a" d="M210.98438 26.646873L210.98438 36.6L208.9375 36.6L204.9375 29.928123L204.9375 36.6L202.89062 36.6L202.89062 26.646873L204.9375 26.646873L208.95312 33.31875L208.95312 26.646873L210.98438 26.646873ZM218.65625 33.303123L220.70312 33.303123Q220.64062 34.303123 220.14062 35.084373Q219.65625 35.865623 218.78125 36.303123Q217.92188 36.740623 216.70312 36.740623Q215.73438 36.740623 214.96875 36.4125Q214.21875 36.06875 213.6875 35.459373Q213.15625 34.834373 212.875 33.959373Q212.59375 33.06875 212.59375 31.974998L212.59375 31.287498Q212.59375 30.193748 212.875 29.303123Q213.17188 28.412498 213.70312 27.803123Q214.25 27.178123 215.01562 26.849998Q215.78125 26.506248 216.70312 26.506248Q217.95312 26.506248 218.8125 26.959373Q219.67188 27.412498 220.14062 28.209373Q220.625 28.990623 220.71875 30.006248L218.67188 30.006248Q218.625 29.396873 218.42188 28.974998Q218.21875 28.553123 217.79688 28.349998Q217.39062 28.131248 216.70312 28.131248Q216.20312 28.131248 215.8125 28.318748Q215.4375 28.506248 215.17188 28.896873Q214.90625 29.287498 214.78125 29.881248Q214.65625 30.474998 214.65625 31.271873L214.65625 31.974998Q214.65625 32.740623 214.76562 33.334373Q214.89062 33.9125 215.125 34.31875Q215.375 34.709373 215.76562 34.9125Q216.15625 35.115623 216.70312 35.115623Q217.34375 35.115623 217.75 34.9125Q218.17188 34.709373 218.39062 34.303123Q218.625 33.896873 218.65625 33.303123ZM221.89062 26.646873L225.59375 26.646873Q226.75 26.646873 227.5625 26.990623Q228.39062 27.334373 228.82812 28.006248Q229.28125 28.662498 229.28125 29.646873Q229.28125 30.443748 229.0 31.021873Q228.73438 31.584373 228.25 31.974998Q227.76562 32.35 227.10938 32.56875L226.45312 32.9125L223.23438 32.9125L223.21875 31.318748L225.60938 31.318748Q226.15625 31.318748 226.5 31.131248Q226.85938 30.928123 227.04688 30.599998Q227.23438 30.256248 227.23438 29.803123Q227.23438 29.318748 227.04688 28.974998Q226.875 28.615623 226.5 28.443748Q226.14062 28.256248 225.59375 28.256248L223.9375 28.256248L223.9375 36.6L221.89062 36.6L221.89062 26.646873ZM227.45312 36.6L225.1875 32.1625L227.34375 32.146873L229.64062 36.50625L229.64062 36.6L227.45312 36.6Z" fill-rule="nonzero"/><path stroke="#ff0000" stroke-width="4.0" stroke-linecap="butt" stroke-dasharray="13.0,9.0" d="M246.0 32.1L281.0 32.1" fill-rule="nonzero"/><path fill="#1a1a1a" d="M296.28125 35.00625L296.28125 36.6L291.28125 36.6L291.28125 35.00625L296.28125 35.00625ZM291.9375 26.646873L291.9375 36.6L289.89062 36.6L289.89062 26.646873L291.9375 26.646873ZM299.84375 29.209373L299.84375 36.6L297.875 36.6L297.875 29.209373L299.84375 29.209373ZM297.75 27.271873Q297.75 26.849998 298.04688 26.568748Q298.34375 26.287498 298.85938 26.287498Q299.35938 26.287498 299.65625 26.568748Q299.95312 26.849998 299.95312 27.271873Q299.95312 27.709373 299.65625 27.990623Q299.35938 28.271873 298.85938 28.271873Q298.34375 28.271873 298.04688 27.990623Q297.75 27.709373 297.75 27.271873ZM303.73438 30.740623L303.73438 36.6L301.76562 36.6L301.76562 29.209373L303.60938 29.209373L303.73438 30.740623ZM303.45312 32.646873L302.92188 32.646873Q302.92188 31.865623 303.10938 31.224998Q303.29688 30.568748 303.65625 30.084373Q304.01562 29.599998 304.5625 29.334373Q305.10938 29.068748 305.8125 29.068748Q306.3125 29.068748 306.71875 29.224998Q307.125 29.365623 307.42188 29.678123Q307.71875 29.974998 307.875 30.474998Q308.04688 30.974998 308.04688 31.662498L308.04688 36.6L306.07812 36.6L306.07812 31.881248Q306.07812 31.381248 305.9375 31.115623Q305.8125 30.834373 305.5625 30.724998Q305.3125 30.615623 304.95312 30.615623Q304.57812 30.615623 304.29688 30.771873Q304.01562 30.928123 303.82812 31.209373Q303.64062 31.474998 303.54688 31.849998Q303.45312 32.225 303.45312 32.646873ZM307.85938 32.4125L307.15625 32.50625Q307.15625 31.787498 307.32812 31.162498Q307.51562 30.537498 307.875 30.068748Q308.23438 29.599998 308.76562 29.334373Q309.3125 29.068748 310.0 29.068748Q310.53125 29.068748 310.96875 29.224998Q311.40625 29.381248 311.71875 29.709373Q312.03125 30.037498 312.20312 30.568748Q312.375 31.099998 312.375 31.881248L312.375 36.6L310.39062 36.6L310.39062 31.881248Q310.39062 31.365623 310.25 31.099998Q310.125 30.818748 309.875 30.724998Q309.625 30.615623 309.28125 30.615623Q308.9375 30.615623 308.65625 30.756248Q308.39062 30.896873 308.21875 31.146873Q308.04688 31.381248 307.95312 31.709373Q307.85938 32.0375 307.85938 32.4125ZM315.84375 29.209373L315.84375 36.6L313.875 36.6L313.875 29.209373L315.84375 29.209373ZM313.75 27.271873Q313.75 26.849998 314.04688 26.568748Q314.34375 26.287498 314.85938 26.287498Q315.35938 26.287498 315.65625 26.568748Q315.95312 26.849998 315.95312 27.271873Q315.95312 27.709373 315.65625 27.990623Q315.35938 28.271873 314.85938 28.271873Q314.34375 28.271873 314.04688 27.990623Q313.75 27.709373 313.75 27.271873ZM321.39062 29.209373L321.39062 30.599998L317.07812 30.599998L317.07812 29.209373L321.39062 29.209373ZM318.15625 27.381248L320.125 27.381248L320.125 34.365623Q320.125 34.69375 320.20312 34.865623Q320.28125 35.0375 320.45312 35.1Q320.625 35.1625 320.89062 35.1625Q321.07812 35.1625 321.21875 35.146873Q321.375 35.13125 321.46875 35.115623L321.48438 36.553123Q321.21875 36.646873 320.92188 36.69375Q320.64062 36.740623 320.28125 36.740623Q319.625 36.740623 319.14062 36.521873Q318.67188 36.303123 318.40625 35.834373Q318.15625 35.35 318.15625 34.56875L318.15625 27.381248ZM326.17188 36.740623Q325.3125 36.740623 324.625 36.459373Q323.9375 36.178123 323.45312 35.69375Q322.98438 35.19375 322.73438 34.553123Q322.48438 33.896873 322.48438 33.146873L322.48438 32.88125Q322.48438 32.0375 322.71875 31.349998Q322.96875 30.646873 323.40625 30.131248Q323.85938 29.615623 324.5 29.349998Q325.14062 29.068748 325.95312 29.068748Q326.73438 29.068748 327.34375 29.334373Q327.95312 29.584373 328.35938 30.068748Q328.78125 30.537498 328.98438 31.209373Q329.20312 31.881248 329.20312 32.69375L329.20312 33.50625L323.32812 33.50625L323.32812 32.19375L327.26562 32.19375L327.26562 32.053123Q327.26562 31.631248 327.125 31.318748Q326.98438 30.990623 326.6875 30.803123Q326.39062 30.599998 325.9375 30.599998Q325.54688 30.599998 325.26562 30.771873Q324.98438 30.943748 324.79688 31.256248Q324.625 31.568748 324.54688 31.974998Q324.46875 32.38125 324.46875 32.88125L324.46875 33.146873Q324.46875 33.6 324.59375 33.975Q324.71875 34.35 324.95312 34.63125Q325.1875 34.896873 325.51562 35.053123Q325.85938 35.19375 326.29688 35.19375Q326.82812 35.19375 327.28125 34.990623Q327.75 34.7875 328.07812 34.35L329.04688 35.396873Q328.8125 35.725 328.40625 36.0375Q328.01562 36.35 327.45312 36.553123Q326.89062 36.740623 326.17188 36.740623ZM337.76562 34.928123L337.76562 31.631248Q337.76562 31.287498 337.64062 31.037498Q337.53125 30.771873 337.28125 30.631248Q337.04688 30.474998 336.65625 30.474998Q336.32812 30.474998 336.07812 30.599998Q335.84375 30.709373 335.71875 30.928123Q335.59375 31.131248 335.59375 31.396873L333.625 31.396873Q333.625 30.928123 333.84375 30.506248Q334.0625 30.084373 334.46875 29.756248Q334.89062 29.428123 335.46875 29.256248Q336.04688 29.068748 336.76562 29.068748Q337.625 29.068748 338.29688 29.365623Q338.96875 29.646873 339.34375 30.224998Q339.73438 30.787498 339.73438 31.646873L339.73438 34.81875Q339.73438 35.428123 339.8125 35.81875Q339.89062 36.19375 340.03125 36.490623L340.03125 36.6L338.04688 36.6Q337.90625 36.303123 337.82812 35.85Q337.76562 35.396873 337.76562 34.928123ZM338.01562 32.1L338.03125 33.209373L336.9375 33.209373Q336.54688 33.209373 336.25 33.303123Q335.96875 33.38125 335.78125 33.553123Q335.59375 33.709373 335.5 33.928123Q335.42188 34.13125 335.42188 34.38125Q335.42188 34.63125 335.53125 34.834373Q335.65625 35.0375 335.875 35.1625Q336.09375 35.271873 336.39062 35.271873Q336.82812 35.271873 337.15625 35.1Q337.48438 34.9125 337.67188 34.6625Q337.85938 34.396873 337.85938 34.1625L338.375 34.990623Q338.26562 35.271873 338.07812 35.584373Q337.89062 35.88125 337.60938 36.146873Q337.32812 36.396873 336.92188 36.56875Q336.51562 36.740623 335.95312 36.740623Q335.25 36.740623 334.67188 36.459373Q334.10938 36.1625 333.78125 35.6625Q333.45312 35.1625 333.45312 34.521873Q333.45312 33.94375 333.67188 33.490623Q333.89062 33.0375 334.3125 32.725Q334.75 32.4125 335.39062 32.25625Q336.03125 32.1 336.875 32.1L338.01562 32.1ZM344.82812 35.19375Q345.1875 35.19375 345.46875 35.053123Q345.75 34.9125 345.90625 34.6625Q346.0625 34.4125 346.07812 34.053123L347.92188 34.053123Q347.92188 34.834373 347.5 35.44375Q347.09375 36.053123 346.40625 36.396873Q345.71875 36.740623 344.85938 36.740623Q344.0 36.740623 343.35938 36.459373Q342.71875 36.1625 342.29688 35.6625Q341.875 35.146873 341.65625 34.475Q341.45312 33.7875 341.45312 33.00625L341.45312 32.803123Q341.45312 32.021873 341.65625 31.349998Q341.875 30.662498 342.29688 30.162498Q342.71875 29.646873 343.35938 29.365623Q344.0 29.068748 344.84375 29.068748Q345.76562 29.068748 346.4375 29.412498Q347.125 29.756248 347.51562 30.412498Q347.92188 31.053123 347.92188 31.943748L346.07812 31.943748Q346.0625 31.568748 345.90625 31.271873Q345.76562 30.959373 345.48438 30.787498Q345.21875 30.599998 344.8125 30.599998Q344.39062 30.599998 344.10938 30.787498Q343.84375 30.959373 343.6875 31.271873Q343.53125 31.584373 343.46875 31.990623Q343.42188 32.38125 343.42188 32.803123L343.42188 33.00625Q343.42188 33.428123 343.46875 33.834373Q343.53125 34.225 343.6875 34.5375Q343.84375 34.85 344.10938 35.021873Q344.39062 35.19375 344.82812 35.19375ZM351.82812 35.19375Q352.1875 35.19375 352.46875 35.053123Q352.75 34.9125 352.90625 34.6625Q353.0625 34.4125 353.07812 34.053123L354.92188 34.053123Q354.92188 34.834373 354.5 35.44375Q354.09375 36.053123 353.40625 36.396873Q352.71875 36.740623 351.85938 36.740623Q351.0 36.740623 350.35938 36.459373Q349.71875 36.1625 349.29688 35.6625Q348.875 35.146873 348.65625 34.475Q348.45312 33.7875 348.45312 33.00625L348.45312 32.803123Q348.45312 32.021873 348.65625 31.349998Q348.875 30.662498 349.29688 30.162498Q349.71875 29.646873 350.35938 29.365623Q351.0 29.068748 351.84375 29.068748Q352.76562 29.068748 353.4375 29.412498Q354.125 29.756248 354.51562 30.412498Q354.92188 31.053123 354.92188 31.943748L353.07812 31.943748Q353.0625 31.568748 352.90625 31.271873Q352.76562 30.959373 352.48438 30.787498Q352.21875 30.599998 351.8125 30.599998Q351.39062 30.599998 351.10938 30.787498Q350.84375 30.959373 350.6875 31.271873Q350.53125 31.584373 350.46875 31.990623Q350.42188 32.38125 350.42188 32.803123L350.42188 33.00625Q350.42188 33.428123 350.46875 33.834373Q350.53125 34.225 350.6875 34.5375Q350.84375 34.85 351.10938 35.021873Q351.39062 35.19375 351.82812 35.19375ZM359.17188 36.740623Q358.3125 36.740623 357.625 36.459373Q356.9375 36.178123 356.45312 35.69375Q355.98438 35.19375 355.73438 34.553123Q355.48438 33.896873 355.48438 33.146873L355.48438 32.88125Q355.48438 32.0375 355.71875 31.349998Q355.96875 30.646873 356.40625 30.131248Q356.85938 29.615623 357.5 29.349998Q358.14062 29.068748 358.95312 29.068748Q359.73438 29.068748 360.34375 29.334373Q360.95312 29.584373 361.35938 30.068748Q361.78125 30.537498 361.98438 31.209373Q362.20312 31.881248 362.20312 32.69375L362.20312 33.50625L356.32812 33.50625L356.32812 32.19375L360.26562 32.19375L360.26562 32.053123Q360.26562 31.631248 360.125 31.318748Q359.98438 30.990623 359.6875 30.803123Q359.39062 30.599998 358.9375 30.599998Q358.54688 30.599998 358.26562 30.771873Q357.98438 30.943748 357.79688 31.256248Q357.625 31.568748 357.54688 31.974998Q357.46875 32.38125 357.46875 32.88125L357.46875 33.146873Q357.46875 33.6 357.59375 33.975Q357.71875 34.35 357.95312 34.63125Q358.1875 34.896873 358.51562 35.053123Q358.85938 35.19375 359.29688 35.19375Q359.82812 35.19375 360.28125 34.990623Q360.75 34.7875 361.07812 34.35L362.04688 35.396873Q361.8125 35.725 361.40625 36.0375Q361.01562 36.35 360.45312 36.553123Q359.89062 36.740623 359.17188 36.740623ZM367.39062 29.209373L367.39062 30.599998L363.07812 30.599998L363.07812 29.209373L367.39062 29.209373ZM364.15625 27.381248L366.125 27.381248L366.125 34.365623Q366.125 34.69375 366.20312 34.865623Q366.28125 35.0375 366.45312 35.1Q366.625 35.1625 366.89062 35.1625Q367.07812 35.1625 367.21875 35.146873Q367.375 35.13125 367.46875 35.115623L367.48438 36.553123Q367.21875 36.646873 366.92188 36.69375Q366.64062 36.740623 366.28125 36.740623Q365.625 36.740623 365.14062 36.521873Q364.67188 36.303123 364.40625 35.834373Q364.15625 35.35 364.15625 34.56875L364.15625 27.381248ZM372.39062 29.209373L372.39062 30.599998L368.07812 30.599998L368.07812 29.209373L372.39062 29.209373ZM369.15625 27.381248L371.125 27.381248L371.125 34.365623Q371.125 34.69375 371.20312 34.865623Q371.28125 35.0375 371.45312 35.1Q371.625 35.1625 371.89062 35.1625Q372.07812 35.1625 372.21875 35.146873Q372.375 35.13125 372.46875 35.115623L372.48438 36.553123Q372.21875 36.646873 371.92188 36.69375Q371.64062 36.740623 371.28125 36.740623Q370.625 36.740623 370.14062 36.521873Q369.67188 36.303123 369.40625 35.834373Q369.15625 35.35 369.15625 34.56875L369.15625 27.381248ZM377.76562 34.928123L377.76562 31.631248Q377.76562 31.287498 377.64062 31.037498Q377.53125 30.771873 377.28125 30.631248Q377.04688 30.474998 376.65625 30.474998Q376.32812 30.474998 376.07812 30.599998Q375.84375 30.709373 375.71875 30.928123Q375.59375 31.131248 375.59375 31.396873L373.625 31.396873Q373.625 30.928123 373.84375 30.506248Q374.0625 30.084373 374.46875 29.756248Q374.89062 29.428123 375.46875 29.256248Q376.04688 29.068748 376.76562 29.068748Q377.625 29.068748 378.29688 29.365623Q378.96875 29.646873 379.34375 30.224998Q379.73438 30.787498 379.73438 31.646873L379.73438 34.81875Q379.73438 35.428123 379.8125 35.81875Q379.89062 36.19375 380.03125 36.490623L380.03125 36.6L378.04688 36.6Q377.90625 36.303123 377.82812 35.85Q377.76562 35.396873 377.76562 34.928123ZM378.01562 32.1L378.03125 33.209373L376.9375 33.209373Q376.54688 33.209373 376.25 33.303123Q375.96875 33.38125 375.78125 33.553123Q375.59375 33.709373 375.5 33.928123Q375.42188 34.13125 375.42188 34.38125Q375.42188 34.63125 375.53125 34.834373Q375.65625 35.0375 375.875 35.1625Q376.09375 35.271873 376.39062 35.271873Q376.82812 35.271873 377.15625 35.1Q377.48438 34.9125 377.67188 34.6625Q377.85938 34.396873 377.85938 34.1625L378.375 34.990623Q378.26562 35.271873 378.07812 35.584373Q377.89062 35.88125 377.60938 36.146873Q377.32812 36.396873 376.92188 36.56875Q376.51562 36.740623 375.95312 36.740623Q375.25 36.740623 374.67188 36.459373Q374.10938 36.1625 373.78125 35.6625Q373.45312 35.1625 373.45312 34.521873Q373.45312 33.94375 373.67188 33.490623Q373.89062 33.0375 374.3125 32.725Q374.75 32.4125 375.39062 32.25625Q376.03125 32.1 376.875 32.1L378.01562 32.1ZM381.76562 26.099998L383.73438 26.099998L383.73438 34.896873L383.53125 36.6L381.76562 36.6L381.76562 26.099998ZM388.42188 32.81875L388.42188 32.975Q388.42188 33.803123 388.23438 34.490623Q388.0625 35.178123 387.70312 35.678123Q387.34375 36.178123 386.79688 36.459373Q386.26562 36.740623 385.54688 36.740623Q384.875 36.740623 384.375 36.475Q383.875 36.19375 383.53125 35.69375Q383.20312 35.19375 383.0 34.521873Q382.79688 33.85 382.70312 33.053123L382.70312 32.740623Q382.79688 31.943748 383.0 31.287498Q383.20312 30.615623 383.53125 30.115623Q383.875 29.615623 384.35938 29.349998Q384.85938 29.068748 385.53125 29.068748Q386.26562 29.068748 386.79688 29.349998Q387.34375 29.615623 387.70312 30.131248Q388.0625 30.631248 388.23438 31.318748Q388.42188 32.00625 388.42188 32.81875ZM386.45312 32.975L386.45312 32.81875Q386.45312 32.38125 386.375 31.974998Q386.3125 31.568748 386.15625 31.271873Q386.0 30.959373 385.73438 30.787498Q385.46875 30.615623 385.04688 30.615623Q384.64062 30.615623 384.35938 30.756248Q384.07812 30.881248 383.89062 31.131248Q383.71875 31.381248 383.625 31.724998Q383.53125 32.053123 383.51562 32.459373L383.51562 33.35Q383.53125 33.896873 383.6875 34.31875Q383.85938 34.725 384.1875 34.959373Q384.51562 35.19375 385.04688 35.19375Q385.46875 35.19375 385.73438 35.0375Q386.01562 34.865623 386.17188 34.56875Q386.32812 34.25625 386.39062 33.85Q386.45312 33.44375 386.45312 32.975ZM391.84375 29.209373L391.84375 36.6L389.875 36.6L389.875 29.209373L391.84375 29.209373ZM389.75 27.271873Q389.75 26.849998 390.04688 26.568748Q390.34375 26.287498 390.85938 26.287498Q391.35938 26.287498 391.65625 26.568748Q391.95312 26.849998 391.95312 27.271873Q391.95312 27.709373 391.65625 27.990623Q391.35938 28.271873 390.85938 28.271873Q390.34375 28.271873 390.04688 27.990623Q389.75 27.709373 389.75 27.271873ZM395.84375 26.099998L395.84375 36.6L393.875 36.6L393.875 26.099998L395.84375 26.099998ZM401.17188 36.740623Q400.3125 36.740623 399.625 36.459373Q398.9375 36.178123 398.45312 35.69375Q397.98438 35.19375 397.73438 34.553123Q397.48438 33.896873 397.48438 33.146873L397.48438 32.88125Q397.48438 32.0375 397.71875 31.349998Q397.96875 30.646873 398.40625 30.131248Q398.85938 29.615623 399.5 29.349998Q400.14062 29.068748 400.95312 29.068748Q401.73438 29.068748 402.34375 29.334373Q402.95312 29.584373 403.35938 30.068748Q403.78125 30.537498 403.98438 31.209373Q404.20312 31.881248 404.20312 32.69375L404.20312 33.50625L398.32812 33.50625L398.32812 32.19375L402.26562 32.19375L402.26562 32.053123Q402.26562 31.631248 402.125 31.318748Q401.98438 30.990623 401.6875 30.803123Q401.39062 30.599998 400.9375 30.599998Q400.54688 30.599998 400.26562 30.771873Q399.98438 30.943748 399.79688 31.256248Q399.625 31.568748 399.54688 31.974998Q399.46875 32.38125 399.46875 32.88125L399.46875 33.146873Q399.46875 33.6 399.59375 33.975Q399.71875 34.35 399.95312 34.63125Q400.1875 34.896873 400.51562 35.053123Q400.85938 35.19375 401.29688 35.19375Q401.82812 35.19375 402.28125 34.990623Q402.75 34.7875 403.07812 34.35L404.04688 35.396873Q403.8125 35.725 403.40625 36.0375Q403.01562 36.35 402.45312 36.553123Q401.89062 36.740623 401.17188 36.740623ZM412.76562 34.553123Q412.76562 34.35 412.64062 34.178123Q412.51562 34.00625 412.1875 33.865623Q411.85938 33.709373 411.23438 33.584373Q410.67188 33.459373 410.1875 33.271873Q409.70312 33.084373 409.34375 32.81875Q409.0 32.553123 408.79688 32.19375Q408.60938 31.818748 408.60938 31.349998Q408.60938 30.881248 408.8125 30.474998Q409.01562 30.068748 409.39062 29.756248Q409.76562 29.428123 410.3125 29.256248Q410.875 29.068748 411.5625 29.068748Q412.53125 29.068748 413.21875 29.381248Q413.90625 29.678123 414.28125 30.224998Q414.65625 30.756248 414.65625 31.443748L412.6875 31.443748Q412.6875 31.146873 412.5625 30.928123Q412.45312 30.693748 412.20312 30.568748Q411.95312 30.428123 411.5625 30.428123Q411.23438 30.428123 410.98438 30.537498Q410.75 30.646873 410.625 30.834373Q410.5 31.021873 410.5 31.256248Q410.5 31.428123 410.5625 31.568748Q410.64062 31.693748 410.79688 31.803123Q410.96875 31.912498 411.23438 32.00625Q411.5 32.1 411.89062 32.1625Q412.6875 32.334373 413.3125 32.6Q413.9375 32.865623 414.29688 33.31875Q414.67188 33.75625 414.67188 34.475Q414.67188 34.975 414.45312 35.38125Q414.23438 35.7875 413.82812 36.1Q413.42188 36.396873 412.84375 36.56875Q412.28125 36.740623 411.5625 36.740623Q410.53125 36.740623 409.8125 36.365623Q409.10938 35.990623 408.73438 35.428123Q408.375 34.85 408.375 34.25625L410.25 34.25625Q410.25 34.6625 410.4375 34.9125Q410.64062 35.146873 410.9375 35.25625Q411.25 35.365623 411.60938 35.365623Q412.0 35.365623 412.25 35.271873Q412.5 35.1625 412.625 34.975Q412.76562 34.7875 412.76562 34.553123ZM420.14062 34.834373L420.14062 29.209373L422.10938 29.209373L422.10938 36.6L420.25 36.6L420.14062 34.834373ZM420.35938 33.31875L420.9375 33.303123Q420.9375 34.0375 420.76562 34.678123Q420.59375 35.303123 420.25 35.771873Q419.92188 36.225 419.39062 36.490623Q418.875 36.740623 418.17188 36.740623Q417.625 36.740623 417.17188 36.584373Q416.71875 36.428123 416.39062 36.1Q416.07812 35.771873 415.89062 35.25625Q415.71875 34.725 415.71875 33.975L415.71875 29.209373L417.6875 29.209373L417.6875 33.990623Q417.6875 34.31875 417.76562 34.553123Q417.84375 34.771873 417.98438 34.928123Q418.125 35.06875 418.3125 35.13125Q418.51562 35.178123 418.75 35.178123Q419.35938 35.178123 419.70312 34.94375Q420.0625 34.69375 420.20312 34.271873Q420.35938 33.834373 420.35938 33.31875ZM425.73438 30.631248L425.73438 39.44375L423.76562 39.44375L423.76562 29.209373L425.59375 29.209373L425.73438 30.631248ZM430.42188 32.81875L430.42188 32.959373Q430.42188 33.771873 430.23438 34.459373Q430.04688 35.146873 429.67188 35.6625Q429.3125 36.1625 428.78125 36.459373Q428.25 36.740623 427.54688 36.740623Q426.875 36.740623 426.375 36.475Q425.875 36.19375 425.53125 35.69375Q425.1875 35.19375 424.98438 34.5375Q424.78125 33.88125 424.67188 33.13125L424.67188 32.75625Q424.78125 31.943748 424.98438 31.271873Q425.1875 30.599998 425.53125 30.115623Q425.875 29.615623 426.35938 29.349998Q426.85938 29.068748 427.53125 29.068748Q428.23438 29.068748 428.76562 29.334373Q429.3125 29.599998 429.67188 30.099998Q430.04688 30.599998 430.23438 31.287498Q430.42188 31.974998 430.42188 32.81875ZM428.45312 32.959373L428.45312 32.81875Q428.45312 32.35 428.35938 31.959373Q428.28125 31.553123 428.10938 31.256248Q427.95312 30.943748 427.67188 30.787498Q427.40625 30.615623 427.03125 30.615623Q426.625 30.615623 426.34375 30.740623Q426.0625 30.865623 425.875 31.115623Q425.70312 31.365623 425.60938 31.709373Q425.51562 32.053123 425.5 32.475L425.5 33.428123Q425.53125 33.928123 425.6875 34.334373Q425.84375 34.740623 426.17188 34.975Q426.5 35.19375 427.04688 35.19375Q427.4375 35.19375 427.70312 35.021873Q427.96875 34.85 428.125 34.553123Q428.29688 34.240623 428.375 33.834373Q428.45312 33.428123 428.45312 32.959373ZM435.17188 36.740623Q434.3125 36.740623 433.625 36.459373Q432.9375 36.178123 432.45312 35.69375Q431.98438 35.19375 431.73438 34.553123Q431.48438 33.896873 431.48438 33.146873L431.48438 32.88125Q431.48438 32.0375 431.71875 31.349998Q431.96875 30.646873 432.40625 30.131248Q432.85938 29.615623 433.5 29.349998Q434.14062 29.068748 434.95312 29.068748Q435.73438 29.068748 436.34375 29.334373Q436.95312 29.584373 437.35938 30.068748Q437.78125 30.537498 437.98438 31.209373Q438.20312 31.881248 438.20312 32.69375L438.20312 33.50625L432.32812 33.50625L432.32812 32.19375L436.26562 32.19375L436.26562 32.053123Q436.26562 31.631248 436.125 31.318748Q435.98438 30.990623 435.6875 30.803123Q435.39062 30.599998 434.9375 30.599998Q434.54688 30.599998 434.26562 30.771873Q433.98438 30.943748 433.79688 31.256248Q433.625 31.568748 433.54688 31.974998Q433.46875 32.38125 433.46875 32.88125L433.46875 33.146873Q433.46875 33.6 433.59375 33.975Q433.71875 34.35 433.95312 34.63125Q434.1875 34.896873 434.51562 35.053123Q434.85938 35.19375 435.29688 35.19375Q435.82812 35.19375 436.28125 34.990623Q436.75 34.7875 437.07812 34.35L438.04688 35.396873Q437.8125 35.725 437.40625 36.0375Q437.01562 36.35 436.45312 36.553123Q435.89062 36.740623 435.17188 36.740623ZM441.73438 30.818748L441.73438 36.6L439.76562 36.6L439.76562 29.209373L441.625 29.209373L441.73438 30.818748ZM443.96875 29.162498L443.92188 30.974998Q443.78125 30.959373 443.57812 30.943748Q443.375 30.928123 443.21875 30.928123Q442.79688 30.928123 442.48438 31.037498Q442.1875 31.131248 441.98438 31.334373Q441.79688 31.537498 441.6875 31.834373Q441.59375 32.13125 441.57812 32.50625L441.1875 32.38125Q441.1875 31.678123 441.32812 31.068748Q441.46875 30.459373 441.73438 30.006248Q442.01562 29.553123 442.42188 29.318748Q442.82812 29.068748 443.34375 29.068748Q443.51562 29.068748 443.6875 29.099998Q443.85938 29.115623 443.96875 29.162498ZM446.84375 29.209373L446.84375 36.6L444.875 36.6L444.875 29.209373L446.84375 29.209373ZM444.75 27.271873Q444.75 26.849998 445.04688 26.568748Q445.34375 26.287498 445.85938 26.287498Q446.35938 26.287498 446.65625 26.568748Q446.95312 26.849998 446.95312 27.271873Q446.95312 27.709373 446.65625 27.990623Q446.35938 28.271873 445.85938 28.271873Q445.34375 28.271873 445.04688 27.990623Q444.75 27.709373 444.75 27.271873ZM448.45312 32.975L448.45312 32.834373Q448.45312 32.021873 448.6875 31.334373Q448.92188 30.646873 449.35938 30.146873Q449.8125 29.631248 450.45312 29.349998Q451.10938 29.068748 451.9375 29.068748Q452.78125 29.068748 453.4375 29.349998Q454.09375 29.631248 454.54688 30.146873Q455.0 30.646873 455.21875 31.334373Q455.45312 32.021873 455.45312 32.834373L455.45312 32.975Q455.45312 33.7875 455.21875 34.475Q455.0 35.1625 454.54688 35.678123Q454.09375 36.178123 453.4375 36.459373Q452.79688 36.740623 451.95312 36.740623Q451.125 36.740623 450.46875 36.459373Q449.8125 36.178123 449.35938 35.678123Q448.92188 35.1625 448.6875 34.475Q448.45312 33.7875 448.45312 32.975ZM450.42188 32.834373L450.42188 32.975Q450.42188 33.44375 450.5 33.85Q450.57812 34.240623 450.76562 34.553123Q450.95312 34.85 451.23438 35.021873Q451.53125 35.19375 451.95312 35.19375Q452.375 35.19375 452.65625 35.021873Q452.95312 34.85 453.125 34.553123Q453.3125 34.240623 453.39062 33.85Q453.48438 33.44375 453.48438 32.975L453.48438 32.834373Q453.48438 32.38125 453.39062 31.990623Q453.3125 31.584373 453.125 31.271873Q452.95312 30.959373 452.65625 30.787498Q452.35938 30.599998 451.9375 30.599998Q451.53125 30.599998 451.23438 30.787498Q450.95312 30.959373 450.76562 31.271873Q450.57812 31.584373 450.5 31.990623Q450.42188 32.38125 450.42188 32.834373ZM458.73438 30.818748L458.73438 36.6L456.76562 36.6L456.76562 29.209373L458.625 29.209373L458.73438 30.818748ZM460.96875 29.162498L460.92188 30.974998Q460.78125 30.959373 460.57812 30.943748Q460.375 30.928123 460.21875 30.928123Q459.79688 30.928123 459.48438 31.037498Q459.1875 31.131248 458.98438 31.334373Q458.79688 31.537498 458.6875 31.834373Q458.59375 32.13125 458.57812 32.50625L458.1875 32.38125Q458.1875 31.678123 458.32812 31.068748Q458.46875 30.459373 458.73438 30.006248Q459.01562 29.553123 459.42188 29.318748Q459.82812 29.068748 460.34375 29.068748Q460.51562 29.068748 460.6875 29.099998Q460.85938 29.115623 460.96875 29.162498ZM465.17188 36.740623Q464.3125 36.740623 463.625 36.459373Q462.9375 36.178123 462.45312 35.69375Q461.98438 35.19375 461.73438 34.553123Q461.48438 33.896873 461.48438 33.146873L461.48438 32.88125Q461.48438 32.0375 461.71875 31.349998Q461.96875 30.646873 462.40625 30.131248Q462.85938 29.615623 463.5 29.349998Q464.14062 29.068748 464.95312 29.068748Q465.73438 29.068748 466.34375 29.334373Q466.95312 29.584373 467.35938 30.068748Q467.78125 30.537498 467.98438 31.209373Q468.20312 31.881248 468.20312 32.69375L468.20312 33.50625L462.32812 33.50625L462.32812 32.19375L466.26562 32.19375L466.26562 32.053123Q466.26562 31.631248 466.125 31.318748Q465.98438 30.990623 465.6875 30.803123Q465.39062 30.599998 464.9375 30.599998Q464.54688 30.599998 464.26562 30.771873Q463.98438 30.943748 463.79688 31.256248Q463.625 31.568748 463.54688 31.974998Q463.46875 32.38125 463.46875 32.88125L463.46875 33.146873Q463.46875 33.6 463.59375 33.975Q463.71875 34.35 463.95312 34.63125Q464.1875 34.896873 464.51562 35.053123Q464.85938 35.19375 465.29688 35.19375Q465.82812 35.19375 466.28125 34.990623Q466.75 34.7875 467.07812 34.35L468.04688 35.396873Q467.8125 35.725 467.40625 36.0375Q467.01562 36.35 466.45312 36.553123Q465.89062 36.740623 465.17188 36.740623Z" fill-rule="nonzero"/><path stroke="#00b050" stroke-width="4.0" stroke-linecap="butt" stroke-dasharray="13.0,9.0" d="M485.0 32.1L520.0 32.1" fill-rule="nonzero"/><path fill="#1a1a1a" d="M532.4844 34.521873L534.8281 26.646873L537.1094 26.646873L533.6406 36.6L532.1406 36.6L532.4844 34.521873ZM530.3125 26.646873L532.65625 34.521873L533.0156 36.6L531.5 36.6L528.0469 26.646873L530.3125 26.646873ZM541.7656 34.928123L541.7656 31.631248Q541.7656 31.287498 541.6406 31.037498Q541.53125 30.771873 541.28125 30.631248Q541.0469 30.474998 540.65625 30.474998Q540.3281 30.474998 540.0781 30.599998Q539.84375 30.709373 539.71875 30.928123Q539.59375 31.131248 539.59375 31.396873L537.625 31.396873Q537.625 30.928123 537.84375 30.506248Q538.0625 30.084373 538.46875 29.756248Q538.8906 29.428123 539.46875 29.256248Q540.0469 29.068748 540.7656 29.068748Q541.625 29.068748 542.2969 29.365623Q542.96875 29.646873 543.34375 30.224998Q543.7344 30.787498 543.7344 31.646873L543.7344 34.81875Q543.7344 35.428123 543.8125 35.81875Q543.8906 36.19375 544.03125 36.490623L544.03125 36.6L542.0469 36.6Q541.90625 36.303123 541.8281 35.85Q541.7656 35.396873 541.7656 34.928123ZM542.0156 32.1L542.03125 33.209373L540.9375 33.209373Q540.5469 33.209373 540.25 33.303123Q539.96875 33.38125 539.78125 33.553123Q539.59375 33.709373 539.5 33.928123Q539.4219 34.13125 539.4219 34.38125Q539.4219 34.63125 539.53125 34.834373Q539.65625 35.0375 539.875 35.1625Q540.09375 35.271873 540.3906 35.271873Q540.8281 35.271873 541.15625 35.1Q541.4844 34.9125 541.6719 34.6625Q541.8594 34.396873 541.8594 34.1625L542.375 34.990623Q542.2656 35.271873 542.0781 35.584373Q541.8906 35.88125 541.6094 36.146873Q541.3281 36.396873 540.9219 36.56875Q540.5156 36.740623 539.9531 36.740623Q539.25 36.740623 538.6719 36.459373Q538.1094 36.1625 537.78125 35.6625Q537.4531 35.1625 537.4531 34.521873Q537.4531 33.94375 537.6719 33.490623Q537.8906 33.0375 538.3125 32.725Q538.75 32.4125 539.3906 32.25625Q540.03125 32.1 540.875 32.1L542.0156 32.1ZM547.84375 26.099998L547.84375 36.6L545.875 36.6L545.875 26.099998L547.84375 26.099998ZM549.4531 32.975L549.4531 32.834373Q549.4531 32.021873 549.6875 31.334373Q549.9219 30.646873 550.3594 30.146873Q550.8125 29.631248 551.4531 29.349998Q552.1094 29.068748 552.9375 29.068748Q553.78125 29.068748 554.4375 29.349998Q555.09375 29.631248 555.5469 30.146873Q556.0 30.646873 556.21875 31.334373Q556.4531 32.021873 556.4531 32.834373L556.4531 32.975Q556.4531 33.7875 556.21875 34.475Q556.0 35.1625 555.5469 35.678123Q555.09375 36.178123 554.4375 36.459373Q553.7969 36.740623 552.9531 36.740623Q552.125 36.740623 551.46875 36.459373Q550.8125 36.178123 550.3594 35.678123Q549.9219 35.1625 549.6875 34.475Q549.4531 33.7875 549.4531 32.975ZM551.4219 32.834373L551.4219 32.975Q551.4219 33.44375 551.5 33.85Q551.5781 34.240623 551.7656 34.553123Q551.9531 34.85 552.2344 35.021873Q552.53125 35.19375 552.9531 35.19375Q553.375 35.19375 553.65625 35.021873Q553.9531 34.85 554.125 34.553123Q554.3125 34.240623 554.3906 33.85Q554.4844 33.44375 554.4844 32.975L554.4844 32.834373Q554.4844 32.38125 554.3906 31.990623Q554.3125 31.584373 554.125 31.271873Q553.9531 30.959373 553.65625 30.787498Q553.3594 30.599998 552.9375 30.599998Q552.53125 30.599998 552.2344 30.787498Q551.9531 30.959373 551.7656 31.271873Q551.5781 31.584373 551.5 31.990623Q551.4219 32.38125 551.4219 32.834373ZM559.7344 30.818748L559.7344 36.6L557.7656 36.6L557.7656 29.209373L559.625 29.209373L559.7344 30.818748ZM561.96875 29.162498L561.9219 30.974998Q561.78125 30.959373 561.5781 30.943748Q561.375 30.928123 561.21875 30.928123Q560.7969 30.928123 560.4844 31.037498Q560.1875 31.131248 559.9844 31.334373Q559.7969 31.537498 559.6875 31.834373Q559.59375 32.13125 559.5781 32.50625L559.1875 32.38125Q559.1875 31.678123 559.3281 31.068748Q559.46875 30.459373 559.7344 30.006248Q560.0156 29.553123 560.4219 29.318748Q560.8281 29.068748 561.34375 29.068748Q561.5156 29.068748 561.6875 29.099998Q561.8594 29.115623 561.96875 29.162498ZM566.1719 36.740623Q565.3125 36.740623 564.625 36.459373Q563.9375 36.178123 563.4531 35.69375Q562.9844 35.19375 562.7344 34.553123Q562.4844 33.896873 562.4844 33.146873L562.4844 32.88125Q562.4844 32.0375 562.71875 31.349998Q562.96875 30.646873 563.40625 30.131248Q563.8594 29.615623 564.5 29.349998Q565.1406 29.068748 565.9531 29.068748Q566.7344 29.068748 567.34375 29.334373Q567.9531 29.584373 568.3594 30.068748Q568.78125 30.537498 568.9844 31.209373Q569.2031 31.881248 569.2031 32.69375L569.2031 33.50625L563.3281 33.50625L563.3281 32.19375L567.2656 32.19375L567.2656 32.053123Q567.2656 31.631248 567.125 31.318748Q566.9844 30.990623 566.6875 30.803123Q566.3906 30.599998 565.9375 30.599998Q565.5469 30.599998 565.2656 30.771873Q564.9844 30.943748 564.7969 31.256248Q564.625 31.568748 564.5469 31.974998Q564.46875 32.38125 564.46875 32.88125L564.46875 33.146873Q564.46875 33.6 564.59375 33.975Q564.71875 34.35 564.9531 34.63125Q565.1875 34.896873 565.5156 35.053123Q565.8594 35.19375 566.2969 35.19375Q566.8281 35.19375 567.28125 34.990623Q567.75 34.7875 568.0781 34.35L569.0469 35.396873Q568.8125 35.725 568.40625 36.0375Q568.0156 36.35 567.4531 36.553123Q566.8906 36.740623 566.1719 36.740623ZM573.4531 32.975L573.4531 32.834373Q573.4531 32.021873 573.6875 31.334373Q573.9219 30.646873 574.3594 30.146873Q574.8125 29.631248 575.4531 29.349998Q576.1094 29.068748 576.9375 29.068748Q577.78125 29.068748 578.4375 29.349998Q579.09375 29.631248 579.5469 30.146873Q580.0 30.646873 580.21875 31.334373Q580.4531 32.021873 580.4531 32.834373L580.4531 32.975Q580.4531 33.7875 580.21875 34.475Q580.0 35.1625 579.5469 35.678123Q579.09375 36.178123 578.4375 36.459373Q577.7969 36.740623 576.9531 36.740623Q576.125 36.740623 575.46875 36.459373Q574.8125 36.178123 574.3594 35.678123Q573.9219 35.1625 573.6875 34.475Q573.4531 33.7875 573.4531 32.975ZM575.4219 32.834373L575.4219 32.975Q575.4219 33.44375 575.5 33.85Q575.5781 34.240623 575.7656 34.553123Q575.9531 34.85 576.2344 35.021873Q576.53125 35.19375 576.9531 35.19375Q577.375 35.19375 577.65625 35.021873Q577.9531 34.85 578.125 34.553123Q578.3125 34.240623 578.3906 33.85Q578.4844 33.44375 578.4844 32.975L578.4844 32.834373Q578.4844 32.38125 578.3906 31.990623Q578.3125 31.584373 578.125 31.271873Q577.9531 30.959373 577.65625 30.787498Q577.3594 30.599998 576.9375 30.599998Q576.53125 30.599998 576.2344 30.787498Q575.9531 30.959373 575.7656 31.271873Q575.5781 31.584373 575.5 31.990623Q575.4219 32.38125 575.4219 32.834373ZM585.3906 29.209373L585.3906 30.599998L581.0781 30.599998L581.0781 29.209373L585.3906 29.209373ZM582.15625 27.381248L584.125 27.381248L584.125 34.365623Q584.125 34.69375 584.2031 34.865623Q584.28125 35.0375 584.4531 35.1Q584.625 35.1625 584.8906 35.1625Q585.0781 35.1625 585.21875 35.146873Q585.375 35.13125 585.46875 35.115623L585.4844 36.553123Q585.21875 36.646873 584.9219 36.69375Q584.6406 36.740623 584.28125 36.740623Q583.625 36.740623 583.1406 36.521873Q582.6719 36.303123 582.40625 35.834373Q582.15625 35.35 582.15625 34.56875L582.15625 27.381248ZM590.3906 29.209373L590.3906 30.599998L586.0781 30.599998L586.0781 29.209373L590.3906 29.209373ZM587.15625 27.381248L589.125 27.381248L589.125 34.365623Q589.125 34.69375 589.2031 34.865623Q589.28125 35.0375 589.4531 35.1Q589.625 35.1625 589.8906 35.1625Q590.0781 35.1625 590.21875 35.146873Q590.375 35.13125 590.46875 35.115623L590.4844 36.553123Q590.21875 36.646873 589.9219 36.69375Q589.6406 36.740623 589.28125 36.740623Q588.625 36.740623 588.1406 36.521873Q587.6719 36.303123 587.40625 35.834373Q587.15625 35.35 587.15625 34.56875L587.15625 27.381248ZM593.84375 29.209373L593.84375 36.6L591.875 36.6L591.875 29.209373L593.84375 29.209373ZM591.75 27.271873Q591.75 26.849998 592.0469 26.568748Q592.34375 26.287498 592.8594 26.287498Q593.3594 26.287498 593.65625 26.568748Q593.9531 26.849998 593.9531 27.271873Q593.9531 27.709373 593.65625 27.990623Q593.3594 28.271873 592.8594 28.271873Q592.34375 28.271873 592.0469 27.990623Q591.75 27.709373 591.75 27.271873ZM597.7344 30.740623L597.7344 36.6L595.7656 36.6L595.7656 29.209373L597.6094 29.209373L597.7344 30.740623ZM597.4531 32.646873L596.9219 32.646873Q596.9219 31.865623 597.1094 31.224998Q597.2969 30.568748 597.65625 30.084373Q598.0156 29.599998 598.5625 29.334373Q599.1094 29.068748 599.8125 29.068748Q600.3125 29.068748 600.71875 29.224998Q601.125 29.365623 601.4219 29.678123Q601.71875 29.974998 601.875 30.474998Q602.0469 30.974998 602.0469 31.662498L602.0469 36.6L600.0781 36.6L600.0781 31.881248Q600.0781 31.381248 599.9375 31.115623Q599.8125 30.834373 599.5625 30.724998Q599.3125 30.615623 598.9531 30.615623Q598.5781 30.615623 598.2969 30.771873Q598.0156 30.928123 597.8281 31.209373Q597.6406 31.474998 597.5469 31.849998Q597.4531 32.225 597.4531 32.646873ZM601.8594 32.4125L601.15625 32.50625Q601.15625 31.787498 601.3281 31.162498Q601.5156 30.537498 601.875 30.068748Q602.2344 29.599998 602.7656 29.334373Q603.3125 29.068748 604.0 29.068748Q604.53125 29.068748 604.96875 29.224998Q605.40625 29.381248 605.71875 29.709373Q606.03125 30.037498 606.2031 30.568748Q606.375 31.099998 606.375 31.881248L606.375 36.6L604.3906 36.6L604.3906 31.881248Q604.3906 31.365623 604.25 31.099998Q604.125 30.818748 603.875 30.724998Q603.625 30.615623 603.28125 30.615623Q602.9375 30.615623 602.65625 30.756248Q602.3906 30.896873 602.21875 31.146873Q602.0469 31.381248 601.9531 31.709373Q601.8594 32.0375 601.8594 32.4125ZM607.4531 32.975L607.4531 32.834373Q607.4531 32.021873 607.6875 31.334373Q607.9219 30.646873 608.3594 30.146873Q608.8125 29.631248 609.4531 29.349998Q610.1094 29.068748 610.9375 29.068748Q611.78125 29.068748 612.4375 29.349998Q613.09375 29.631248 613.5469 30.146873Q614.0 30.646873 614.21875 31.334373Q614.4531 32.021873 614.4531 32.834373L614.4531 32.975Q614.4531 33.7875 614.21875 34.475Q614.0 35.1625 613.5469 35.678123Q613.09375 36.178123 612.4375 36.459373Q611.7969 36.740623 610.9531 36.740623Q610.125 36.740623 609.46875 36.459373Q608.8125 36.178123 608.3594 35.678123Q607.9219 35.1625 607.6875 34.475Q607.4531 33.7875 607.4531 32.975ZM609.4219 32.834373L609.4219 32.975Q609.4219 33.44375 609.5 33.85Q609.5781 34.240623 609.7656 34.553123Q609.9531 34.85 610.2344 35.021873Q610.53125 35.19375 610.9531 35.19375Q611.375 35.19375 611.65625 35.021873Q611.9531 34.85 612.125 34.553123Q612.3125 34.240623 612.3906 33.85Q612.4844 33.44375 612.4844 32.975L612.4844 32.834373Q612.4844 32.38125 612.3906 31.990623Q612.3125 31.584373 612.125 31.271873Q611.9531 30.959373 611.65625 30.787498Q611.3594 30.599998 610.9375 30.599998Q610.53125 30.599998 610.2344 30.787498Q609.9531 30.959373 609.7656 31.271873Q609.5781 31.584373 609.5 31.990623Q609.4219 32.38125 609.4219 32.834373Z" fill-rule="nonzero"/></svg>