<svg version="1.1" viewBox="0.0 0.0 797.0 472.0" fill="none" stroke="none" stroke-linecap="square" stroke-miterlimit="10" width="797" height="472" xmlns:xlink="http://www.w3.org/1999/xlink" xmlns="http://www.w3.org/2000/svg"><path fill="#ffffff" d="M0 0L797.0 0L797.0 472.0L0 472.0L0 0Z" fill-rule="nonzero"/><path stroke="#333333" stroke-width="1.0" stroke-linecap="butt" d="M50.5 424.5L773.5 424.5" fill-rule="nonzero"/><path stroke="#cccccc" stroke-width="1.0" stroke-linecap="butt" d="M50.5 372.5L773.5 372.5" fill-rule="nonzero"/><path stroke="#cccccc" stroke-width="1.0" stroke-linecap="butt" d="M50.5 321.5L773.5 321.5" fill-rule="nonzero"/><path stroke="#cccccc" stroke-width="1.0" stroke-linecap="butt" d="M50.5 269.5L773.5 269.5" fill-rule="nonzero"/><path stroke="#cccccc" stroke-width="1.0" stroke-linecap="butt" d="M50.5 218.5L773.5 218.5" fill-rule="nonzero"/><path stroke="#cccccc" stroke-width="1.0" stroke-linecap="butt" d="M50.5 166.5L773.5 166.5" fill-rule="nonzero"/><path stroke="#cccccc" stroke-width="1.0" stroke-linecap="butt" d="M50.5 115.5L773.5 115.5" fill-rule="nonzero"/><path stroke="#cccccc" stroke-width="1.0" stroke-linecap="butt" d="M50.5 63.5L773.5 63.5" fill-rule="nonzero"/><path stroke="#000000" stroke-width="1.0" stroke-linecap="butt" d="M50.5 424.5L50.5 63.5" fill-rule="nonzero"/><clipPath id="id_0"><path d="M50.6 63.833332L773.4 63.833332L773.4 424.4L50.6 424.4L50.6 63.833332Z" clip-rule="nonzero"/></clipPath><path stroke="#9900ff" stroke-width="2.0" stroke-linecap="butt" clip-path="url(#id_0)" d="M122.88 166.85239L267.44 218.36191L412.0 295.6262L556.56 269.87143L701.12 295.6262" fill-rule="nonzero"/><path stroke="#ff0000" stroke-width="2.0" stroke-linecap="butt" stroke-dasharray="8.0,6.0" clip-path="url(#id_0)" d="M122.88 269.87143L267.44 269.87143L412.0 269.87143L556.56 269.87143L701.12 269.87143" fill-rule="nonzero"/><path stroke="#00b050" stroke-width="2.0" stroke-linecap="butt" stroke-dasharray="8.0,6.0" clip-path="url(#id_0)" d="M122.88 372.89047L267.44 372.89047L412.0 372.89047L556.56 372.89047L701.12 372.89047" fill-rule="nonzero"/><path fill="#9900ff" clip-path="url(#id_0)" d="M126.38 166.85239C126.38 168.78539 124.812996 170.35239 122.88 170.35239C120.94701 170.35239 119.38 168.78539 119.38 166.85239C119.38 164.91939 120.94701 163.35239 122.88 163.35239C124.812996 163.35239 126.38 164.91939 126.38 166.85239Z" fill-rule="nonzero"/><path fill="#9900ff" clip-path="url(#id_0)" d="M270.94 218.36191C270.94 220.2949 269.373 221.86191 267.44 221.86191C265.507 221.86191 263.94 220.2949 263.94 218.36191C263.94 216.42891 265.507 214.86191 267.44 214.86191C269.373 214.86191 270.94 216.42891 270.94 218.36191Z" fill-rule="nonzero"/><path fill="#9900ff" clip-path="url(#id_0)" d="M415.5 295.6262C415.5 297.55917 413.93298 299.1262 412.0 299.1262C410.06702 299.1262 408.5 297.55917 408.5 295.6262C408.5 293.6932 410.06702 292.1262 412.0 292.1262C413.93298 292.1262 415.5 293.6932 415.5 295.6262Z" fill-rule="nonzero"/><path fill="#9900ff" clip-path="url(#id_0)" d="M560.06 269.87143C560.06 271.8044 558.493 273.37143 556.56 273.37143C554.627 273.37143 553.06 271.8044 553.06 269.87143C553.06 267.93845 554.627 266.37143 556.56 266.37143C558.493 266.37143 560.06 267.93845 560.06 269.87143Z" fill-rule="nonzero"/><path fill="#9900ff" clip-path="url(#id_0)" d="M704.62 295.6262C704.62 297.55917 703.053 299.1262 701.12 299.1262C699.187 299.1262 697.62 297.55917 697.62 295.6262C697.62 293.6932 699.187 292.1262 701.12 292.1262C703.053 292.1262 704.62 293.6932 704.62 295.6262Z" fill-rule="nonzero"/><path fill="#000000" fill-opacity="0.0" clip-path="url(#id_0)" d="M125.88 269.87143C125.88 271.5283 124.53686 272.87143 122.88 272.87143C121.223145 272.87143 119.88 271.5283 119.88 269.87143C119.88 268.21457 121.223145 266.87143 122.88 266.87143C124.53686 266.87143 125.88 268.21457 125.88 269.87143Z" fill-rule="nonzero"/><path fill="#000000" fill-opacity="0.0" clip-path="url(#id_0)" d="M270.44 269.87143C270.44 271.5283 269.09686 272.87143 267.44 272.87143C265.78314 272.87143 264.44 271.5283 264.44 269.87143C264.44 268.21457 265.78314 266.87143 267.44 266.87143C269.09686 266.87143 270.44 268.21457 270.44 269.87143Z" fill-rule="nonzero"/><path fill="#000000" fill-opacity="0.0" clip-path="url(#id_0)" d="M415.0 269.87143C415.0 271.5283 413.65686 272.87143 412.0 272.87143C410.34314 272.87143 409.0 271.5283 409.0 269.87143C409.0 268.21457 410.34314 266.87143 412.0 266.87143C413.65686 266.87143 415.0 268.21457 415.0 269.87143Z" fill-rule="nonzero"/><path fill="#000000" fill-opacity="0.0" clip-path="url(#id_0)" d="M559.56 269.87143C559.56 271.5283 558.21686 272.87143 556.56 272.87143C554.90314 272.87143 553.56 271.5283 553.56 269.87143C553.56 268.21457 554.90314 266.87143 556.56 266.87143C558.21686 266.87143 559.56 268.21457 559.56 269.87143Z" fill-rule="nonzero"/><path fill="#000000" fill-opacity="0.0" clip-path="url(#id_0)" d="M704.12 269.87143C704.12 271.5283 702.77686 272.87143 701.12 272.87143C699.46313 272.87143 698.12 271.5283 698.12 269.87143C698.12 268.21457 699.46313 266.87143 701.12 266.87143C702.77686 266.87143 704.12 268.21457 704.12 269.87143Z" fill-rule="nonzero"/><path fill="#000000" fill-opacity="0.0" clip-path="url(#id_0)" d="M125.88 372.89047C125.88 374.54733 124.53686 375.89047 122.88 375.89047C121.223145 375.89047 119.88 374.54733 119.88 372.89047C119.88 371.2336 121.223145 369.89047 122.88 369.89047C124.53686 369.89047 125.88 371.2336 125.88 372.89047Z" fill-rule="nonzero"/><path fill="#000000" fill-opacity="0.0" clip-path="url(#id_0)" d="M270.44 372.89047C270.44 374.54733 269.09686 375.89047 267.44 375.89047C265.78314 375.89047 264.44 374.54733 264.44 372.89047C264.44 371.2336 265.78314 369.89047 267.44 369.89047C269.09686 369.89047 270.44 371.2336 270.44 372.89047Z" fill-rule="nonzero"/><path fill="#000000" fill-opacity="0.0" clip-path="url(#id_0)" d="M415.0 372.89047C415.0 374.54733 413.65686 375.89047 412.0 375.89047C410.34314 375.89047 409.0 374.54733 409.0 372.89047C409.0 371.2336 410.34314 369.89047 412.0 369.89047C413.65686 369.89047 415.0 371.2336 415.0 372.89047Z" fill-rule="nonzero"/><path fill="#000000" fill-opacity="0.0" clip-path="url(#id_0)" d="M559.56 372.89047C559.56 374.54733 558.21686 375.89047 556.56 375.89047C554.90314 375.89047 553.56 374.54733 553.56 372.89047C553.56 371.2336 554.90314 369.89047 556.56 369.89047C558.21686 369.89047 559.56 371.2336 559.56 372.89047Z" fill-rule="nonzero"/><path fill="#000000" fill-opacity="0.0" clip-path="url(#id_0)" d="M704.12 372.89047C704.12 374.54733 702.77686 375.89047 701.12 375.89047C699.46313 375.89047 698.12 374.54733 698.12 372.89047C698.12 371.2336 699.46313 369.89047 701.12 369.89047C702.77686 369.89047 704.12 371.2336 704.12 372.89047Z" fill-rule="nonzero"/><path fill="#000000" d="M43.6625 423.94687L43.6625 425.25937Q43.6625 426.30624 43.475 427.025Q43.2875 427.74374 42.928123 428.18124Q42.584373 428.61874 42.084373 428.82187Q41.6 429.025 40.975 429.025Q40.490623 429.025 40.06875 428.9Q39.646873 428.775 39.31875 428.50937Q38.990623 428.22812 38.75625 427.79062Q38.521873 427.35312 38.396873 426.72812Q38.271873 426.0875 38.271873 425.25937L38.271873 423.94687Q38.271873 422.9 38.459373 422.19687Q38.6625 421.49374 39.00625 421.05624Q39.365623 420.61874 39.85 420.43124Q40.35 420.24374 40.959373 420.24374Q41.459373 420.24374 41.88125 420.36874Q42.303123 420.49374 42.63125 420.75937Q42.959373 421.00937 43.178123 421.44687Q43.4125 421.86874 43.5375 422.49374Q43.6625 423.11874 43.6625 423.94687ZM42.56875 425.43124L42.56875 423.775Q42.56875 423.19687 42.50625 422.75937Q42.44375 422.32187 42.303123 422.00937Q42.178123 421.69687 41.975 421.50937Q41.7875 421.32187 41.5375 421.22812Q41.2875 421.13437 40.959373 421.13437Q40.584373 421.13437 40.271873 421.275Q39.975 421.41562 39.771873 421.72812Q39.56875 422.04062 39.459373 422.55624Q39.365623 423.05624 39.365623 423.775L39.365623 425.43124Q39.365623 426.00937 39.428123 426.44687Q39.50625 426.88437 39.63125 427.2125Q39.771873 427.525 39.959373 427.72812Q40.1625 427.93124 40.4125 428.025Q40.6625 428.11874 40.975 428.11874Q41.38125 428.11874 41.678123 427.97812Q41.975 427.82187 42.178123 427.49374Q42.38125 427.16562 42.475 426.66562Q42.56875 426.15 42.56875 425.43124Z" fill-rule="nonzero"/><path fill="#000000" d="M41.865623 368.81235L41.865623 377.39047L40.7875 377.39047L40.7875 370.17172L38.6 370.9686L38.6 369.98422L41.709373 368.81235L41.865623 368.81235Z" fill-rule="nonzero"/><path fill="#000000" d="M43.896873 324.99033L43.896873 325.88095L38.31875 325.88095L38.31875 325.0997L41.115623 321.99033Q41.63125 321.4122 41.9125 321.02158Q42.19375 320.61533 42.303123 320.30283Q42.428123 319.9747 42.428123 319.64658Q42.428123 319.2247 42.25625 318.88095Q42.084373 318.5372 41.740623 318.33408Q41.4125 318.11533 40.928123 318.11533Q40.365623 318.11533 39.990623 318.3497Q39.615623 318.56845 39.428123 318.95908Q39.240623 319.3497 39.240623 319.8497L38.146873 319.8497Q38.146873 319.13095 38.459373 318.5372Q38.7875 317.94345 39.396873 317.58408Q40.021873 317.2247 40.928123 317.2247Q41.740623 317.2247 42.31875 317.52158Q42.896873 317.80283 43.19375 318.31845Q43.50625 318.81845 43.50625 319.50595Q43.50625 319.88095 43.38125 320.27158Q43.25625 320.64658 43.0375 321.0372Q42.81875 321.4122 42.521873 321.7872Q42.240623 322.14658 41.9125 322.50595L39.615623 324.99033L43.896873 324.99033Z" fill-rule="nonzero"/><path fill="#000000" d="M39.896873 269.57455L40.6625 269.57455Q41.240623 269.57455 41.6 269.38705Q41.975 269.18393 42.1625 268.8558Q42.35 268.52768 42.35 268.1058Q42.35 267.62143 42.178123 267.2933Q42.021873 266.94955 41.69375 266.77768Q41.365623 266.6058 40.865623 266.6058Q40.396873 266.6058 40.053123 266.7933Q39.709373 266.96518 39.50625 267.2933Q39.31875 267.62143 39.31875 268.07455L38.225 268.07455Q38.225 267.4183 38.553123 266.88705Q38.88125 266.3558 39.475 266.0433Q40.06875 265.71518 40.865623 265.71518Q41.63125 265.71518 42.209373 265.99643Q42.7875 266.26205 43.115623 266.80893Q43.44375 267.34018 43.44375 268.13705Q43.44375 268.46518 43.2875 268.82455Q43.13125 269.18393 42.81875 269.51205Q42.50625 269.82455 42.00625 270.02768Q41.521873 270.2308 40.81875 270.2308L39.896873 270.2308L39.896873 269.57455ZM39.896873 270.46518L39.896873 269.80893L40.81875 269.80893Q41.63125 269.80893 42.1625 270.01205Q42.69375 270.19955 43.00625 270.52768Q43.31875 270.84018 43.44375 271.2308Q43.56875 271.6058 43.56875 271.99643Q43.56875 272.59018 43.365623 273.05893Q43.1625 273.51205 42.7875 273.84018Q42.428123 274.15268 41.928123 274.32455Q41.44375 274.49643 40.865623 274.49643Q40.303123 274.49643 39.81875 274.34018Q39.334373 274.1683 38.959373 273.87143Q38.584373 273.57455 38.365623 273.13705Q38.1625 272.68393 38.1625 272.12143L39.240623 272.12143Q39.240623 272.55893 39.428123 272.90268Q39.63125 273.2308 39.990623 273.4183Q40.365623 273.59018 40.865623 273.59018Q41.365623 273.59018 41.725 273.4183Q42.084373 273.24643 42.271873 272.90268Q42.475 272.5433 42.475 272.01205Q42.475 271.4808 42.25625 271.13705Q42.0375 270.7933 41.615623 270.63705Q41.209373 270.46518 40.6625 270.46518L39.896873 270.46518Z" fill-rule="nonzero"/><path fill="#000000" d="M44.06875 219.98691L44.06875 220.87753L37.9125 220.87753L37.9125 220.23691L41.725 214.33066L42.615623 214.33066L41.6625 216.03378L39.146873 219.98691L44.06875 219.98691ZM42.88125 214.33066L42.88125 222.86191L41.803123 222.86191L41.803123 214.33066L42.88125 214.33066Z" fill-rule="nonzero"/><path fill="#000000" d="M39.678123 167.28989L38.81875 167.07114L39.240623 162.82114L43.615623 162.82114L43.615623 163.82114L40.1625 163.82114L39.896873 166.14926Q40.13125 166.00864 40.490623 165.89926Q40.865623 165.77426 41.334373 165.77426Q41.9125 165.77426 42.38125 165.97739Q42.85 166.18051 43.178123 166.55551Q43.521873 166.93051 43.69375 167.46176Q43.865623 167.97739 43.865623 168.63364Q43.865623 169.24301 43.69375 169.75864Q43.5375 170.27426 43.19375 170.66489Q42.865623 171.03989 42.35 171.25864Q41.85 171.47739 41.1625 171.47739Q40.646873 171.47739 40.19375 171.33676Q39.740623 171.18051 39.365623 170.88364Q39.00625 170.58676 38.7875 170.14926Q38.56875 169.71176 38.50625 169.10239L39.5375 169.10239Q39.6 169.58676 39.803123 169.91489Q40.021873 170.24301 40.365623 170.41489Q40.709373 170.57114 41.1625 170.57114Q41.553123 170.57114 41.85 170.44614Q42.146873 170.30551 42.35 170.05551Q42.56875 169.80551 42.678123 169.44614Q42.7875 169.08676 42.7875 168.64926Q42.7875 168.24301 42.6625 167.89926Q42.553123 167.55551 42.334373 167.30551Q42.115623 167.03989 41.803123 166.89926Q41.490623 166.74301 41.06875 166.74301Q40.5375 166.74301 40.25625 166.89926Q39.975 167.03989 39.678123 167.28989Z" fill-rule="nonzero"/><path fill="#000000" d="M42.475 111.29598L42.56875 111.29598L42.56875 112.21786L42.475 112.21786Q41.615623 112.21786 41.021873 112.49911Q40.44375 112.78036 40.1 113.24911Q39.771873 113.70223 39.615623 114.29598Q39.475 114.87411 39.475 115.46786L39.475 116.71786Q39.475 117.28036 39.6 117.71786Q39.740623 118.15536 39.975 118.46786Q40.209373 118.76473 40.50625 118.92098Q40.803123 119.06161 41.115623 119.06161Q41.490623 119.06161 41.7875 118.92098Q42.084373 118.78036 42.2875 118.51473Q42.490623 118.24911 42.584373 117.90536Q42.69375 117.54598 42.69375 117.10848Q42.69375 116.73348 42.6 116.37411Q42.50625 116.01473 42.31875 115.74911Q42.13125 115.46786 41.834373 115.31161Q41.5375 115.13973 41.146873 115.13973Q40.69375 115.13973 40.303123 115.35848Q39.9125 115.57723 39.6625 115.93661Q39.4125 116.29598 39.38125 116.70223L38.803123 116.70223Q38.896873 116.04598 39.115623 115.57723Q39.334373 115.10848 39.678123 114.81161Q40.021873 114.51473 40.428123 114.38973Q40.85 114.24911 41.31875 114.24911Q41.959373 114.24911 42.4125 114.49911Q42.88125 114.73348 43.178123 115.13973Q43.490623 115.53036 43.63125 116.03036Q43.771873 116.53036 43.771873 117.06161Q43.771873 117.65536 43.6 118.18661Q43.428123 118.71786 43.084373 119.12411Q42.75625 119.51473 42.25625 119.74911Q41.771873 119.96786 41.115623 119.96786Q40.428123 119.96786 39.9125 119.68661Q39.396873 119.38973 39.053123 118.92098Q38.725 118.43661 38.553123 117.85848Q38.38125 117.28036 38.38125 116.68661L38.38125 116.17098Q38.38125 115.26473 38.553123 114.40536Q38.740623 113.53036 39.19375 112.82723Q39.646873 112.12411 40.44375 111.71786Q41.240623 111.29598 42.475 111.29598Z" fill-rule="nonzero"/><path fill="#000000" d="M43.81875 59.802086L43.81875 60.41146L40.2875 68.333336L39.146873 68.333336L42.678123 60.69271L38.053123 60.69271L38.053123 59.802086L43.81875 59.802086Z" fill-rule="nonzero"/><path fill="#000000" d="M99.83312 441.88437Q99.83312 441.54062 99.72375 441.275Q99.63 440.99374 99.36437 440.775Q99.09875 440.55624 98.63 440.36874Q98.17687 440.16562 97.47375 439.9625Q96.73937 439.74374 96.14562 439.47812Q95.55187 439.19687 95.11437 438.85312Q94.6925 438.49374 94.47375 438.05624Q94.255 437.60312 94.255 437.00937Q94.255 436.43124 94.48937 435.94687Q94.72375 435.44687 95.17687 435.0875Q95.63 434.7125 96.23937 434.50937Q96.86437 434.30624 97.63 434.30624Q98.755 434.30624 99.53625 434.74374Q100.3175 435.16562 100.72375 435.85312Q101.14562 436.54062 101.14562 437.32187L99.83312 437.32187Q99.83312 436.75937 99.58312 436.32187Q99.34875 435.88437 98.86437 435.63437Q98.38 435.38437 97.63 435.38437Q96.92687 435.38437 96.45812 435.60312Q96.005 435.80624 95.78625 436.18124Q95.5675 436.54062 95.5675 437.00937Q95.5675 437.32187 95.6925 437.5875Q95.83312 437.8375 96.11437 438.05624Q96.39562 438.275 96.83312 438.4625Q97.28625 438.63437 97.89562 438.80624Q98.73937 439.04062 99.34875 439.3375Q99.97375 439.63437 100.36437 440.00937Q100.77062 440.36874 100.95812 440.8375Q101.16125 441.29062 101.16125 441.86874Q101.16125 442.47812 100.91125 442.97812Q100.67687 443.4625 100.20812 443.82187Q99.755 444.16562 99.11437 444.35312Q98.47375 444.54062 97.6925 444.54062Q97.005 444.54062 96.33312 444.35312Q95.67687 444.15 95.13 443.775Q94.58312 443.38437 94.255 442.82187Q93.92687 442.25937 93.92687 441.50937L95.23937 441.50937Q95.23937 442.025 95.4425 442.4Q95.64562 442.75937 95.98937 443.00937Q96.33312 443.24374 96.77062 443.35312Q97.20812 443.4625 97.6925 443.4625Q98.38 443.4625 98.86437 443.275Q99.34875 443.0875 99.58312 442.72812Q99.83312 442.36874 99.83312 441.88437ZM106.20812 440.49374L103.55187 440.49374L103.55187 439.41562L106.20812 439.41562Q106.97375 439.41562 107.45812 439.18124Q107.9425 438.93124 108.16125 438.49374Q108.38 438.05624 108.38 437.49374Q108.38 436.97812 108.16125 436.54062Q107.9425 436.0875 107.45812 435.80624Q106.97375 435.525 106.20812 435.525L103.84875 435.525L103.84875 444.4L102.53625 444.4L102.53625 434.44687L106.20812 434.44687Q107.33312 434.44687 108.11437 434.8375Q108.89562 435.22812 109.28625 435.91562Q109.6925 436.60312 109.6925 437.47812Q109.6925 438.43124 109.28625 439.11874Q108.89562 439.79062 108.11437 440.15Q107.33312 440.49374 106.20812 440.49374ZM111.53625 434.44687L114.83312 434.44687Q115.95812 434.44687 116.72375 434.79062Q117.505 435.13437 117.91125 435.80624Q118.3175 436.4625 118.3175 437.43124Q118.3175 438.11874 118.03625 438.68124Q117.77062 439.24374 117.23937 439.63437Q116.72375 440.025 116.02062 440.22812L115.64562 440.36874L112.55187 440.36874L112.53625 439.29062L114.86437 439.29062Q115.58312 439.29062 116.05187 439.04062Q116.52062 438.79062 116.755 438.36874Q117.005 437.94687 117.005 437.43124Q117.005 436.85312 116.77062 436.43124Q116.55187 435.99374 116.0675 435.75937Q115.58312 435.525 114.83312 435.525L112.84875 435.525L112.84875 444.4L111.53625 444.4L111.53625 434.44687ZM117.34875 444.4L114.92687 439.88437L116.30187 439.88437L118.755 444.32187L118.755 444.4L117.34875 444.4ZM121.95812 434.44687L121.95812 444.4L120.63 444.4L120.63 434.44687L121.95812 434.44687ZM132.1925 434.44687L132.1925 444.4L130.86438 444.4L125.84875 436.72812L125.84875 444.4L124.53625 444.4L124.53625 434.44687L125.84875 434.44687L130.88 442.15L130.88 434.44687L132.1925 434.44687ZM138.20813 434.44687L138.20813 444.4L136.91125 444.4L136.91125 434.44687L138.20813 434.44687ZM141.41125 434.44687L141.41125 435.525L133.72375 435.525L133.72375 434.44687L141.41125 434.44687ZM149.36438 434.38437L149.36438 444.4L148.09875 444.4L148.09875 435.97812L145.55188 436.9L145.55188 435.75937L149.16125 434.38437L149.36438 434.38437Z" fill-rule="nonzero"/><path fill="#000000" d="M244.39313 441.88437Q244.39313 441.54062 244.28375 441.275Q244.19 440.99374 243.92438 440.775Q243.65875 440.55624 243.19 440.36874Q242.73688 440.16562 242.03375 439.9625Q241.29938 439.74374 240.70563 439.47812Q240.11188 439.19687 239.67438 438.85312Q239.2525 438.49374 239.03375 438.05624Q238.815 437.60312 238.815 437.00937Q238.815 436.43124 239.04938 435.94687Q239.28375 435.44687 239.73688 435.0875Q240.19 434.7125 240.79938 434.50937Q241.42438 434.30624 242.19 434.30624Q243.315 434.30624 244.09625 434.74374Q244.8775 435.16562 245.28375 435.85312Q245.70563 436.54062 245.70563 437.32187L244.39313 437.32187Q244.39313 436.75937 244.14313 436.32187Q243.90875 435.88437 243.42438 435.63437Q242.94 435.38437 242.19 435.38437Q241.48688 435.38437 241.01813 435.60312Q240.565 435.80624 240.34625 436.18124Q240.1275 436.54062 240.1275 437.00937Q240.1275 437.32187 240.2525 437.5875Q240.39313 437.8375 240.67438 438.05624Q240.95563 438.275 241.39313 438.4625Q241.84625 438.63437 242.45563 438.80624Q243.29938 439.04062 243.90875 439.3375Q244.53375 439.63437 244.92438 440.00937Q245.33063 440.36874 245.51813 440.8375Q245.72125 441.29062 245.72125 441.86874Q245.72125 442.47812 245.47125 442.97812Q245.23688 443.4625 244.76813 443.82187Q244.315 444.16562 243.67438 444.35312Q243.03375 444.54062 242.2525 444.54062Q241.565 444.54062 240.89313 444.35312Q240.23688 444.15 239.69 443.775Q239.14313 443.38437 238.815 442.82187Q238.48688 442.25937 238.48688 441.50937L239.79938 441.50937Q239.79938 442.025 240.0025 442.4Q240.20563 442.75937 240.54938 443.00937Q240.89313 443.24374 241.33063 443.35312Q241.76813 443.4625 242.2525 443.4625Q242.94 443.4625 243.42438 443.275Q243.90875 443.0875 244.14313 442.72812Q244.39313 442.36874 244.39313 441.88437ZM250.76813 440.49374L248.11188 440.49374L248.11188 439.41562L250.76813 439.41562Q251.53375 439.41562 252.01813 439.18124Q252.5025 438.93124 252.72125 438.49374Q252.94 438.05624 252.94 437.49374Q252.94 436.97812 252.72125 436.54062Q252.5025 436.0875 252.01813 435.80624Q251.53375 435.525 250.76813 435.525L248.40875 435.525L248.40875 444.4L247.09625 444.4L247.09625 434.44687L250.76813 434.44687Q251.89313 434.44687 252.67438 434.8375Q253.45563 435.22812 253.84625 435.91562Q254.2525 436.60312 254.2525 437.47812Q254.2525 438.43124 253.84625 439.11874Q253.45563 439.79062 252.67438 440.15Q251.89313 440.49374 250.76813 440.49374ZM256.09625 434.44687L259.39313 434.44687Q260.51813 434.44687 261.28375 434.79062Q262.065 435.13437 262.47125 435.80624Q262.8775 436.4625 262.8775 437.43124Q262.8775 438.11874 262.59625 438.68124Q262.33063 439.24374 261.79938 439.63437Q261.28375 440.025 260.58063 440.22812L260.20563 440.36874L257.11188 440.36874L257.09625 439.29062L259.42438 439.29062Q260.14313 439.29062 260.61188 439.04062Q261.08063 438.79062 261.315 438.36874Q261.565 437.94687 261.565 437.43124Q261.565 436.85312 261.33063 436.43124Q261.11188 435.99374 260.6275 435.75937Q260.14313 435.525 259.39313 435.525L257.40875 435.525L257.40875 444.4L256.09625 444.4L256.09625 434.44687ZM261.90875 444.4L259.48688 439.88437L260.86188 439.88437L263.315 444.32187L263.315 444.4L261.90875 444.4ZM266.51813 434.44687L266.51813 444.4L265.19 444.4L265.19 434.44687L266.51813 434.44687ZM276.7525 434.44687L276.7525 444.4L275.42438 444.4L270.40875 436.72812L270.40875 444.4L269.09625 444.4L269.09625 434.44687L270.40875 434.44687L275.44 442.15L275.44 434.44687L276.7525 434.44687ZM282.76813 434.44687L282.76813 444.4L281.47125 444.4L281.47125 434.44687L282.76813 434.44687ZM285.97125 434.44687L285.97125 435.525L278.28375 435.525L278.28375 434.44687L285.97125 434.44687ZM296.28375 443.35312L296.28375 444.4L289.76813 444.4L289.76813 443.49374L293.03375 439.85312Q293.64313 439.19687 293.97125 438.72812Q294.29938 438.25937 294.42438 437.88437Q294.565 437.50937 294.565 437.11874Q294.565 436.63437 294.36188 436.22812Q294.15875 435.82187 293.76813 435.5875Q293.3775 435.35312 292.83063 435.35312Q292.17438 435.35312 291.72125 435.61874Q291.28375 435.86874 291.065 436.32187Q290.84625 436.775 290.84625 437.36874L289.58063 437.36874Q289.58063 436.525 289.94 435.8375Q290.315 435.13437 291.03375 434.72812Q291.76813 434.30624 292.83063 434.30624Q293.76813 434.30624 294.44 434.65Q295.11188 434.97812 295.47125 435.57187Q295.83063 436.16562 295.83063 436.9625Q295.83063 437.4 295.67438 437.85312Q295.53375 438.30624 295.26813 438.75937Q295.01813 439.19687 294.67438 439.63437Q294.34625 440.05624 293.97125 440.4625L291.29938 443.35312L296.28375 443.35312Z" fill-rule="nonzero"/><path fill="#000000" d="M388.95312 441.88437Q388.95312 441.54062 388.84375 441.275Q388.75 440.99374 388.48438 440.775Q388.21875 440.55624 387.75 440.36874Q387.29688 440.16562 386.59375 439.9625Q385.85938 439.74374 385.26562 439.47812Q384.67188 439.19687 384.23438 438.85312Q383.8125 438.49374 383.59375 438.05624Q383.375 437.60312 383.375 437.00937Q383.375 436.43124 383.60938 435.94687Q383.84375 435.44687 384.29688 435.0875Q384.75 434.7125 385.35938 434.50937Q385.98438 434.30624 386.75 434.30624Q387.875 434.30624 388.65625 434.74374Q389.4375 435.16562 389.84375 435.85312Q390.26562 436.54062 390.26562 437.32187L388.95312 437.32187Q388.95312 436.75937 388.70312 436.32187Q388.46875 435.88437 387.98438 435.63437Q387.5 435.38437 386.75 435.38437Q386.04688 435.38437 385.57812 435.60312Q385.125 435.80624 384.90625 436.18124Q384.6875 436.54062 384.6875 437.00937Q384.6875 437.32187 384.8125 437.5875Q384.95312 437.8375 385.23438 438.05624Q385.51562 438.275 385.95312 438.4625Q386.40625 438.63437 387.01562 438.80624Q387.85938 439.04062 388.46875 439.3375Q389.09375 439.63437 389.48438 440.00937Q389.89062 440.36874 390.07812 440.8375Q390.28125 441.29062 390.28125 441.86874Q390.28125 442.47812 390.03125 442.97812Q389.79688 443.4625 389.32812 443.82187Q388.875 444.16562 388.23438 444.35312Q387.59375 444.54062 386.8125 444.54062Q386.125 444.54062 385.45312 444.35312Q384.79688 444.15 384.25 443.775Q383.70312 443.38437 383.375 442.82187Q383.04688 442.25937 383.04688 441.50937L384.35938 441.50937Q384.35938 442.025 384.5625 442.4Q384.76562 442.75937 385.10938 443.00937Q385.45312 443.24374 385.89062 443.35312Q386.32812 443.4625 386.8125 443.4625Q387.5 443.4625 387.98438 443.275Q388.46875 443.0875 388.70312 442.72812Q388.95312 442.36874 388.95312 441.88437ZM395.32812 440.49374L392.67188 440.49374L392.67188 439.41562L395.32812 439.41562Q396.09375 439.41562 396.57812 439.18124Q397.0625 438.93124 397.28125 438.49374Q397.5 438.05624 397.5 437.49374Q397.5 436.97812 397.28125 436.54062Q397.0625 436.0875 396.57812 435.80624Q396.09375 435.525 395.32812 435.525L392.96875 435.525L392.96875 444.4L391.65625 444.4L391.65625 434.44687L395.32812 434.44687Q396.45312 434.44687 397.23438 434.8375Q398.01562 435.22812 398.40625 435.91562Q398.8125 436.60312 398.8125 437.47812Q398.8125 438.43124 398.40625 439.11874Q398.01562 439.79062 397.23438 440.15Q396.45312 440.49374 395.32812 440.49374ZM400.65625 434.44687L403.95312 434.44687Q405.07812 434.44687 405.84375 434.79062Q406.625 435.13437 407.03125 435.80624Q407.4375 436.4625 407.4375 437.43124Q407.4375 438.11874 407.15625 438.68124Q406.89062 439.24374 406.35938 439.63437Q405.84375 440.025 405.14062 440.22812L404.76562 440.36874L401.67188 440.36874L401.65625 439.29062L403.98438 439.29062Q404.70312 439.29062 405.17188 439.04062Q405.64062 438.79062 405.875 438.36874Q406.125 437.94687 406.125 437.43124Q406.125 436.85312 405.89062 436.43124Q405.67188 435.99374 405.1875 435.75937Q404.70312 435.525 403.95312 435.525L401.96875 435.525L401.96875 444.4L400.65625 444.4L400.65625 434.44687ZM406.46875 444.4L404.04688 439.88437L405.42188 439.88437L407.875 444.32187L407.875 444.4L406.46875 444.4ZM411.07812 434.44687L411.07812 444.4L409.75 444.4L409.75 434.44687L411.07812 434.44687ZM421.3125 434.44687L421.3125 444.4L419.98438 444.4L414.96875 436.72812L414.96875 444.4L413.65625 444.4L413.65625 434.44687L414.96875 434.44687L420.0 442.15L420.0 434.44687L421.3125 434.44687ZM427.32812 434.44687L427.32812 444.4L426.03125 444.4L426.03125 434.44687L427.32812 434.44687ZM430.53125 434.44687L430.53125 435.525L422.84375 435.525L422.84375 434.44687L430.53125 434.44687ZM436.17188 438.80624L437.07812 438.80624Q437.73438 438.80624 438.17188 438.5875Q438.60938 438.35312 438.8125 437.97812Q439.03125 437.5875 439.03125 437.10312Q439.03125 436.525 438.84375 436.13437Q438.65625 435.74374 438.26562 435.55624Q437.89062 435.35312 437.29688 435.35312Q436.76562 435.35312 436.35938 435.55624Q435.95312 435.75937 435.71875 436.15Q435.5 436.525 435.5 437.05624L434.23438 437.05624Q434.23438 436.29062 434.60938 435.66562Q435.0 435.04062 435.6875 434.68124Q436.39062 434.30624 437.29688 434.30624Q438.20312 434.30624 438.875 434.63437Q439.5625 434.94687 439.9375 435.57187Q440.3125 436.19687 440.3125 437.11874Q440.3125 437.50937 440.125 437.93124Q439.95312 438.35312 439.59375 438.72812Q439.23438 439.0875 438.64062 439.3375Q438.0625 439.57187 437.25 439.57187L436.17188 439.57187L436.17188 438.80624ZM436.17188 439.8375L436.17188 439.0875L437.25 439.0875Q438.20312 439.0875 438.82812 439.30624Q439.45312 439.525 439.8125 439.91562Q440.17188 440.29062 440.3125 440.74374Q440.45312 441.18124 440.45312 441.61874Q440.45312 442.32187 440.21875 442.86874Q439.98438 443.4 439.5625 443.775Q439.14062 444.15 438.5625 444.35312Q437.98438 444.54062 437.3125 444.54062Q436.65625 444.54062 436.07812 444.35312Q435.51562 444.16562 435.07812 443.82187Q434.64062 443.4625 434.39062 442.94687Q434.15625 442.43124 434.15625 441.775L435.42188 441.775Q435.42188 442.29062 435.64062 442.68124Q435.875 443.07187 436.29688 443.29062Q436.73438 443.49374 437.3125 443.49374Q437.89062 443.49374 438.3125 443.29062Q438.73438 443.0875 438.95312 442.68124Q439.1875 442.275 439.1875 441.65Q439.1875 441.025 438.92188 440.63437Q438.67188 440.22812 438.1875 440.04062Q437.71875 439.8375 437.07812 439.8375L436.17188 439.8375Z" fill-rule="nonzero"/><path fill="#000000" d="M533.5131 441.88437Q533.5131 441.54062 533.40375 441.275Q533.31 440.99374 533.0444 440.775Q532.77875 440.55624 532.31 440.36874Q531.8569 440.16562 531.15375 439.9625Q530.4194 439.74374 529.8256 439.47812Q529.2319 439.19687 528.7944 438.85312Q528.3725 438.49374 528.15375 438.05624Q527.935 437.60312 527.935 437.00937Q527.935 436.43124 528.1694 435.94687Q528.40375 435.44687 528.8569 435.0875Q529.31 434.7125 529.9194 434.50937Q530.5444 434.30624 531.31 434.30624Q532.435 434.30624 533.21625 434.74374Q533.9975 435.16562 534.40375 435.85312Q534.8256 436.54062 534.8256 437.32187L533.5131 437.32187Q533.5131 436.75937 533.2631 436.32187Q533.02875 435.88437 532.5444 435.63437Q532.06 435.38437 531.31 435.38437Q530.6069 435.38437 530.1381 435.60312Q529.685 435.80624 529.46625 436.18124Q529.2475 436.54062 529.2475 437.00937Q529.2475 437.32187 529.3725 437.5875Q529.5131 437.8375 529.7944 438.05624Q530.0756 438.275 530.5131 438.4625Q530.96625 438.63437 531.5756 438.80624Q532.4194 439.04062 533.02875 439.3375Q533.65375 439.63437 534.0444 440.00937Q534.4506 440.36874 534.6381 440.8375Q534.84125 441.29062 534.84125 441.86874Q534.84125 442.47812 534.59125 442.97812Q534.3569 443.4625 533.8881 443.82187Q533.435 444.16562 532.7944 444.35312Q532.15375 444.54062 531.3725 444.54062Q530.685 444.54062 530.0131 444.35312Q529.3569 444.15 528.81 443.775Q528.2631 443.38437 527.935 442.82187Q527.6069 442.25937 527.6069 441.50937L528.9194 441.50937Q528.9194 442.025 529.1225 442.4Q529.3256 442.75937 529.6694 443.00937Q530.0131 443.24374 530.4506 443.35312Q530.8881 443.4625 531.3725 443.4625Q532.06 443.4625 532.5444 443.275Q533.02875 443.0875 533.2631 442.72812Q533.5131 442.36874 533.5131 441.88437ZM539.8881 440.49374L537.2319 440.49374L537.2319 439.41562L539.8881 439.41562Q540.65375 439.41562 541.1381 439.18124Q541.6225 438.93124 541.84125 438.49374Q542.06 438.05624 542.06 437.49374Q542.06 436.97812 541.84125 436.54062Q541.6225 436.0875 541.1381 435.80624Q540.65375 435.525 539.8881 435.525L537.52875 435.525L537.52875 444.4L536.21625 444.4L536.21625 434.44687L539.8881 434.44687Q541.0131 434.44687 541.7944 434.8375Q542.5756 435.22812 542.96625 435.91562Q543.3725 436.60312 543.3725 437.47812Q543.3725 438.43124 542.96625 439.11874Q542.5756 439.79062 541.7944 440.15Q541.0131 440.49374 539.8881 440.49374ZM545.21625 434.44687L548.5131 434.44687Q549.6381 434.44687 550.40375 434.79062Q551.185 435.13437 551.59125 435.80624Q551.9975 436.4625 551.9975 437.43124Q551.9975 438.11874 551.71625 438.68124Q551.4506 439.24374 550.9194 439.63437Q550.40375 440.025 549.7006 440.22812L549.3256 440.36874L546.2319 440.36874L546.21625 439.29062L548.5444 439.29062Q549.2631 439.29062 549.7319 439.04062Q550.2006 438.79062 550.435 438.36874Q550.685 437.94687 550.685 437.43124Q550.685 436.85312 550.4506 436.43124Q550.2319 435.99374 549.7475 435.75937Q549.2631 435.525 548.5131 435.525L546.52875 435.525L546.52875 444.4L545.21625 444.4L545.21625 434.44687ZM551.02875 444.4L548.6069 439.88437L549.9819 439.88437L552.435 444.32187L552.435 444.4L551.02875 444.4ZM555.6381 434.44687L555.6381 444.4L554.31 444.4L554.31 434.44687L555.6381 434.44687ZM565.8725 434.44687L565.8725 444.4L564.5444 444.4L559.52875 436.72812L559.52875 444.4L558.21625 444.4L558.21625 434.44687L559.52875 434.44687L564.56 442.15L564.56 434.44687L565.8725 434.44687ZM571.8881 434.44687L571.8881 444.4L570.59125 444.4L570.59125 434.44687L571.8881 434.44687ZM575.09125 434.44687L575.09125 435.525L567.40375 435.525L567.40375 434.44687L575.09125 434.44687ZM585.6069 441.05624L585.6069 442.0875L578.4194 442.0875L578.4194 441.3375L582.8725 434.44687L583.9194 434.44687L582.81 436.44687L579.8569 441.05624L585.6069 441.05624ZM584.2319 434.44687L584.2319 444.4L582.96625 444.4L582.96625 434.44687L584.2319 434.44687Z" fill-rule="nonzero"/><path fill="#000000" d="M678.0731 441.88437Q678.0731 441.54062 677.96375 441.275Q677.87 440.99374 677.6044 440.775Q677.33875 440.55624 676.87 440.36874Q676.4169 440.16562 675.71375 439.9625Q674.9794 439.74374 674.3856 439.47812Q673.7919 439.19687 673.3544 438.85312Q672.9325 438.49374 672.71375 438.05624Q672.495 437.60312 672.495 437.00937Q672.495 436.43124 672.7294 435.94687Q672.96375 435.44687 673.4169 435.0875Q673.87 434.7125 674.4794 434.50937Q675.1044 434.30624 675.87 434.30624Q676.995 434.30624 677.77625 434.74374Q678.5575 435.16562 678.96375 435.85312Q679.3856 436.54062 679.3856 437.32187L678.0731 437.32187Q678.0731 436.75937 677.8231 436.32187Q677.58875 435.88437 677.1044 435.63437Q676.62 435.38437 675.87 435.38437Q675.1669 435.38437 674.6981 435.60312Q674.245 435.80624 674.02625 436.18124Q673.8075 436.54062 673.8075 437.00937Q673.8075 437.32187 673.9325 437.5875Q674.0731 437.8375 674.3544 438.05624Q674.6356 438.275 675.0731 438.4625Q675.52625 438.63437 676.1356 438.80624Q676.9794 439.04062 677.58875 439.3375Q678.21375 439.63437 678.6044 440.00937Q679.0106 440.36874 679.1981 440.8375Q679.40125 441.29062 679.40125 441.86874Q679.40125 442.47812 679.15125 442.97812Q678.9169 443.4625 678.4481 443.82187Q677.995 444.16562 677.3544 444.35312Q676.71375 444.54062 675.9325 444.54062Q675.245 444.54062 674.5731 444.35312Q673.9169 444.15 673.37 443.775Q672.8231 443.38437 672.495 442.82187Q672.1669 442.25937 672.1669 441.50937L673.4794 441.50937Q673.4794 442.025 673.6825 442.4Q673.8856 442.75937 674.2294 443.00937Q674.5731 443.24374 675.0106 443.35312Q675.4481 443.4625 675.9325 443.4625Q676.62 443.4625 677.1044 443.275Q677.58875 443.0875 677.8231 442.72812Q678.0731 442.36874 678.0731 441.88437ZM684.4481 440.49374L681.7919 440.49374L681.7919 439.41562L684.4481 439.41562Q685.21375 439.41562 685.6981 439.18124Q686.1825 438.93124 686.40125 438.49374Q686.62 438.05624 686.62 437.49374Q686.62 436.97812 686.40125 436.54062Q686.1825 436.0875 685.6981 435.80624Q685.21375 435.525 684.4481 435.525L682.08875 435.525L682.08875 444.4L680.77625 444.4L680.77625 434.44687L684.4481 434.44687Q685.5731 434.44687 686.3544 434.8375Q687.1356 435.22812 687.52625 435.91562Q687.9325 436.60312 687.9325 437.47812Q687.9325 438.43124 687.52625 439.11874Q687.1356 439.79062 686.3544 440.15Q685.5731 440.49374 684.4481 440.49374ZM689.77625 434.44687L693.0731 434.44687Q694.1981 434.44687 694.96375 434.79062Q695.745 435.13437 696.15125 435.80624Q696.5575 436.4625 696.5575 437.43124Q696.5575 438.11874 696.27625 438.68124Q696.0106 439.24374 695.4794 439.63437Q694.96375 440.025 694.2606 440.22812L693.8856 440.36874L690.7919 440.36874L690.77625 439.29062L693.1044 439.29062Q693.8231 439.29062 694.2919 439.04062Q694.7606 438.79062 694.995 438.36874Q695.245 437.94687 695.245 437.43124Q695.245 436.85312 695.0106 436.43124Q694.7919 435.99374 694.3075 435.75937Q693.8231 435.525 693.0731 435.525L691.08875 435.525L691.08875 444.4L689.77625 444.4L689.77625 434.44687ZM695.58875 444.4L693.1669 439.88437L694.5419 439.88437L696.995 444.32187L696.995 444.4L695.58875 444.4ZM700.1981 434.44687L700.1981 444.4L698.87 444.4L698.87 434.44687L700.1981 434.44687ZM710.4325 434.44687L710.4325 444.4L709.1044 444.4L704.08875 436.72812L704.08875 444.4L702.77625 444.4L702.77625 434.44687L704.08875 434.44687L709.12 442.15L709.12 434.44687L710.4325 434.44687ZM716.4481 434.44687L716.4481 444.4L715.15125 444.4L715.15125 434.44687L716.4481 434.44687ZM719.65125 434.44687L719.65125 435.525L711.96375 435.525L711.96375 434.44687L719.65125 434.44687ZM725.0419 439.66562L724.0419 439.4L724.5419 434.44687L729.6356 434.44687L729.6356 435.61874L725.6044 435.61874L725.3075 438.32187Q725.5731 438.16562 725.995 438.025Q726.4169 437.88437 726.96375 437.88437Q727.65125 437.88437 728.1981 438.13437Q728.745 438.36874 729.1356 438.80624Q729.52625 439.24374 729.7294 439.85312Q729.9325 440.4625 729.9325 441.22812Q729.9325 441.94687 729.7294 442.55624Q729.5419 443.15 729.15125 443.60312Q728.7606 444.04062 728.1669 444.29062Q727.58875 444.54062 726.77625 444.54062Q726.1825 444.54062 725.6356 444.36874Q725.1044 444.19687 724.6825 443.85312Q724.2606 443.50937 723.995 442.99374Q723.745 442.47812 723.6669 441.775L724.87 441.775Q724.96375 442.3375 725.1981 442.72812Q725.4481 443.10312 725.83875 443.30624Q726.245 443.49374 726.77625 443.49374Q727.2294 443.49374 727.5731 443.3375Q727.9325 443.18124 728.1669 442.88437Q728.4169 442.5875 728.5419 442.18124Q728.6669 441.75937 728.6669 441.24374Q728.6669 440.775 728.52625 440.36874Q728.40125 439.9625 728.1356 439.66562Q727.8856 439.36874 727.5106 439.19687Q727.15125 439.025 726.6669 439.025Q726.0419 439.025 725.71375 439.19687Q725.3856 439.36874 725.0419 439.66562Z" fill-rule="nonzero"/><path fill="#9900ff" d="M199.5 32.1C199.5 35.413708 196.8137 38.1 193.5 38.1C190.1863 38.1 187.5 35.413708 187.5 32.1C187.5 28.786291 190.1863 26.1 193.5 26.1C196.8137 26.1 199.5 28.786291 199.5 32.1Z" fill-rule="nonzero"/><path fill="#1a1a1a" d="M212.84375 26.646873L212.84375 36.6L210.79688 36.6L210.79688 26.646873L212.84375 26.646873ZM215.90625 26.646873L215.90625 28.256248L207.78125 28.256248L207.78125 26.646873L215.90625 26.646873ZM224.0625 35.00625L224.0625 36.6L218.76562 36.6L218.76562 35.00625L224.0625 35.00625ZM219.4375 26.646873L219.4375 36.6L217.39062 36.6L217.39062 26.646873L219.4375 26.646873ZM223.375 30.693748L223.375 32.25625L218.76562 32.25625L218.76562 30.693748L223.375 30.693748ZM224.0625 26.646873L224.0625 28.256248L218.76562 28.256248L218.76562 26.646873L224.0625 26.646873Z" fill-rule="nonzero"/><path stroke="#ff0000" stroke-width="4.0" stroke-linecap="butt" stroke-dasharray="13.0,9.0" d="M240.5 32.1L275.5 32.1" fill-rule="nonzero"/><path fill="#1a1a1a" d="M290.78125 35.00625L290.78125 36.6L285.78125 36.6L285.78125 35.00625L290.78125 35.00625ZM286.4375 26.646873L286.4375 36.6L284.39062 36.6L284.39062 26.646873L286.4375 26.646873ZM294.34375 29.209373L294.34375 36.6L292.375 36.6L292.375 29.209373L294.34375 29.209373ZM292.25 27.271873Q292.25 26.849998 292.54688 26.568748Q292.84375 26.287498 293.35938 26.287498Q293.85938 26.287498 294.15625 26.568748Q294.45312 26.849998 294.45312 27.271873Q294.45312 27.709373 294.15625 27.990623Q293.85938 28.271873 293.35938 28.271873Q292.84375 28.271873 292.54688 27.990623Q292.25 27.709373 292.25 27.271873ZM298.23438 30.740623L298.23438 36.6L296.26562 36.6L296.26562 29.209373L298.10938 29.209373L298.23438 30.740623ZM297.95312 32.646873L297.42188 32.646873Q297.42188 31.865623 297.60938 31.224998Q297.79688 30.568748 298.15625 30.084373Q298.51562 29.599998 299.0625 29.334373Q299.60938 29.068748 300.3125 29.068748Q300.8125 29.068748 301.21875 29.224998Q301.625 29.365623 301.92188 29.678123Q302.21875 29.974998 302.375 30.474998Q302.54688 30.974998 302.54688 31.662498L302.54688 36.6L300.57812 36.6L300.57812 31.881248Q300.57812 31.381248 300.4375 31.115623Q300.3125 30.834373 300.0625 30.724998Q299.8125 30.615623 299.45312 30.615623Q299.07812 30.615623 298.79688 30.771873Q298.51562 30.928123 298.32812 31.209373Q298.14062 31.474998 298.04688 31.849998Q297.95312 32.225 297.95312 32.646873ZM302.35938 32.4125L301.65625 32.50625Q301.65625 31.787498 301.82812 31.162498Q302.01562 30.537498 302.375 30.068748Q302.73438 29.599998 303.26562 29.334373Q303.8125 29.068748 304.5 29.068748Q305.03125 29.068748 305.46875 29.224998Q305.90625 29.381248 306.21875 29.709373Q306.53125 30.037498 306.70312 30.568748Q306.875 31.099998 306.875 31.881248L306.875 36.6L304.89062 36.6L304.89062 31.881248Q304.89062 31.365623 304.75 31.099998Q304.625 30.818748 304.375 30.724998Q304.125 30.615623 303.78125 30.615623Q303.4375 30.615623 303.15625 30.756248Q302.89062 30.896873 302.71875 31.146873Q302.54688 31.381248 302.45312 31.709373Q302.35938 32.0375 302.35938 32.4125ZM310.34375 29.209373L310.34375 36.6L308.375 36.6L308.375 29.209373L310.34375 29.209373ZM308.25 27.271873Q308.25 26.849998 308.54688 26.568748Q308.84375 26.287498 309.35938 26.287498Q309.85938 26.287498 310.15625 26.568748Q310.45312 26.849998 310.45312 27.271873Q310.45312 27.709373 310.15625 27.990623Q309.85938 28.271873 309.35938 28.271873Q308.84375 28.271873 308.54688 27.990623Q308.25 27.709373 308.25 27.271873ZM315.89062 29.209373L315.89062 30.599998L311.57812 30.599998L311.57812 29.209373L315.89062 29.209373ZM312.65625 27.381248L314.625 27.381248L314.625 34.365623Q314.625 34.69375 314.70312 34.865623Q314.78125 35.0375 314.95312 35.1Q315.125 35.1625 315.39062 35.1625Q315.57812 35.1625 315.71875 35.146873Q315.875 35.13125 315.96875 35.115623L315.98438 36.553123Q315.71875 36.646873 315.42188 36.69375Q315.14062 36.740623 314.78125 36.740623Q314.125 36.740623 313.64062 36.521873Q313.17188 36.303123 312.90625 35.834373Q312.65625 35.35 312.65625 34.56875L312.65625 27.381248ZM320.67188 36.740623Q319.8125 36.740623 319.125 36.459373Q318.4375 36.178123 317.95312 35.69375Q317.48438 35.19375 317.23438 34.553123Q316.98438 33.896873 316.98438 33.146873L316.98438 32.88125Q316.98438 32.0375 317.21875 31.349998Q317.46875 30.646873 317.90625 30.131248Q318.35938 29.615623 319.0 29.349998Q319.64062 29.068748 320.45312 29.068748Q321.23438 29.068748 321.84375 29.334373Q322.45312 29.584373 322.85938 30.068748Q323.28125 30.537498 323.48438 31.209373Q323.70312 31.881248 323.70312 32.69375L323.70312 33.50625L317.82812 33.50625L317.82812 32.19375L321.76562 32.19375L321.76562 32.053123Q321.76562 31.631248 321.625 31.318748Q321.48438 30.990623 321.1875 30.803123Q320.89062 30.599998 320.4375 30.599998Q320.04688 30.599998 319.76562 30.771873Q319.48438 30.943748 319.29688 31.256248Q319.125 31.568748 319.04688 31.974998Q318.96875 32.38125 318.96875 32.88125L318.96875 33.146873Q318.96875 33.6 319.09375 33.975Q319.21875 34.35 319.45312 34.63125Q319.6875 34.896873 320.01562 35.053123Q320.35938 35.19375 320.79688 35.19375Q321.32812 35.19375 321.78125 34.990623Q322.25 34.7875 322.57812 34.35L323.54688 35.396873Q323.3125 35.725 322.90625 36.0375Q322.51562 36.35 321.95312 36.553123Q321.39062 36.740623 320.67188 36.740623ZM332.26562 34.928123L332.26562 31.631248Q332.26562 31.287498 332.14062 31.037498Q332.03125 30.771873 331.78125 30.631248Q331.54688 30.474998 331.15625 30.474998Q330.82812 30.474998 330.57812 30.599998Q330.34375 30.709373 330.21875 30.928123Q330.09375 31.131248 330.09375 31.396873L328.125 31.396873Q328.125 30.928123 328.34375 30.506248Q328.5625 30.084373 328.96875 29.756248Q329.39062 29.428123 329.96875 29.256248Q330.54688 29.068748 331.26562 29.068748Q332.125 29.068748 332.79688 29.365623Q333.46875 29.646873 333.84375 30.224998Q334.23438 30.787498 334.23438 31.646873L334.23438 34.81875Q334.23438 35.428123 334.3125 35.81875Q334.39062 36.19375 334.53125 36.490623L334.53125 36.6L332.54688 36.6Q332.40625 36.303123 332.32812 35.85Q332.26562 35.396873 332.26562 34.928123ZM332.51562 32.1L332.53125 33.209373L331.4375 33.209373Q331.04688 33.209373 330.75 33.303123Q330.46875 33.38125 330.28125 33.553123Q330.09375 33.709373 330.0 33.928123Q329.92188 34.13125 329.92188 34.38125Q329.92188 34.63125 330.03125 34.834373Q330.15625 35.0375 330.375 35.1625Q330.59375 35.271873 330.89062 35.271873Q331.32812 35.271873 331.65625 35.1Q331.98438 34.9125 332.17188 34.6625Q332.35938 34.396873 332.35938 34.1625L332.875 34.990623Q332.76562 35.271873 332.57812 35.584373Q332.39062 35.88125 332.10938 36.146873Q331.82812 36.396873 331.42188 36.56875Q331.01562 36.740623 330.45312 36.740623Q329.75 36.740623 329.17188 36.459373Q328.60938 36.1625 328.28125 35.6625Q327.95312 35.1625 327.95312 34.521873Q327.95312 33.94375 328.17188 33.490623Q328.39062 33.0375 328.8125 32.725Q329.25 32.4125 329.89062 32.25625Q330.53125 32.1 331.375 32.1L332.51562 32.1ZM339.32812 35.19375Q339.6875 35.19375 339.96875 35.053123Q340.25 34.9125 340.40625 34.6625Q340.5625 34.4125 340.57812 34.053123L342.42188 34.053123Q342.42188 34.834373 342.0 35.44375Q341.59375 36.053123 340.90625 36.396873Q340.21875 36.740623 339.35938 36.740623Q338.5 36.740623 337.85938 36.459373Q337.21875 36.1625 336.79688 35.6625Q336.375 35.146873 336.15625 34.475Q335.95312 33.7875 335.95312 33.00625L335.95312 32.803123Q335.95312 32.021873 336.15625 31.349998Q336.375 30.662498 336.79688 30.162498Q337.21875 29.646873 337.85938 29.365623Q338.5 29.068748 339.34375 29.068748Q340.26562 29.068748 340.9375 29.412498Q341.625 29.756248 342.01562 30.412498Q342.42188 31.053123 342.42188 31.943748L340.57812 31.943748Q340.5625 31.568748 340.40625 31.271873Q340.26562 30.959373 339.98438 30.787498Q339.71875 30.599998 339.3125 30.599998Q338.89062 30.599998 338.60938 30.787498Q338.34375 30.959373 338.1875 31.271873Q338.03125 31.584373 337.96875 31.990623Q337.92188 32.38125 337.92188 32.803123L337.92188 33.00625Q337.92188 33.428123 337.96875 33.834373Q338.03125 34.225 338.1875 34.5375Q338.34375 34.85 338.60938 35.021873Q338.89062 35.19375 339.32812 35.19375ZM346.32812 35.19375Q346.6875 35.19375 346.96875 35.053123Q347.25 34.9125 347.40625 34.6625Q347.5625 34.4125 347.57812 34.053123L349.42188 34.053123Q349.42188 34.834373 349.0 35.44375Q348.59375 36.053123 347.90625 36.396873Q347.21875 36.740623 346.35938 36.740623Q345.5 36.740623 344.85938 36.459373Q344.21875 36.1625 343.79688 35.6625Q343.375 35.146873 343.15625 34.475Q342.95312 33.7875 342.95312 33.00625L342.95312 32.803123Q342.95312 32.021873 343.15625 31.349998Q343.375 30.662498 343.79688 30.162498Q344.21875 29.646873 344.85938 29.365623Q345.5 29.068748 346.34375 29.068748Q347.26562 29.068748 347.9375 29.412498Q348.625 29.756248 349.01562 30.412498Q349.42188 31.053123 349.42188 31.943748L347.57812 31.943748Q347.5625 31.568748 347.40625 31.271873Q347.26562 30.959373 346.98438 30.787498Q346.71875 30.599998 346.3125 30.599998Q345.89062 30.599998 345.60938 30.787498Q345.34375 30.959373 345.1875 31.271873Q345.03125 31.584373 344.96875 31.990623Q344.92188 32.38125 344.92188 32.803123L344.92188 33.00625Q344.92188 33.428123 344.96875 33.834373Q345.03125 34.225 345.1875 34.5375Q345.34375 34.85 345.60938 35.021873Q345.89062 35.19375 346.32812 35.19375ZM353.67188 36.740623Q352.8125 36.740623 352.125 36.459373Q351.4375 36.178123 350.95312 35.69375Q350.48438 35.19375 350.23438 34.553123Q349.98438 33.896873 349.98438 33.146873L349.98438 32.88125Q349.98438 32.0375 350.21875 31.349998Q350.46875 30.646873 350.90625 30.131248Q351.35938 29.615623 352.0 29.349998Q352.64062 29.068748 353.45312 29.068748Q354.23438 29.068748 354.84375 29.334373Q355.45312 29.584373 355.85938 30.068748Q356.28125 30.537498 356.48438 31.209373Q356.70312 31.881248 356.70312 32.69375L356.70312 33.50625L350.82812 33.50625L350.82812 32.19375L354.76562 32.19375L354.76562 32.053123Q354.76562 31.631248 354.625 31.318748Q354.48438 30.990623 354.1875 30.803123Q353.89062 30.599998 353.4375 30.599998Q353.04688 30.599998 352.76562 30.771873Q352.48438 30.943748 352.29688 31.256248Q352.125 31.568748 352.04688 31.974998Q351.96875 32.38125 351.96875 32.88125L351.96875 33.146873Q351.96875 33.6 352.09375 33.975Q352.21875 34.35 352.45312 34.63125Q352.6875 34.896873 353.01562 35.053123Q353.35938 35.19375 353.79688 35.19375Q354.32812 35.19375 354.78125 34.990623Q355.25 34.7875 355.57812 34.35L356.54688 35.396873Q356.3125 35.725 355.90625 36.0375Q355.51562 36.35 354.95312 36.553123Q354.39062 36.740623 353.67188 36.740623ZM361.89062 29.209373L361.89062 30.599998L357.57812 30.599998L357.57812 29.209373L361.89062 29.209373ZM358.65625 27.381248L360.625 27.381248L360.625 34.365623Q360.625 34.69375 360.70312 34.865623Q360.78125 35.0375 360.95312 35.1Q361.125 35.1625 361.39062 35.1625Q361.57812 35.1625 361.71875 35.146873Q361.875 35.13125 361.96875 35.115623L361.98438 36.553123Q361.71875 36.646873 361.42188 36.69375Q361.14062 36.740623 360.78125 36.740623Q360.125 36.740623 359.64062 36.521873Q359.17188 36.303123 358.90625 35.834373Q358.65625 35.35 358.65625 34.56875L358.65625 27.381248ZM366.89062 29.209373L366.89062 30.599998L362.57812 30.599998L362.57812 29.209373L366.89062 29.209373ZM363.65625 27.381248L365.625 27.381248L365.625 34.365623Q365.625 34.69375 365.70312 34.865623Q365.78125 35.0375 365.95312 35.1Q366.125 35.1625 366.39062 35.1625Q366.57812 35.1625 366.71875 35.146873Q366.875 35.13125 366.96875 35.115623L366.98438 36.553123Q366.71875 36.646873 366.42188 36.69375Q366.14062 36.740623 365.78125 36.740623Q365.125 36.740623 364.64062 36.521873Q364.17188 36.303123 363.90625 35.834373Q363.65625 35.35 363.65625 34.56875L363.65625 27.381248ZM372.26562 34.928123L372.26562 31.631248Q372.26562 31.287498 372.14062 31.037498Q372.03125 30.771873 371.78125 30.631248Q371.54688 30.474998 371.15625 30.474998Q370.82812 30.474998 370.57812 30.599998Q370.34375 30.709373 370.21875 30.928123Q370.09375 31.131248 370.09375 31.396873L368.125 31.396873Q368.125 30.928123 368.34375 30.506248Q368.5625 30.084373 368.96875 29.756248Q369.39062 29.428123 369.96875 29.256248Q370.54688 29.068748 371.26562 29.068748Q372.125 29.068748 372.79688 29.365623Q373.46875 29.646873 373.84375 30.224998Q374.23438 30.787498 374.23438 31.646873L374.23438 34.81875Q374.23438 35.428123 374.3125 35.81875Q374.39062 36.19375 374.53125 36.490623L374.53125 36.6L372.54688 36.6Q372.40625 36.303123 372.32812 35.85Q372.26562 35.396873 372.26562 34.928123ZM372.51562 32.1L372.53125 33.209373L371.4375 33.209373Q371.04688 33.209373 370.75 33.303123Q370.46875 33.38125 370.28125 33.553123Q370.09375 33.709373 370.0 33.928123Q369.92188 34.13125 369.92188 34.38125Q369.92188 34.63125 370.03125 34.834373Q370.15625 35.0375 370.375 35.1625Q370.59375 35.271873 370.89062 35.271873Q371.32812 35.271873 371.65625 35.1Q371.98438 34.9125 372.17188 34.6625Q372.35938 34.396873 372.35938 34.1625L372.875 34.990623Q372.76562 35.271873 372.57812 35.584373Q372.39062 35.88125 372.10938 36.146873Q371.82812 36.396873 371.42188 36.56875Q371.01562 36.740623 370.45312 36.740623Q369.75 36.740623 369.17188 36.459373Q368.60938 36.1625 368.28125 35.6625Q367.95312 35.1625 367.95312 34.521873Q367.95312 33.94375 368.17188 33.490623Q368.39062 33.0375 368.8125 32.725Q369.25 32.4125 369.89062 32.25625Q370.53125 32.1 371.375 32.1L372.51562 32.1ZM376.26562 26.099998L378.23438 26.099998L378.23438 34.896873L378.03125 36.6L376.26562 36.6L376.26562 26.099998ZM382.92188 32.81875L382.92188 32.975Q382.92188 33.803123 382.73438 34.490623Q382.5625 35.178123 382.20312 35.678123Q381.84375 36.178123 381.29688 36.459373Q380.76562 36.740623 380.04688 36.740623Q379.375 36.740623 378.875 36.475Q378.375 36.19375 378.03125 35.69375Q377.70312 35.19375 377.5 34.521873Q377.29688 33.85 377.20312 33.053123L377.20312 32.740623Q377.29688 31.943748 377.5 31.287498Q377.70312 30.615623 378.03125 30.115623Q378.375 29.615623 378.85938 29.349998Q379.35938 29.068748 380.03125 29.068748Q380.76562 29.068748 381.29688 29.349998Q381.84375 29.615623 382.20312 30.131248Q382.5625 30.631248 382.73438 31.318748Q382.92188 32.00625 382.92188 32.81875ZM380.95312 32.975L380.95312 32.81875Q380.95312 32.38125 380.875 31.974998Q380.8125 31.568748 380.65625 31.271873Q380.5 30.959373 380.23438 30.787498Q379.96875 30.615623 379.54688 30.615623Q379.14062 30.615623 378.85938 30.756248Q378.57812 30.881248 378.39062 31.131248Q378.21875 31.381248 378.125 31.724998Q378.03125 32.053123 378.01562 32.459373L378.01562 33.35Q378.03125 33.896873 378.1875 34.31875Q378.35938 34.725 378.6875 34.959373Q379.01562 35.19375 379.54688 35.19375Q379.96875 35.19375 380.23438 35.0375Q380.51562 34.865623 380.67188 34.56875Q380.82812 34.25625 380.89062 33.85Q380.95312 33.44375 380.95312 32.975ZM386.34375 29.209373L386.34375 36.6L384.375 36.6L384.375 29.209373L386.34375 29.209373ZM384.25 27.271873Q384.25 26.849998 384.54688 26.568748Q384.84375 26.287498 385.35938 26.287498Q385.85938 26.287498 386.15625 26.568748Q386.45312 26.849998 386.45312 27.271873Q386.45312 27.709373 386.15625 27.990623Q385.85938 28.271873 385.35938 28.271873Q384.84375 28.271873 384.54688 27.990623Q384.25 27.709373 384.25 27.271873ZM390.34375 26.099998L390.34375 36.6L388.375 36.6L388.375 26.099998L390.34375 26.099998ZM395.67188 36.740623Q394.8125 36.740623 394.125 36.459373Q393.4375 36.178123 392.95312 35.69375Q392.48438 35.19375 392.23438 34.553123Q391.98438 33.896873 391.98438 33.146873L391.98438 32.88125Q391.98438 32.0375 392.21875 31.349998Q392.46875 30.646873 392.90625 30.131248Q393.35938 29.615623 394.0 29.349998Q394.64062 29.068748 395.45312 29.068748Q396.23438 29.068748 396.84375 29.334373Q397.45312 29.584373 397.85938 30.068748Q398.28125 30.537498 398.48438 31.209373Q398.70312 31.881248 398.70312 32.69375L398.70312 33.50625L392.82812 33.50625L392.82812 32.19375L396.76562 32.19375L396.76562 32.053123Q396.76562 31.631248 396.625 31.318748Q396.48438 30.990623 396.1875 30.803123Q395.89062 30.599998 395.4375 30.599998Q395.04688 30.599998 394.76562 30.771873Q394.48438 30.943748 394.29688 31.256248Q394.125 31.568748 394.04688 31.974998Q393.96875 32.38125 393.96875 32.88125L393.96875 33.146873Q393.96875 33.6 394.09375 33.975Q394.21875 34.35 394.45312 34.63125Q394.6875 34.896873 395.01562 35.053123Q395.35938 35.19375 395.79688 35.19375Q396.32812 35.19375 396.78125 34.990623Q397.25 34.7875 397.57812 34.35L398.54688 35.396873Q398.3125 35.725 397.90625 36.0375Q397.51562 36.35 396.95312 36.553123Q396.39062 36.740623 395.67188 36.740623ZM407.26562 34.553123Q407.26562 34.35 407.14062 34.178123Q407.01562 34.00625 406.6875 33.865623Q406.35938 33.709373 405.73438 33.584373Q405.17188 33.459373 404.6875 33.271873Q404.20312 33.084373 403.84375 32.81875Q403.5 32.553123 403.29688 32.19375Q403.10938 31.818748 403.10938 31.349998Q403.10938 30.881248 403.3125 30.474998Q403.51562 30.068748 403.89062 29.756248Q404.26562 29.428123 404.8125 29.256248Q405.375 29.068748 406.0625 29.068748Q407.03125 29.068748 407.71875 29.381248Q408.40625 29.678123 408.78125 30.224998Q409.15625 30.756248 409.15625 31.443748L407.1875 31.443748Q407.1875 31.146873 407.0625 30.928123Q406.95312 30.693748 406.70312 30.568748Q406.45312 30.428123 406.0625 30.428123Q405.73438 30.428123 405.48438 30.537498Q405.25 30.646873 405.125 30.834373Q405.0 31.021873 405.0 31.256248Q405.0 31.428123 405.0625 31.568748Q405.14062 31.693748 405.29688 31.803123Q405.46875 31.912498 405.73438 32.00625Q406.0 32.1 406.39062 32.1625Q407.1875 32.334373 407.8125 32.6Q408.4375 32.865623 408.79688 33.31875Q409.17188 33.75625 409.17188 34.475Q409.17188 34.975 408.95312 35.38125Q408.73438 35.7875 408.32812 36.1Q407.92188 36.396873 407.34375 36.56875Q406.78125 36.740623 406.0625 36.740623Q405.03125 36.740623 404.3125 36.365623Q403.60938 35.990623 403.23438 35.428123Q402.875 34.85 402.875 34.25625L404.75 34.25625Q404.75 34.6625 404.9375 34.9125Q405.14062 35.146873 405.4375 35.25625Q405.75 35.365623 406.10938 35.365623Q406.5 35.365623 406.75 35.271873Q407.0 35.1625 407.125 34.975Q407.26562 34.7875 407.26562 34.553123ZM414.64062 34.834373L414.64062 29.209373L416.60938 29.209373L416.60938 36.6L414.75 36.6L414.64062 34.834373ZM414.85938 33.31875L415.4375 33.303123Q415.4375 34.0375 415.26562 34.678123Q415.09375 35.303123 414.75 35.771873Q414.42188 36.225 413.89062 36.490623Q413.375 36.740623 412.67188 36.740623Q412.125 36.740623 411.67188 36.584373Q411.21875 36.428123 410.89062 36.1Q410.57812 35.771873 410.39062 35.25625Q410.21875 34.725 410.21875 33.975L410.21875 29.209373L412.1875 29.209373L412.1875 33.990623Q412.1875 34.31875 412.26562 34.553123Q412.34375 34.771873 412.48438 34.928123Q412.625 35.06875 412.8125 35.13125Q413.01562 35.178123 413.25 35.178123Q413.85938 35.178123 414.20312 34.94375Q414.5625 34.69375 414.70312 34.271873Q414.85938 33.834373 414.85938 33.31875ZM420.23438 30.631248L420.23438 39.44375L418.26562 39.44375L418.26562 29.209373L420.09375 29.209373L420.23438 30.631248ZM424.92188 32.81875L424.92188 32.959373Q424.92188 33.771873 424.73438 34.459373Q424.54688 35.146873 424.17188 35.6625Q423.8125 36.1625 423.28125 36.459373Q422.75 36.740623 422.04688 36.740623Q421.375 36.740623 420.875 36.475Q420.375 36.19375 420.03125 35.69375Q419.6875 35.19375 419.48438 34.5375Q419.28125 33.88125 419.17188 33.13125L419.17188 32.75625Q419.28125 31.943748 419.48438 31.271873Q419.6875 30.599998 420.03125 30.115623Q420.375 29.615623 420.85938 29.349998Q421.35938 29.068748 422.03125 29.068748Q422.73438 29.068748 423.26562 29.334373Q423.8125 29.599998 424.17188 30.099998Q424.54688 30.599998 424.73438 31.287498Q424.92188 31.974998 424.92188 32.81875ZM422.95312 32.959373L422.95312 32.81875Q422.95312 32.35 422.85938 31.959373Q422.78125 31.553123 422.60938 31.256248Q422.45312 30.943748 422.17188 30.787498Q421.90625 30.615623 421.53125 30.615623Q421.125 30.615623 420.84375 30.740623Q420.5625 30.865623 420.375 31.115623Q420.20312 31.365623 420.10938 31.709373Q420.01562 32.053123 420.0 32.475L420.0 33.428123Q420.03125 33.928123 420.1875 34.334373Q420.34375 34.740623 420.67188 34.975Q421.0 35.19375 421.54688 35.19375Q421.9375 35.19375 422.20312 35.021873Q422.46875 34.85 422.625 34.553123Q422.79688 34.240623 422.875 33.834373Q422.95312 33.428123 422.95312 32.959373ZM429.67188 36.740623Q428.8125 36.740623 428.125 36.459373Q427.4375 36.178123 426.95312 35.69375Q426.48438 35.19375 426.23438 34.553123Q425.98438 33.896873 425.98438 33.146873L425.98438 32.88125Q425.98438 32.0375 426.21875 31.349998Q426.46875 30.646873 426.90625 30.131248Q427.35938 29.615623 428.0 29.349998Q428.64062 29.068748 429.45312 29.068748Q430.23438 29.068748 430.84375 29.334373Q431.45312 29.584373 431.85938 30.068748Q432.28125 30.537498 432.48438 31.209373Q432.70312 31.881248 432.70312 32.69375L432.70312 33.50625L426.82812 33.50625L426.82812 32.19375L430.76562 32.19375L430.76562 32.053123Q430.76562 31.631248 430.625 31.318748Q430.48438 30.990623 430.1875 30.803123Q429.89062 30.599998 429.4375 30.599998Q429.04688 30.599998 428.76562 30.771873Q428.48438 30.943748 428.29688 31.256248Q428.125 31.568748 428.04688 31.974998Q427.96875 32.38125 427.96875 32.88125L427.96875 33.146873Q427.96875 33.6 428.09375 33.975Q428.21875 34.35 428.45312 34.63125Q428.6875 34.896873 429.01562 35.053123Q429.35938 35.19375 429.79688 35.19375Q430.32812 35.19375 430.78125 34.990623Q431.25 34.7875 431.57812 34.35L432.54688 35.396873Q432.3125 35.725 431.90625 36.0375Q431.51562 36.35 430.95312 36.553123Q430.39062 36.740623 429.67188 36.740623ZM436.23438 30.818748L436.23438 36.6L434.26562 36.6L434.26562 29.209373L436.125 29.209373L436.23438 30.818748ZM438.46875 29.162498L438.42188 30.974998Q438.28125 30.959373 438.07812 30.943748Q437.875 30.928123 437.71875 30.928123Q437.29688 30.928123 436.98438 31.037498Q436.6875 31.131248 436.48438 31.334373Q436.29688 31.537498 436.1875 31.834373Q436.09375 32.13125 436.07812 32.50625L435.6875 32.38125Q435.6875 31.678123 435.82812 31.068748Q435.96875 30.459373 436.23438 30.006248Q436.51562 29.553123 436.92188 29.318748Q437.32812 29.068748 437.84375 29.068748Q438.01562 29.068748 438.1875 29.099998Q438.35938 29.115623 438.46875 29.162498ZM441.34375 29.209373L441.34375 36.6L439.375 36.6L439.375 29.209373L441.34375 29.209373ZM439.25 27.271873Q439.25 26.849998 439.54688 26.568748Q439.84375 26.287498 440.35938 26.287498Q440.85938 26.287498 441.15625 26.568748Q441.45312 26.849998 441.45312 27.271873Q441.45312 27.709373 441.15625 27.990623Q440.85938 28.271873 440.35938 28.271873Q439.84375 28.271873 439.54688 27.990623Q439.25 27.709373 439.25 27.271873ZM442.95312 32.975L442.95312 32.834373Q442.95312 32.021873 443.1875 31.334373Q443.42188 30.646873 443.85938 30.146873Q444.3125 29.631248 444.95312 29.349998Q445.60938 29.068748 446.4375 29.068748Q447.28125 29.068748 447.9375 29.349998Q448.59375 29.631248 449.04688 30.146873Q449.5 30.646873 449.71875 31.334373Q449.95312 32.021873 449.95312 32.834373L449.95312 32.975Q449.95312 33.7875 449.71875 34.475Q449.5 35.1625 449.04688 35.678123Q448.59375 36.178123 447.9375 36.459373Q447.29688 36.740623 446.45312 36.740623Q445.625 36.740623 444.96875 36.459373Q444.3125 36.178123 443.85938 35.678123Q443.42188 35.1625 443.1875 34.475Q442.95312 33.7875 442.95312 32.975ZM444.92188 32.834373L444.92188 32.975Q444.92188 33.44375 445.0 33.85Q445.07812 34.240623 445.26562 34.553123Q445.45312 34.85 445.73438 35.021873Q446.03125 35.19375 446.45312 35.19375Q446.875 35.19375 447.15625 35.021873Q447.45312 34.85 447.625 34.553123Q447.8125 34.240623 447.89062 33.85Q447.98438 33.44375 447.98438 32.975L447.98438 32.834373Q447.98438 32.38125 447.89062 31.990623Q447.8125 31.584373 447.625 31.271873Q447.45312 30.959373 447.15625 30.787498Q446.85938 30.599998 446.4375 30.599998Q446.03125 30.599998 445.73438 30.787498Q445.45312 30.959373 445.26562 31.271873Q445.07812 31.584373 445.0 31.990623Q444.92188 32.38125 444.92188 32.834373ZM453.23438 30.818748L453.23438 36.6L451.26562 36.6L451.26562 29.209373L453.125 29.209373L453.23438 30.818748ZM455.46875 29.162498L455.42188 30.974998Q455.28125 30.959373 455.07812 30.943748Q454.875 30.928123 454.71875 30.928123Q454.29688 30.928123 453.98438 31.037498Q453.6875 31.131248 453.48438 31.334373Q453.29688 31.537498 453.1875 31.834373Q453.09375 32.13125 453.07812 32.50625L452.6875 32.38125Q452.6875 31.678123 452.82812 31.068748Q452.96875 30.459373 453.23438 30.006248Q453.51562 29.553123 453.92188 29.318748Q454.32812 29.068748 454.84375 29.068748Q455.01562 29.068748 455.1875 29.099998Q455.35938 29.115623 455.46875 29.162498ZM459.67188 36.740623Q458.8125 36.740623 458.125 36.459373Q457.4375 36.178123 456.95312 35.69375Q456.48438 35.19375 456.23438 34.553123Q455.98438 33.896873 455.98438 33.146873L455.98438 32.88125Q455.98438 32.0375 456.21875 31.349998Q456.46875 30.646873 456.90625 30.131248Q457.35938 29.615623 458.0 29.349998Q458.64062 29.068748 459.45312 29.068748Q460.23438 29.068748 460.84375 29.334373Q461.45312 29.584373 461.85938 30.068748Q462.28125 30.537498 462.48438 31.209373Q462.70312 31.881248 462.70312 32.69375L462.70312 33.50625L456.82812 33.50625L456.82812 32.19375L460.76562 32.19375L460.76562 32.053123Q460.76562 31.631248 460.625 31.318748Q460.48438 30.990623 460.1875 30.803123Q459.89062 30.599998 459.4375 30.599998Q459.04688 30.599998 458.76562 30.771873Q458.48438 30.943748 458.29688 31.256248Q458.125 31.568748 458.04688 31.974998Q457.96875 32.38125 457.96875 32.88125L457.96875 33.146873Q457.96875 33.6 458.09375 33.975Q458.21875 34.35 458.45312 34.63125Q458.6875 34.896873 459.01562 35.053123Q459.35938 35.19375 459.79688 35.19375Q460.32812 35.19375 460.78125 34.990623Q461.25 34.7875 461.57812 34.35L462.54688 35.396873Q462.3125 35.725 461.90625 36.0375Q461.51562 36.35 460.95312 36.553123Q460.39062 36.740623 459.67188 36.740623Z" fill-rule="nonzero"/><path stroke="#00b050" stroke-width="4.0" stroke-linecap="butt" stroke-dasharray="13.0,9.0" d="M479.5 32.1L514.5 32.1" fill-rule="nonzero"/><path fill="#1a1a1a" d="M526.9844 34.521873L529.3281 26.646873L531.6094 26.646873L528.1406 36.6L526.6406 36.6L526.9844 34.521873ZM524.8125 26.646873L527.15625 34.521873L527.5156 36.6L526.0 36.6L522.5469 26.646873L524.8125 26.646873ZM536.2656 34.928123L536.2656 31.631248Q536.2656 31.287498 536.1406 31.037498Q536.03125 30.771873 535.78125 30.631248Q535.5469 30.474998 535.15625 30.474998Q534.8281 30.474998 534.5781 30.599998Q534.34375 30.709373 534.21875 30.928123Q534.09375 31.131248 534.09375 31.396873L532.125 31.396873Q532.125 30.928123 532.34375 30.506248Q532.5625 30.084373 532.96875 29.756248Q533.3906 29.428123 533.96875 29.256248Q534.5469 29.068748 535.2656 29.068748Q536.125 29.068748 536.7969 29.365623Q537.46875 29.646873 537.84375 30.224998Q538.2344 30.787498 538.2344 31.646873L538.2344 34.81875Q538.2344 35.428123 538.3125 35.81875Q538.3906 36.19375 538.53125 36.490623L538.53125 36.6L536.5469 36.6Q536.40625 36.303123 536.3281 35.85Q536.2656 35.396873 536.2656 34.928123ZM536.5156 32.1L536.53125 33.209373L535.4375 33.209373Q535.0469 33.209373 534.75 33.303123Q534.46875 33.38125 534.28125 33.553123Q534.09375 33.709373 534.0 33.928123Q533.9219 34.13125 533.9219 34.38125Q533.9219 34.63125 534.03125 34.834373Q534.15625 35.0375 534.375 35.1625Q534.59375 35.271873 534.8906 35.271873Q535.3281 35.271873 535.65625 35.1Q535.9844 34.9125 536.1719 34.6625Q536.3594 34.396873 536.3594 34.1625L536.875 34.990623Q536.7656 35.271873 536.5781 35.584373Q536.3906 35.88125 536.1094 36.146873Q535.8281 36.396873 535.4219 36.56875Q535.0156 36.740623 534.4531 36.740623Q533.75 36.740623 533.1719 36.459373Q532.6094 36.1625 532.28125 35.6625Q531.9531 35.1625 531.9531 34.521873Q531.9531 33.94375 532.1719 33.490623Q532.3906 33.0375 532.8125 32.725Q533.25 32.4125 533.8906 32.25625Q534.53125 32.1 535.375 32.1L536.5156 32.1ZM542.34375 26.099998L542.34375 36.6L540.375 36.6L540.375 26.099998L542.34375 26.099998ZM543.9531 32.975L543.9531 32.834373Q543.9531 32.021873 544.1875 31.334373Q544.4219 30.646873 544.8594 30.146873Q545.3125 29.631248 545.9531 29.349998Q546.6094 29.068748 547.4375 29.068748Q548.28125 29.068748 548.9375 29.349998Q549.59375 29.631248 550.0469 30.146873Q550.5 30.646873 550.71875 31.334373Q550.9531 32.021873 550.9531 32.834373L550.9531 32.975Q550.9531 33.7875 550.71875 34.475Q550.5 35.1625 550.0469 35.678123Q549.59375 36.178123 548.9375 36.459373Q548.2969 36.740623 547.4531 36.740623Q546.625 36.740623 545.96875 36.459373Q545.3125 36.178123 544.8594 35.678123Q544.4219 35.1625 544.1875 34.475Q543.9531 33.7875 543.9531 32.975ZM545.9219 32.834373L545.9219 32.975Q545.9219 33.44375 546.0 33.85Q546.0781 34.240623 546.2656 34.553123Q546.4531 34.85 546.7344 35.021873Q547.03125 35.19375 547.4531 35.19375Q547.875 35.19375 548.15625 35.021873Q548.4531 34.85 548.625 34.553123Q548.8125 34.240623 548.8906 33.85Q548.9844 33.44375 548.9844 32.975L548.9844 32.834373Q548.9844 32.38125 548.8906 31.990623Q548.8125 31.584373 548.625 31.271873Q548.4531 30.959373 548.15625 30.787498Q547.8594 30.599998 547.4375 30.599998Q547.03125 30.599998 546.7344 30.787498Q546.4531 30.959373 546.2656 31.271873Q546.0781 31.584373 546.0 31.990623Q545.9219 32.38125 545.9219 32.834373ZM554.2344 30.818748L554.2344 36.6L552.2656 36.6L552.2656 29.209373L554.125 29.209373L554.2344 30.818748ZM556.46875 29.162498L556.4219 30.974998Q556.28125 30.959373 556.0781 30.943748Q555.875 30.928123 555.71875 30.928123Q555.2969 30.928123 554.9844 31.037498Q554.6875 31.131248 554.4844 31.334373Q554.2969 31.537498 554.1875 31.834373Q554.09375 32.13125 554.0781 32.50625L553.6875 32.38125Q553.6875 31.678123 553.8281 31.068748Q553.96875 30.459373 554.2344 30.006248Q554.5156 29.553123 554.9219 29.318748Q555.3281 29.068748 555.84375 29.068748Q556.0156 29.068748 556.1875 29.099998Q556.3594 29.115623 556.46875 29.162498ZM560.6719 36.740623Q559.8125 36.740623 559.125 36.459373Q558.4375 36.178123 557.9531 35.69375Q557.4844 35.19375 557.2344 34.553123Q556.9844 33.896873 556.9844 33.146873L556.9844 32.88125Q556.9844 32.0375 557.21875 31.349998Q557.46875 30.646873 557.90625 30.131248Q558.3594 29.615623 559.0 29.349998Q559.6406 29.068748 560.4531 29.068748Q561.2344 29.068748 561.84375 29.334373Q562.4531 29.584373 562.8594 30.068748Q563.28125 30.537498 563.4844 31.209373Q563.7031 31.881248 563.7031 32.69375L563.7031 33.50625L557.8281 33.50625L557.8281 32.19375L561.7656 32.19375L561.7656 32.053123Q561.7656 31.631248 561.625 31.318748Q561.4844 30.990623 561.1875 30.803123Q560.8906 30.599998 560.4375 30.599998Q560.0469 30.599998 559.7656 30.771873Q559.4844 30.943748 559.2969 31.256248Q559.125 31.568748 559.0469 31.974998Q558.96875 32.38125 558.96875 32.88125L558.96875 33.146873Q558.96875 33.6 559.09375 33.975Q559.21875 34.35 559.4531 34.63125Q559.6875 34.896873 560.0156 35.053123Q560.3594 35.19375 560.7969 35.19375Q561.3281 35.19375 561.78125 34.990623Q562.25 34.7875 562.5781 34.35L563.5469 35.396873Q563.3125 35.725 562.90625 36.0375Q562.5156 36.35 561.9531 36.553123Q561.3906 36.740623 560.6719 36.740623ZM567.9531 32.975L567.9531 32.834373Q567.9531 32.021873 568.1875 31.334373Q568.4219 30.646873 568.8594 30.146873Q569.3125 29.631248 569.9531 29.349998Q570.6094 29.068748 571.4375 29.068748Q572.28125 29.068748 572.9375 29.349998Q573.59375 29.631248 574.0469 30.146873Q574.5 30.646873 574.71875 31.334373Q574.9531 32.021873 574.9531 32.834373L574.9531 32.975Q574.9531 33.7875 574.71875 34.475Q574.5 35.1625 574.0469 35.678123Q573.59375 36.178123 572.9375 36.459373Q572.2969 36.740623 571.4531 36.740623Q570.625 36.740623 569.96875 36.459373Q569.3125 36.178123 568.8594 35.678123Q568.4219 35.1625 568.1875 34.475Q567.9531 33.7875 567.9531 32.975ZM569.9219 32.834373L569.9219 32.975Q569.9219 33.44375 570.0 33.85Q570.0781 34.240623 570.2656 34.553123Q570.4531 34.85 570.7344 35.021873Q571.03125 35.19375 571.4531 35.19375Q571.875 35.19375 572.15625 35.021873Q572.4531 34.85 572.625 34.553123Q572.8125 34.240623 572.8906 33.85Q572.9844 33.44375 572.9844 32.975L572.9844 32.834373Q572.9844 32.38125 572.8906 31.990623Q572.8125 31.584373 572.625 31.271873Q572.4531 30.959373 572.15625 30.787498Q571.8594 30.599998 571.4375 30.599998Q571.03125 30.599998 570.7344 30.787498Q570.4531 30.959373 570.2656 31.271873Q570.0781 31.584373 570.0 31.990623Q569.9219 32.38125 569.9219 32.834373ZM579.8906 29.209373L579.8906 30.599998L575.5781 30.599998L575.5781 29.209373L579.8906 29.209373ZM576.65625 27.381248L578.625 27.381248L578.625 34.365623Q578.625 34.69375 578.7031 34.865623Q578.78125 35.0375 578.9531 35.1Q579.125 35.1625 579.3906 35.1625Q579.5781 35.1625 579.71875 35.146873Q579.875 35.13125 579.96875 35.115623L579.9844 36.553123Q579.71875 36.646873 579.4219 36.69375Q579.1406 36.740623 578.78125 36.740623Q578.125 36.740623 577.6406 36.521873Q577.1719 36.303123 576.90625 35.834373Q576.65625 35.35 576.65625 34.56875L576.65625 27.381248ZM584.8906 29.209373L584.8906 30.599998L580.5781 30.599998L580.5781 29.209373L584.8906 29.209373ZM581.65625 27.381248L583.625 27.381248L583.625 34.365623Q583.625 34.69375 583.7031 34.865623Q583.78125 35.0375 583.9531 35.1Q584.125 35.1625 584.3906 35.1625Q584.5781 35.1625 584.71875 35.146873Q584.875 35.13125 584.96875 35.115623L584.9844 36.553123Q584.71875 36.646873 584.4219 36.69375Q584.1406 36.740623 583.78125 36.740623Q583.125 36.740623 582.6406 36.521873Q582.1719 36.303123 581.90625 35.834373Q581.65625 35.35 581.65625 34.56875L581.65625 27.381248ZM588.34375 29.209373L588.34375 36.6L586.375 36.6L586.375 29.209373L588.34375 29.209373ZM586.25 27.271873Q586.25 26.849998 586.5469 26.568748Q586.84375 26.287498 587.3594 26.287498Q587.8594 26.287498 588.15625 26.568748Q588.4531 26.849998 588.4531 27.271873Q588.4531 27.709373 588.15625 27.990623Q587.8594 28.271873 587.3594 28.271873Q586.84375 28.271873 586.5469 27.990623Q586.25 27.709373 586.25 27.271873ZM592.2344 30.740623L592.2344 36.6L590.2656 36.6L590.2656 29.209373L592.1094 29.209373L592.2344 30.740623ZM591.9531 32.646873L591.4219 32.646873Q591.4219 31.865623 591.6094 31.224998Q591.7969 30.568748 592.15625 30.084373Q592.5156 29.599998 593.0625 29.334373Q593.6094 29.068748 594.3125 29.068748Q594.8125 29.068748 595.21875 29.224998Q595.625 29.365623 595.9219 29.678123Q596.21875 29.974998 596.375 30.474998Q596.5469 30.974998 596.5469 31.662498L596.5469 36.6L594.5781 36.6L594.5781 31.881248Q594.5781 31.381248 594.4375 31.115623Q594.3125 30.834373 594.0625 30.724998Q593.8125 30.615623 593.4531 30.615623Q593.0781 30.615623 592.7969 30.771873Q592.5156 30.928123 592.3281 31.209373Q592.1406 31.474998 592.0469 31.849998Q591.9531 32.225 591.9531 32.646873ZM596.3594 32.4125L595.65625 32.50625Q595.65625 31.787498 595.8281 31.162498Q596.0156 30.537498 596.375 30.068748Q596.7344 29.599998 597.2656 29.334373Q597.8125 29.068748 598.5 29.068748Q599.03125 29.068748 599.46875 29.224998Q599.90625 29.381248 600.21875 29.709373Q600.53125 30.037498 600.7031 30.568748Q600.875 31.099998 600.875 31.881248L600.875 36.6L598.8906 36.6L598.8906 31.881248Q598.8906 31.365623 598.75 31.099998Q598.625 30.818748 598.375 30.724998Q598.125 30.615623 597.78125 30.615623Q597.4375 30.615623 597.15625 30.756248Q596.8906 30.896873 596.71875 31.146873Q596.5469 31.381248 596.4531 31.709373Q596.3594 32.0375 596.3594 32.4125ZM601.9531 32.975L601.9531 32.834373Q601.9531 32.021873 602.1875 31.334373Q602.4219 30.646873 602.8594 30.146873Q603.3125 29.631248 603.9531 29.349998Q604.6094 29.068748 605.4375 29.068748Q606.28125 29.068748 606.9375 29.349998Q607.59375 29.631248 608.0469 30.146873Q608.5 30.646873 608.71875 31.334373Q608.9531 32.021873 608.9531 32.834373L608.9531 32.975Q608.9531 33.7875 608.71875 34.475Q608.5 35.1625 608.0469 35.678123Q607.59375 36.178123 606.9375 36.459373Q606.2969 36.740623 605.4531 36.740623Q604.625 36.740623 603.96875 36.459373Q603.3125 36.178123 602.8594 35.678123Q602.4219 35.1625 602.1875 34.475Q601.9531 33.7875 601.9531 32.975ZM603.9219 32.834373L603.9219 32.975Q603.9219 33.44375 604.0 33.85Q604.0781 34.240623 604.2656 34.553123Q604.4531 34.85 604.7344 35.021873Q605.03125 35.19375 605.4531 35.19375Q605.875 35.19375 606.15625 35.021873Q606.4531 34.85 606.625 34.553123Q606.8125 34.240623 606.8906 33.85Q606.9844 33.44375 606.9844 32.975L606.9844 32.834373Q606.9844 32.38125 606.8906 31.990623Q606.8125 31.584373 606.625 31.271873Q606.4531 30.959373 606.15625 30.787498Q605.8594 30.599998 605.4375 30.599998Q605.03125 30.599998 604.7344 30.787498Q604.4531 30.959373 604.2656 31.271873Q604.0781 31.584373 604.0 31.990623Q603.9219 32.38125 603.9219 32.834373Z" fill-rule="nonzero"/></svg>